<svg width="32" height="32" viewBox="0 0 32 32" fill="none" xmlns="http://www.w3.org/2000/svg">
<path d="M32 17.3468C29.7511 20.8179 26.9111 23.8668 23.6045 26.369C18.44 30.1423 13.2 32.9068 7.83112 31.7157C6.19112 31.3468 3.54668 29.6046 3.85334 25.5512C4.16446 22.6001 5.22223 19.7779 6.92001 17.3379C6.92001 17.3379 3.39557 22.5779 5.74223 25.7557C8.20001 29.0801 15.1289 25.4712 16.2845 24.6801C16.2845 24.6801 21.0934 21.569 23.6667 17.3423H32V17.3468Z" fill="white"/>
<path d="M0 14.6763C2.25333 11.2052 5.09778 8.12516 8.40445 5.62294C13.56 1.8496 18.8045 -0.919286 24.1689 0.285159C25.8089 0.649604 28.4533 2.39183 28.1467 6.44072C27.84 9.40072 26.7867 12.2363 25.08 14.6852C25.08 14.6852 28.6045 9.45405 26.2578 6.26738C23.8045 2.94294 16.8711 6.55627 15.7156 7.34294C15.7156 7.34294 10.9111 10.4541 8.33334 14.6807H0V14.6763Z" fill="white"/>
</svg>
