<svg width="70" height="72" viewBox="0 0 70 72" fill="none" xmlns="http://www.w3.org/2000/svg">
<path d="M50.6644 18.1362C48.4347 21.5753 45.6191 24.5976 42.3432 27.0798C37.225 30.8195 32.0306 33.5611 26.7117 32.3776C25.0854 32.0101 22.4659 30.2841 22.7677 26.2696C23.0776 23.3471 24.1238 20.548 25.8075 18.1304C25.8075 18.1304 22.3156 23.3225 24.6393 26.4751C27.0756 29.7721 33.9409 26.1945 35.0893 25.409C35.0893 25.409 39.8563 22.3245 42.4054 18.1362H50.6644Z" fill="white"/>
<path d="M18.9482 15.4883C21.1814 12.0492 23.9994 8.99639 27.2765 6.51422C32.3887 2.77453 37.582 0.0328805 42.9021 1.22347C44.5283 1.58511 47.1479 3.31112 46.8461 7.32556C46.542 10.2598 45.497 13.0695 43.8062 15.4965C43.8062 15.4965 47.2982 10.3114 44.9745 7.15179C42.544 3.85476 35.6729 7.43828 34.5245 8.21792C34.5245 8.21792 29.7645 11.3024 27.2084 15.4906H18.9482V15.4883Z" fill="white"/>
<g clip-path="url(#clip0_1_857)">
<path d="M9.69522 66.1145V62.5114H11.9333V63.0029H10.2259V64.0568H11.6821V64.5429H10.2259V65.6262H11.9333V66.1145H9.69522ZM10.8915 62.1593H10.513L10.8817 61.3387H11.4374L10.8915 62.1593Z" fill="white"/>
<path d="M13.9159 66.1485C13.7444 66.1507 13.5744 66.1178 13.4161 66.0516C13.2579 65.9854 13.1149 65.8875 12.9959 65.7637C12.6511 65.4084 12.6566 65.0085 12.6566 64.3153C12.6566 63.6221 12.6511 63.2254 12.9959 62.8668C13.1147 62.743 13.2577 62.6449 13.416 62.5787C13.5743 62.5126 13.7444 62.4797 13.9159 62.4821C14.5608 62.4821 15.0425 62.8712 15.1654 63.5905H14.6217C14.539 63.2265 14.3019 62.9726 13.9137 62.9726C13.8172 62.9708 13.7214 62.9893 13.6324 63.0269C13.5435 63.0644 13.4633 63.1201 13.3971 63.1905C13.2253 63.3834 13.1862 63.5905 13.1862 64.3153C13.1862 65.0401 13.2253 65.2471 13.3971 65.439C13.4632 65.5096 13.5433 65.5655 13.6323 65.603C13.7213 65.6406 13.8172 65.6589 13.9137 65.6569C14.3019 65.6569 14.5434 65.4041 14.6271 65.039H15.1632C15.048 65.7583 14.5532 66.1485 13.9159 66.1485Z" fill="white"/>
<path d="M18.0537 65.7638C17.9325 65.8857 17.7884 65.9825 17.6298 66.0485C17.4712 66.1145 17.3011 66.1485 17.1294 66.1485C16.9576 66.1485 16.7875 66.1145 16.6289 66.0485C16.4703 65.9825 16.3262 65.8857 16.205 65.7638C15.8603 65.4085 15.8657 65.0085 15.8657 64.3154C15.8657 63.6222 15.8603 63.2255 16.205 62.8669C16.3262 62.745 16.4703 62.6482 16.6289 62.5822C16.7875 62.5162 16.9576 62.4822 17.1294 62.4822C17.3011 62.4822 17.4712 62.5162 17.6298 62.5822C17.7884 62.6482 17.9325 62.745 18.0537 62.8669C18.3974 63.2211 18.3876 63.6211 18.3876 64.3154C18.3876 65.0096 18.3974 65.4085 18.0537 65.7638ZM17.6503 63.196C17.583 63.1254 17.502 63.0692 17.4124 63.0307C17.3228 62.9923 17.2263 62.9725 17.1288 62.9725C17.0313 62.9725 16.9349 62.9923 16.8452 63.0307C16.7556 63.0692 16.6747 63.1254 16.6074 63.196C16.4345 63.3879 16.4007 63.5906 16.4007 64.3154C16.4007 65.0401 16.4345 65.2417 16.6074 65.4347C16.6749 65.5049 16.7559 65.5608 16.8455 65.5989C16.9351 65.6371 17.0315 65.6568 17.1288 65.6568C17.2262 65.6568 17.3225 65.6371 17.4121 65.5989C17.5017 65.5608 17.5827 65.5049 17.6503 65.4347C17.8221 65.2417 17.8569 65.039 17.8569 64.3154C17.8569 63.5917 17.8221 63.39 17.6503 63.196Z" fill="white"/>
<path d="M19.2979 66.1145V62.5114H19.8297V65.6263H21.5131V66.1145H19.2979Z" fill="white"/>
<path d="M22.2451 66.1145V62.5114H24.4831V63.0029H22.7768V64.0569H24.2319V64.5429H22.7768V65.6263H24.4831V66.1145H22.2451Z" fill="white"/>
<path d="M28.7733 65.7788C28.653 65.8935 28.5109 65.9827 28.3554 66.0409C28.1999 66.0992 28.0343 66.1253 27.8685 66.1178H26.6385V62.5114H27.8685C28.0343 62.504 28.2 62.5303 28.3555 62.5888C28.511 62.6472 28.6531 62.7365 28.7733 62.8514C29.1517 63.2416 29.1278 63.768 29.1278 64.29C29.1278 64.8121 29.1517 65.3886 28.7733 65.7788ZM28.4089 63.2459C28.3341 63.1636 28.2419 63.099 28.1389 63.057C28.036 63.0149 27.925 62.9964 27.8141 63.0029H27.1681V65.6262H27.813C27.924 65.6329 28.035 65.6146 28.138 65.5725C28.241 65.5304 28.3332 65.4657 28.4079 65.3832C28.5906 65.1761 28.5949 64.7859 28.5949 64.2933C28.5949 63.8007 28.5916 63.4541 28.4089 63.2459Z" fill="white"/>
<path d="M29.9641 63.5043V62.5114H30.5154V63.0444L29.9641 63.5043Z" fill="white"/>
<path d="M31.479 66.1145V62.5114H32.0108V66.1145H31.479Z" fill="white"/>
<path d="M35.1983 66.1145L33.5844 63.5806V66.1145H33.0526V62.5114H33.5398L35.158 65.0443V62.5114H35.6898V66.1145H35.1983Z" fill="white"/>
<path d="M38.8184 65.7375C38.6976 65.8651 38.5525 65.9672 38.3917 66.0377C38.2309 66.1083 38.0577 66.1459 37.8822 66.1483C37.7066 66.1508 37.5324 66.118 37.3697 66.0519C37.2071 65.9858 37.0592 65.8878 36.9349 65.7636C36.5901 65.4083 36.5956 65.0083 36.5956 64.3152C36.5956 63.622 36.5901 63.2253 36.9349 62.8667C37.0532 62.7421 37.1961 62.6435 37.3545 62.5772C37.5129 62.511 37.6833 62.4786 37.8549 62.482C38.5977 62.482 39.0305 62.9833 39.1284 63.6002H38.5922C38.5042 63.2057 38.2486 62.9724 37.8549 62.9724C37.758 62.9714 37.662 62.9907 37.573 63.0292C37.484 63.0677 37.4041 63.1245 37.3384 63.1959C37.1665 63.3877 37.1263 63.5904 37.1263 64.3152C37.1263 65.0399 37.1665 65.247 37.3384 65.4388C37.4044 65.5094 37.4845 65.5653 37.5735 65.6029C37.6625 65.6404 37.7584 65.6588 37.8549 65.6568C37.9627 65.659 38.0697 65.6375 38.1684 65.5938C38.267 65.5501 38.3549 65.4853 38.4259 65.404C38.5521 65.2428 38.6148 65.0407 38.602 64.8361V64.6345H37.8549V64.168H39.1306V64.7206C39.1306 65.186 39.0501 65.4846 38.8184 65.7375Z" fill="white"/>
<path d="M40.0386 66.1146V62.5115H42.2778V63.003H40.5704V64.0569H42.0266V64.543H40.5704V65.6263H42.2778V66.1146H40.0386ZM41.2349 62.1594H40.8553L41.2251 61.3387H41.7808L41.2349 62.1594Z" fill="white"/>
<path d="M45.2784 66.1145L43.6602 63.5773V66.1145H43.1295V62.5114H43.6156L45.2349 65.0443V62.5114H45.7645V66.1145H45.2784Z" fill="white"/>
<path d="M46.804 66.1145V62.5114H47.3347V66.1145H46.804Z" fill="white"/>
<path d="M48.3744 66.1145V62.5114H50.6125V63.0029H48.9051V64.0569H50.3613V64.5429H48.904V65.6263H50.6114V66.1145H48.3744Z" fill="white"/>
<path d="M52.6636 66.1483C51.9502 66.1483 51.4086 65.647 51.4086 64.9026V62.5114H51.9404V64.8775C51.9404 65.3582 52.2253 65.6568 52.6636 65.6568C53.1019 65.6568 53.3911 65.3582 53.3911 64.8775V62.5114H53.9208V64.9026C53.9208 65.647 53.377 66.1483 52.6636 66.1483Z" fill="white"/>
<path d="M56.8394 66.1145L56.1021 64.5953H55.4431V66.1145H54.9124V62.5114H56.2696C56.934 62.5114 57.3571 62.9528 57.3571 63.5653C57.3674 63.781 57.3037 63.9936 57.1764 64.1678C57.0491 64.342 56.8661 64.4671 56.6578 64.5222L57.4593 66.1145H56.8394ZM56.225 62.9997H55.4431V64.1288H56.2304C56.5849 64.1288 56.8253 63.9217 56.8253 63.5675C56.8253 63.2133 56.5795 63.0029 56.225 63.0029V62.9997Z" fill="white"/>
<path d="M59.182 66.1483C58.6557 66.1483 58.2761 66.0219 57.9423 65.6721L58.2957 65.3124C58.5523 65.5762 58.8318 65.6568 59.1918 65.6568C59.6485 65.6568 59.915 65.4541 59.915 65.1042C59.9194 65.0357 59.9093 64.967 59.8855 64.9026C59.8617 64.8382 59.8247 64.7796 59.7769 64.7304C59.6888 64.6443 59.5996 64.6083 59.393 64.5778L58.9797 64.5179C58.7336 64.4934 58.5013 64.3925 58.3153 64.2291C58.2274 64.1383 58.1593 64.0301 58.1153 63.9116C58.0713 63.793 58.0524 63.6666 58.0597 63.5403C58.0597 62.9125 58.5023 62.482 59.231 62.482C59.6931 62.482 60.0183 62.603 60.3184 62.8918L59.9792 63.2362C59.8782 63.1398 59.7585 63.0653 59.6275 63.0173C59.4965 62.9693 59.3571 62.9488 59.2179 62.9572C58.8047 62.9572 58.5785 63.2002 58.5785 63.5196C58.5755 63.5816 58.5858 63.6435 58.6087 63.7012C58.6316 63.7589 58.6665 63.8111 58.7111 63.8541C58.8242 63.9455 58.9606 64.0033 59.1048 64.0209L59.5039 64.0819C59.8302 64.1321 60.0107 64.2138 60.1564 64.35C60.2548 64.4454 60.3315 64.5608 60.3814 64.6885C60.4314 64.8162 60.4533 64.9531 60.4457 65.0901C60.4457 65.7527 59.915 66.1483 59.182 66.1483Z" fill="white"/>
<path d="M9.70618 71.0474V67.4421H12.0052V67.9325H10.2521V68.9864H11.7474V69.4725H10.2521V70.5559H12.0052V71.0474H9.70618Z" fill="white"/>
<path d="M14.8511 71.0474L13.1894 68.5123V71.0496H12.6456V67.4421H13.1394L14.8011 69.9739V67.4421H15.3448V71.0474H14.8511Z" fill="white"/>
<path d="M18.3345 70.6681C18.0796 70.9249 17.7345 71.0712 17.3731 71.0757C17.0118 71.0802 16.6631 70.9424 16.402 70.6921C16.0486 70.3368 16.054 69.9368 16.054 69.2436C16.054 68.5505 16.054 68.1538 16.402 67.7952C16.525 67.6699 16.6723 67.5711 16.8348 67.5049C16.9974 67.4388 17.1717 67.4066 17.347 67.4105C18.1083 67.4105 18.5552 67.9118 18.652 68.5298H18.1007C18.0104 68.1341 17.7472 67.902 17.3394 67.902C17.2408 67.9001 17.1428 67.9184 17.0515 67.9559C16.9603 67.9934 16.8776 68.0492 16.8087 68.12C16.6325 68.3118 16.5912 68.5145 16.5912 69.2393C16.5912 69.964 16.6315 70.1711 16.8087 70.3629C16.8775 70.4338 16.9601 70.4898 17.0514 70.5273C17.1427 70.5648 17.2408 70.583 17.3394 70.5809C17.4496 70.5838 17.559 70.5627 17.6602 70.519C17.7614 70.4754 17.852 70.4102 17.9256 70.3281C18.0556 70.169 18.1209 69.9666 18.1083 69.7613V69.5586H17.3394V69.0921H18.6531V69.6447C18.6575 70.1155 18.577 70.4142 18.3345 70.6681Z" fill="white"/>
<path d="M19.3511 71.0474V67.4421H19.8949V71.0474H19.3511Z" fill="white"/>
<path d="M22.9345 71.0474L21.2728 68.5123V71.0496H20.7291V67.4421H21.2293L22.891 69.9739V67.4421H23.4348V71.0474H22.9345Z" fill="white"/>
<path d="M24.2656 71.0474V67.4421H26.5646V67.9325H24.8105V68.9864H26.3069V69.4725H24.8105V70.5559H26.5646V71.0474H24.2656Z" fill="white"/>
<path d="M27.2019 71.0474V67.4421H29.502V67.9325H27.7478V68.9864H29.2442V69.4725H27.7478V70.5559H29.502V71.0474H27.2019Z" fill="white"/>
<path d="M32.125 71.0474L31.3638 69.5281H30.6819V71.0474H30.1382V67.4421H31.5334C32.2153 67.4421 32.6503 67.878 32.6503 68.4949C32.6589 68.7128 32.5922 68.9271 32.4614 69.1014C32.3307 69.2758 32.1438 69.3995 31.9326 69.4518L32.7612 71.0474H32.125ZM31.4943 67.9325H30.6852V69.0627H31.4943C31.8575 69.0627 32.1055 68.8546 32.1055 68.5003C32.1055 68.1461 31.8575 67.9325 31.4943 67.9325Z" fill="white"/>
<path d="M33.3397 71.0474V67.4421H33.8835V71.0474H33.3397Z" fill="white"/>
<path d="M36.9231 71.0474L35.2603 68.5123V71.0496H34.7166V67.4421H35.2157L36.8785 69.9739V67.4421H37.4223V71.0474H36.9231Z" fill="white"/>
<path d="M40.4063 70.6683C40.1515 70.9262 39.8057 71.0733 39.4435 71.078C39.0814 71.0827 38.732 70.9445 38.4706 70.6933C38.1171 70.338 38.1215 69.938 38.1215 69.2449C38.1215 68.5517 38.1215 68.155 38.4706 67.7964C38.5936 67.6711 38.7409 67.5724 38.9034 67.5062C39.0659 67.44 39.2402 67.4079 39.4156 67.4117C40.1768 67.4117 40.6238 67.9131 40.7206 68.531H40.1692C40.0779 68.1354 39.8158 67.9032 39.408 67.9032C39.3093 67.9012 39.2113 67.9195 39.12 67.957C39.0287 67.9945 38.9461 68.0504 38.8773 68.1212C38.7 68.313 38.6598 68.5158 38.6598 69.2405C38.6598 69.9653 38.7 70.1724 38.8773 70.3642C38.946 70.4352 39.0286 70.4912 39.1199 70.5287C39.2112 70.5662 39.3093 70.5844 39.408 70.5822C39.5181 70.585 39.6276 70.5639 39.7288 70.5203C39.83 70.4766 39.9205 70.4115 39.9941 70.3293C40.1239 70.1701 40.1888 69.9677 40.1757 69.7626V69.5599H39.408V69.0934H40.7293V69.646C40.7293 70.1157 40.6434 70.4143 40.4063 70.6683Z" fill="white"/>
<path d="M43.4806 71.078C42.9369 71.078 42.5508 70.9516 42.2072 70.6017L42.5715 70.2421C42.8346 70.5058 43.1217 70.5865 43.4915 70.5865C43.9613 70.5865 44.2342 70.3837 44.2342 70.035C44.2386 69.966 44.2283 69.8969 44.2039 69.8322C44.1795 69.7676 44.1417 69.7089 44.0929 69.6601C44.0015 69.574 43.9102 69.538 43.6981 69.5075L43.274 69.4475C43.0222 69.4238 42.7837 69.323 42.591 69.1587C42.5014 69.0689 42.4317 68.9611 42.3865 68.8424C42.3414 68.7237 42.3217 68.5968 42.329 68.4699C42.329 67.8422 42.7835 67.4117 43.5317 67.4117C44.007 67.4117 44.3397 67.5326 44.6486 67.8214L44.2995 68.1658C44.1946 68.0688 44.071 67.9942 43.9364 67.9464C43.8019 67.8986 43.659 67.8787 43.5165 67.8879C43.0924 67.8879 42.864 68.131 42.864 68.4492C42.861 68.5115 42.8717 68.5737 42.8952 68.6315C42.9186 68.6893 42.9544 68.7413 42.9999 68.7838C43.117 68.8756 43.2569 68.9333 43.4045 68.9506L43.8134 69.0116C44.1472 69.0628 44.3343 69.1435 44.4855 69.2797C44.5854 69.3741 44.6634 69.4892 44.7142 69.6171C44.7649 69.7449 44.7871 69.8824 44.7791 70.0197C44.7736 70.6835 44.2332 71.078 43.4806 71.078Z" fill="white"/>
<path d="M46.5583 71.0779C46.3831 71.0807 46.2091 71.048 46.0467 70.9819C45.8844 70.9158 45.7369 70.8176 45.6133 70.6932C45.2598 70.3379 45.2653 69.9379 45.2653 69.2447C45.2653 68.5516 45.2653 68.1549 45.6133 67.7963C45.7369 67.6719 45.8844 67.5737 46.0467 67.5076C46.2091 67.4415 46.3831 67.4088 46.5583 67.4116C47.2206 67.4116 47.7154 67.8007 47.8426 68.52H47.2869C47.1999 68.156 46.9607 67.9031 46.5583 67.9031C46.4597 67.9012 46.3617 67.9195 46.2704 67.957C46.1792 67.9945 46.0965 68.0503 46.0276 68.1211C45.8514 68.314 45.8101 68.5211 45.8101 69.2458C45.8101 69.9706 45.8503 70.1777 46.0276 70.3695C46.0964 70.4404 46.179 70.4963 46.2703 70.5338C46.3616 70.5713 46.4596 70.5896 46.5583 70.5875C46.9574 70.5875 47.2108 70.3346 47.2913 69.9695H47.8426C47.7219 70.6921 47.2108 71.0779 46.5583 71.0779Z" fill="white"/>
<path d="M50.4656 71.0474V69.4725H49.0062V71.0474H48.4624V67.4421H49.0062V68.981H50.4656V67.4421H51.0093V71.0474H50.4656Z" fill="white"/>
<path d="M53.9544 70.6921C53.7004 70.939 53.3604 71.077 53.0066 71.077C52.6528 71.077 52.3129 70.939 52.0589 70.6921C51.7054 70.3368 51.7109 69.9369 51.7109 69.2437C51.7109 68.5505 51.7109 68.1538 52.0589 67.7953C52.3129 67.5484 52.6528 67.4104 53.0066 67.4104C53.3604 67.4104 53.7004 67.5484 53.9544 67.7953C54.3078 68.1495 54.298 68.5494 54.298 69.2437C54.298 69.9379 54.3078 70.3379 53.9544 70.6921ZM53.5401 68.1244C53.3975 67.983 53.205 67.9036 53.0045 67.9036C52.8039 67.9036 52.6114 67.983 52.4689 68.1244C52.2916 68.3162 52.2568 68.5189 52.2568 69.2437C52.2568 69.9685 52.2916 70.1701 52.4689 70.363C52.6114 70.5044 52.8039 70.5838 53.0045 70.5838C53.205 70.5838 53.3975 70.5044 53.5401 70.363C53.7173 70.1701 53.7576 69.9674 53.7576 69.2437C53.7576 68.52 53.7173 68.3173 53.5401 68.1255V68.1244Z" fill="white"/>
<path d="M57.1092 70.6921C56.8552 70.939 56.5152 71.077 56.1614 71.077C55.8076 71.077 55.4677 70.939 55.2137 70.6921C54.8602 70.3368 54.8657 69.9369 54.8657 69.2437C54.8657 68.5505 54.8602 68.1538 55.2137 67.7953C55.4677 67.5484 55.8076 67.4104 56.1614 67.4104C56.5152 67.4104 56.8552 67.5484 57.1092 67.7953C57.4626 68.1495 57.4528 68.5494 57.4528 69.2437C57.4528 69.9379 57.4626 70.3379 57.1092 70.6921ZM56.6948 68.1244C56.5523 67.983 56.3598 67.9036 56.1593 67.9036C55.9587 67.9036 55.7662 67.983 55.6237 68.1244C55.4464 68.3162 55.4062 68.5189 55.4062 69.2437C55.4062 69.9685 55.442 70.1701 55.6237 70.363C55.7662 70.5044 55.9587 70.5838 56.1593 70.5838C56.3598 70.5838 56.5523 70.5044 56.6948 70.363C56.871 70.1701 56.9123 69.9674 56.9123 69.2437C56.9123 68.52 56.871 68.3173 56.6948 68.1255V68.1244Z" fill="white"/>
<path d="M58.151 71.0474V67.4421H58.6948V70.5559H60.4282V71.0474H58.151Z" fill="white"/>
<path d="M23.5794 44.644H11.6626L12.7197 45.8429V48.6373H22.1015V51.544H12.7197V55.8599H24.096V58.7895H9.68335V41.7101H23.5794V44.644Z" fill="white"/>
<path d="M44.0385 54.6097C43.7024 55.3512 43.234 56.0249 42.6563 56.5977C42.0792 57.1666 41.4192 57.6443 40.6988 58.0145C39.9417 58.4014 39.1374 58.6875 38.3063 58.8657C37.4278 59.0568 36.5312 59.1518 35.6322 59.1491C34.2972 59.1676 32.9703 58.9404 31.7172 58.4788C30.599 58.0649 29.5743 57.4321 28.7026 56.6173C27.8689 55.8277 27.2091 54.8722 26.7658 53.8119C26.3059 52.7041 26.0747 51.5144 26.0861 50.3145C26.0861 48.934 26.3428 47.6963 26.8561 46.6013C27.3462 45.5359 28.0572 44.5873 28.9419 43.8189C29.8371 43.0505 30.8706 42.4609 31.9869 42.0816C33.1595 41.6785 34.3914 41.4763 35.6311 41.4833C37.5647 41.4833 39.2568 41.9225 40.7075 42.8009C42.1445 43.6652 43.3197 44.9051 44.1071 46.3877L41.3883 47.6138C41.0815 47.1437 40.7324 46.7026 40.3454 46.2962C39.5873 45.4974 38.616 44.9341 37.5473 44.6733C36.9203 44.5217 36.2771 44.4485 35.6322 44.4554C34.7883 44.4508 33.9494 44.586 33.1494 44.8553C32.4005 45.1039 31.7077 45.4975 31.1103 46.0139C30.5243 46.527 30.0529 47.1584 29.727 47.8667C29.3767 48.6442 29.2025 49.4898 29.217 50.3429C29.2023 51.1483 29.3643 51.9471 29.6914 52.6828C30.0186 53.4186 30.503 54.0734 31.1103 54.601C31.7103 55.1187 32.402 55.5187 33.1494 55.7803C33.9463 56.0622 34.786 56.2031 35.6311 56.1966C36.2354 56.198 36.8385 56.1411 37.432 56.0266C37.9919 55.9201 38.5365 55.7448 39.0534 55.5045C39.5471 55.2731 40.0019 54.9665 40.4019 54.5956C40.8117 54.2143 41.1541 53.7662 41.4144 53.2703L44.0385 54.6097Z" fill="white"/>
<path d="M59.9323 44.644H48.0122L49.0693 45.8429V48.6373H58.4522V51.544H49.0693V55.8599H60.4456V58.7895H46.033V41.7101H59.9323V44.644Z" fill="white"/>
</g>
<defs>
<clipPath id="clip0_1_857">
<rect width="50.6917" height="29.5422" fill="white" transform="translate(9.68335 41.4833)"/>
</clipPath>
</defs>
</svg>
