<svg width="70" height="71" viewBox="0 0 70 71" fill="none" xmlns="http://www.w3.org/2000/svg">
<path d="M50.6644 18.1362C48.4347 21.5753 45.6191 24.5976 42.3432 27.0798C37.225 30.8195 32.0306 33.5611 26.7117 32.3776C25.0854 32.0101 22.4659 30.2841 22.7677 26.2696C23.0776 23.3471 24.1238 20.548 25.8075 18.1304C25.8075 18.1304 22.3156 23.3225 24.6393 26.4751C27.0756 29.7721 33.9409 26.1945 35.0892 25.409C35.0892 25.409 39.8563 22.3245 42.4054 18.1362H50.6644Z" fill="white"/>
<path d="M18.9482 15.4884C21.1814 12.0493 23.9994 8.99645 27.2764 6.51428C32.3887 2.7746 37.582 0.0329415 42.9021 1.22354C44.5283 1.58518 47.1478 3.31118 46.8461 7.32562C46.542 10.2598 45.497 13.0696 43.8062 15.4966C43.8062 15.4966 47.2981 10.3115 44.9745 7.15185C42.544 3.85482 35.6728 7.43834 34.5245 8.21798C34.5245 8.21798 29.7645 11.3025 27.2083 15.4907H18.9482V15.4884Z" fill="white"/>
<path d="M17.5118 42.5274L17.6465 42.4954C17.7265 42.4654 17.8146 42.4654 17.8946 42.4954C17.9797 42.5356 18.0511 42.5998 18.1002 42.6802C18.1795 42.8371 18.2139 43.0129 18.1995 43.1882V59.2796C18.2115 59.4467 18.1771 59.614 18.1002 59.7628C18.0583 59.8336 17.9932 59.8876 17.9159 59.9156L17.8734 59.9369C17.8381 59.9493 17.8006 59.9542 17.7634 59.9511C17.7261 59.9481 17.6899 59.9372 17.6571 59.9191L17.5118 59.8658V60.8216H25.1082V57.8193H24.2078V57.9224C24.1963 58.2824 24.1439 58.64 24.0519 58.9882C23.9738 59.2548 23.8328 59.4986 23.6407 59.6988C23.5421 59.7971 23.4238 59.8732 23.2936 59.9222C23.1635 59.9712 23.0244 59.992 22.8856 59.9831H20.2413V51.726H21.9853C22.067 51.7197 22.1492 51.731 22.2263 51.7592C22.3033 51.7874 22.3734 51.8318 22.4319 51.8894C22.546 52.0115 22.6297 52.1588 22.6765 52.3193C22.746 52.5105 22.7796 52.7128 22.7758 52.9162V53.0264H23.5981V49.548H22.7758V49.6546C22.7786 49.8687 22.7438 50.0815 22.673 50.2835C22.6264 50.428 22.5448 50.5586 22.4355 50.6637C22.3747 50.7187 22.3036 50.7609 22.2262 50.7877C22.1489 50.8146 22.0669 50.8256 21.9853 50.82H20.2413V42.4457H22.8679C23.0092 42.4378 23.1505 42.4625 23.2808 42.518C23.411 42.5734 23.5269 42.6581 23.6194 42.7654C23.801 42.9741 23.9417 43.2151 24.0341 43.476C24.1257 43.8244 24.178 44.1819 24.1901 44.5419V44.6449H25.0905V41.6462H17.5118V42.5274Z" fill="white"/>
<path d="M30.4779 49.6214C30.1754 49.1943 29.8195 48.7139 29.4102 48.1978C29.0135 47.69 28.6745 47.1398 28.3993 46.5572C28.1393 46.0081 27.9905 45.413 27.9616 44.8062C27.9494 44.1773 28.1501 43.5628 28.531 43.0623C28.7266 42.8365 28.9697 42.6566 29.2429 42.5356C29.5413 42.4001 29.8655 42.3309 30.1932 42.3328C30.4521 42.3134 30.7116 42.3601 30.9476 42.4684C31.1835 42.5767 31.3881 42.7431 31.5421 42.952C31.8487 43.3798 32.0687 43.8634 32.1899 44.3756C32.3524 45.0508 32.4136 45.7465 32.3714 46.4397V46.5536H33.3395V41.6886H32.3892V41.7882C32.3465 42.226 32.2647 42.2758 32.2647 42.2758C32.2647 42.2758 32.1116 42.2758 31.8767 42.1299L31.1649 41.6922C30.8725 41.5136 30.5357 41.4211 30.1932 41.4252C29.161 41.4252 28.3709 41.6708 27.8477 42.1548C27.2808 42.7162 26.8826 43.4251 26.698 44.2012C26.5703 44.7989 26.507 45.4086 26.5094 46.0198C26.5147 46.6882 26.6056 47.3532 26.7799 47.9985C26.9789 48.7308 27.2532 49.4404 27.5985 50.1161C28.0053 50.9115 28.5034 51.6567 29.0827 52.3368C29.403 52.7639 29.7946 53.2728 30.2537 53.8671C30.6997 54.4452 31.0928 55.0622 31.4282 55.7107C31.7504 56.327 31.9544 56.9981 32.0298 57.6894C32.0958 58.3558 31.9034 59.0221 31.4923 59.5507C31.2952 59.7973 31.0445 59.9957 30.7591 60.1308C30.5086 60.272 30.2243 60.3421 29.9369 60.3337C29.6118 60.3283 29.2921 60.2505 29.0009 60.1059C28.7583 59.9826 28.5438 59.8106 28.3709 59.6005C28.2006 59.3987 28.0625 59.1719 27.9616 58.9279C27.8585 58.6775 27.7717 58.4207 27.7017 58.1592C27.6297 57.837 27.5821 57.5098 27.5594 57.1805C27.533 56.8242 27.5461 56.4662 27.5985 56.1128V55.9882H26.6482V60.928H27.5523V60.8248C27.5523 60.4689 27.6448 60.3764 27.6839 60.3693C27.8538 60.3707 28.02 60.4187 28.1644 60.5081L28.9475 60.9031C29.2297 61.0462 29.5422 61.1194 29.8586 61.1166H30.0046C30.5042 61.1129 30.9976 61.005 31.4532 60.7999C31.84 60.6183 32.1863 60.3605 32.4711 60.0418C32.7503 59.7244 32.9763 59.3638 33.1402 58.9742C33.3132 58.5875 33.4548 58.1877 33.5638 57.7784C33.7906 56.4614 33.6273 55.1068 33.094 53.8814C32.4118 52.3532 31.5323 50.921 30.4779 49.6214Z" fill="white"/>
<path d="M41.4689 41.5727H41.3623V41.6836C41.377 41.7974 41.3606 41.9132 41.3149 42.0184C41.2692 42.1236 41.196 42.2144 41.103 42.2809C41.0597 42.2991 41.0132 42.3084 40.9662 42.3084C40.9193 42.3084 40.8728 42.2991 40.8295 42.2809L40.1935 41.959C39.8694 41.8072 39.5283 41.6955 39.1775 41.6263C39.0371 41.6099 38.896 41.6015 38.7547 41.6013H38.5025C37.7658 41.61 37.0466 41.8283 36.4277 42.2308C36.0059 42.5144 35.6437 42.8791 35.362 43.3038C35.0499 43.7713 34.8538 44.3073 34.79 44.8668C34.6501 45.7145 34.5776 46.572 34.5733 47.4313C34.5733 48.4435 34.5484 49.7418 34.5484 51.2905V54.3092C34.5484 55.1641 34.5697 55.9152 34.6159 56.5447C34.6453 57.0912 34.7262 57.6337 34.8575 58.1649C34.9652 58.5905 35.1442 58.9945 35.3868 59.3595C35.7403 59.8976 36.2312 60.33 36.8079 60.6113C37.3327 60.8826 37.9126 61.0283 38.5025 61.037H38.5948C39.0786 61.0653 39.5629 60.9943 40.0185 60.8282C40.4741 60.6622 40.8914 60.4047 41.2451 60.0713C41.8917 59.4096 42.2185 58.4796 42.2185 57.2958V55.8257H41.3908V56.6698C41.4045 57.2491 41.3351 57.8273 41.1847 58.3866C41.0763 58.7912 40.8756 59.1648 40.5985 59.4775C40.3494 59.7472 40.0365 59.949 39.6891 60.0641C39.2977 60.1906 38.8886 60.2522 38.4776 60.2465C38.2188 60.2495 37.9629 60.1904 37.7313 60.0741C37.4996 59.9578 37.2988 59.7876 37.1454 59.5777C36.7901 59.1306 36.5983 58.3473 36.5983 57.2564C36.5983 56.5077 36.5983 55.61 36.5983 54.5632C36.5983 53.5116 36.5983 52.4172 36.5983 51.3048C36.5983 50.1925 36.5983 49.1302 36.5983 48.0858C36.5983 47.0414 36.5983 46.1508 36.5983 45.4033C36.5889 44.9452 36.6415 44.488 36.7546 44.0442C36.8359 43.7301 36.977 43.4349 37.1702 43.175C37.3299 42.972 37.5342 42.8092 37.7671 42.6993C38.0012 42.5939 38.2487 42.5217 38.5025 42.4847C38.8313 42.431 39.1683 42.4605 39.483 42.5706C39.7392 42.6705 39.9788 42.8092 40.1935 42.9819C40.3682 43.1232 40.5214 43.2895 40.6483 43.4755C40.7868 43.6901 40.8437 43.7938 40.8685 43.8332C41.0024 44.1044 41.1015 44.3916 41.1634 44.688C41.2238 44.9848 41.2735 45.2602 41.3091 45.5035C41.341 45.8039 41.3695 46.1008 41.3872 46.3797V46.4835H42.1795V41.6013H41.5613C41.5322 41.587 41.501 41.5774 41.4689 41.5727Z" fill="white"/>
<path d="M48.8436 42.4457C48.9849 42.4378 49.126 42.4625 49.2563 42.518C49.3865 42.5734 49.5023 42.6581 49.5947 42.7654C49.7762 42.9741 49.9169 43.2151 50.0093 43.476C50.1013 43.8241 50.1525 44.1819 50.1616 44.5419V44.6449H51.0616V41.6462H43.4723V42.5274L43.6069 42.4954C43.688 42.4645 43.7775 42.4645 43.8585 42.4954C43.9423 42.536 44.0125 42.6002 44.0604 42.6802C44.1415 42.8364 44.176 43.0128 44.1597 43.1882V59.2796C44.1735 59.4469 44.1391 59.6146 44.0604 59.7628C44.0214 59.8346 43.9569 59.8891 43.8797 59.9156L43.8337 59.9369C43.799 59.9493 43.7621 59.9541 43.7255 59.951C43.6888 59.9479 43.6532 59.9371 43.6211 59.9191L43.4723 59.8658V60.8216H51.0687V57.8193H50.1687V57.9224C50.16 58.2824 50.1089 58.6402 50.0164 58.9882C49.9384 59.2548 49.7974 59.4986 49.6054 59.6988C49.5067 59.7969 49.3884 59.8729 49.2584 59.9219C49.1283 59.9709 48.9894 59.9917 48.8507 59.9831H46.2076V51.726H47.9508C48.033 51.7194 48.1158 51.7306 48.1934 51.7588C48.271 51.787 48.3417 51.8315 48.4007 51.8894C48.5138 52.0122 48.5974 52.1592 48.6452 52.3193C48.7133 52.5107 48.7458 52.7131 48.7409 52.9162V53.0264H49.5664V49.548H48.7409V49.6546C48.7448 49.8684 48.7112 50.0813 48.6417 50.2835C48.5937 50.4273 48.5124 50.5576 48.4043 50.6637C48.3429 50.7188 48.2712 50.761 48.1933 50.7879C48.1154 50.8147 48.0329 50.8256 47.9508 50.82H46.2076V42.4457H48.8436Z" fill="white"/>
<path d="M11.55 70.4215C11.55 70.3946 11.55 70.365 11.55 70.3326C11.55 70.3003 11.5527 70.2707 11.5581 70.2437C11.5527 70.206 11.5581 70.1737 11.5742 70.1468C11.585 70.0875 11.5958 70.0148 11.6066 69.9286C11.6012 69.9016 11.6012 69.8774 11.6066 69.8558C11.6119 69.8343 11.6146 69.81 11.6146 69.7831C11.6254 69.7562 11.6335 69.7319 11.6389 69.7104C11.6443 69.6834 11.6497 69.6565 11.655 69.6296C11.655 69.5865 11.6604 69.5434 11.6712 69.5003C11.6874 69.4518 11.7008 69.406 11.7116 69.3629C11.717 69.2767 11.7332 69.1878 11.7601 69.0962C11.7817 69.0315 11.7978 68.9669 11.8086 68.9022C11.8248 68.8322 11.8463 68.7622 11.8732 68.6921C11.8732 68.6921 11.8732 68.6813 11.8732 68.6598C11.8894 68.5898 11.9083 68.5197 11.9298 68.4497C11.9567 68.3743 11.9837 68.2988 12.0106 68.2234C12.0106 68.2126 12.0133 68.2019 12.0187 68.1911C12.0241 68.1749 12.0268 68.1615 12.0268 68.1507C12.0322 68.1291 12.0376 68.1103 12.0429 68.0941C12.0537 68.0726 12.0564 68.0483 12.051 68.0214L12.0753 67.9729C12.1238 67.8651 12.1642 67.7628 12.1965 67.6658C12.2288 67.5634 12.2638 67.4584 12.3016 67.3506C12.3285 67.2806 12.3527 67.2132 12.3743 67.1486C12.3958 67.0839 12.4228 67.0139 12.4551 66.9385C12.4659 66.9062 12.4793 66.8684 12.4955 66.8253C12.5171 66.7822 12.5332 66.7391 12.544 66.696V66.688C12.5871 66.6179 12.6194 66.5479 12.641 66.4778C12.6625 66.4078 12.6868 66.3378 12.7137 66.2677C12.7245 66.2623 12.7299 66.2543 12.7299 66.2435L12.9723 65.5727C13.0154 65.4811 13.0531 65.3869 13.0854 65.2899C13.1232 65.1929 13.1582 65.0906 13.1905 64.9828L13.2067 64.8939C13.2067 64.867 13.2094 64.8454 13.2147 64.8293C13.2201 64.8131 13.2228 64.7942 13.2228 64.7727C13.2228 64.7296 13.2525 64.6973 13.3117 64.6757C13.3925 64.6649 13.4653 64.6919 13.5299 64.7565C13.5407 64.7727 13.5488 64.7888 13.5542 64.805C13.5595 64.8212 13.5568 64.8427 13.5461 64.8697C13.5084 64.999 13.4653 65.1283 13.4168 65.2576C13.3737 65.3869 13.3252 65.5216 13.2713 65.6616C13.2282 65.7532 13.1878 65.8475 13.1501 65.9445C13.1178 66.0361 13.08 66.133 13.0369 66.2354C13.0316 66.2462 13.0289 66.257 13.0289 66.2677C13.0289 66.2785 13.0235 66.2893 13.0127 66.3001C12.9858 66.3701 12.9615 66.4374 12.94 66.5021C12.9184 66.5613 12.8942 66.6233 12.8672 66.688C12.8241 66.7849 12.7864 66.8819 12.7541 66.9789C12.7218 67.0759 12.6841 67.1728 12.641 67.2698C12.6194 67.3237 12.6006 67.3749 12.5844 67.4234C12.5736 67.4665 12.5602 67.5123 12.544 67.5607C12.5171 67.6362 12.4901 67.7116 12.4632 67.787C12.4362 67.8571 12.4066 67.9271 12.3743 67.9971C12.3527 68.0564 12.3366 68.1157 12.3258 68.1749C12.315 68.2342 12.3016 68.2934 12.2854 68.3527C12.2638 68.3958 12.2423 68.4443 12.2207 68.4982C12.2046 68.5467 12.1911 68.5951 12.1803 68.6436L12.0914 68.9669C12.0807 69.0262 12.0672 69.0827 12.051 69.1366C12.0403 69.1905 12.0268 69.247 12.0106 69.3063C11.9998 69.4087 11.981 69.5029 11.9541 69.5891C11.9433 69.6322 11.9352 69.6807 11.9298 69.7346C11.9244 69.7831 11.9163 69.8316 11.9056 69.8801C11.9002 69.9393 11.8894 70.0013 11.8732 70.0659C11.8625 70.1306 11.8544 70.1952 11.849 70.2599C11.849 70.2814 11.8463 70.3003 11.8409 70.3165C11.8355 70.3326 11.8328 70.3488 11.8328 70.365C11.8167 70.4242 11.8113 70.4889 11.8167 70.5589C11.8274 70.6236 11.8382 70.6882 11.849 70.7529C11.8598 70.7636 11.8652 70.769 11.8652 70.769C11.8652 70.7798 11.8759 70.7852 11.8975 70.7852C11.946 70.7744 11.9756 70.7798 11.9864 70.8013C11.9972 70.8283 11.9945 70.8552 11.9783 70.8822C11.9675 70.9145 11.946 70.9441 11.9136 70.9711C11.8813 70.998 11.8463 71.0061 11.8086 70.9953C11.7655 70.9953 11.7332 70.9872 11.7116 70.9711C11.6901 70.9603 11.6685 70.9414 11.647 70.9145C11.6093 70.8714 11.585 70.8283 11.5742 70.7852C11.5635 70.7421 11.5554 70.6936 11.55 70.6397C11.5554 70.6074 11.5554 70.5751 11.55 70.5427C11.55 70.505 11.55 70.4646 11.55 70.4215Z" fill="white"/>
<path d="M15.6058 68.9669C15.6489 68.94 15.6839 68.9211 15.7109 68.9103C15.7432 68.8942 15.7809 68.8699 15.824 68.8376C15.9533 68.7514 16.0745 68.6571 16.1877 68.5547C16.2092 68.5278 16.2281 68.5116 16.2442 68.5063C16.2658 68.4955 16.2873 68.4766 16.3089 68.4497L16.3735 68.377C16.3843 68.3554 16.3924 68.3446 16.3978 68.3446C16.4032 68.3446 16.4139 68.3285 16.4301 68.2961V68.28C16.4301 68.2746 16.4409 68.2719 16.4624 68.2719C16.4732 68.2611 16.4867 68.2584 16.5028 68.2638C16.5244 68.2692 16.5405 68.28 16.5513 68.2961C16.5621 68.3069 16.5702 68.3204 16.5756 68.3365C16.5809 68.3527 16.5782 68.3689 16.5675 68.385C16.5621 68.4174 16.5594 68.4308 16.5594 68.4254C16.5594 68.4201 16.5486 68.4308 16.5271 68.4578C16.5163 68.4847 16.5055 68.5036 16.4947 68.5143C16.4894 68.5197 16.4732 68.5413 16.4463 68.579C16.387 68.6382 16.3358 68.6894 16.2927 68.7325C16.2496 68.7756 16.193 68.8268 16.123 68.8861C16.0961 68.913 16.0637 68.9373 16.026 68.9588C15.9937 68.9804 15.9614 69.0046 15.9291 69.0315C15.8806 69.0639 15.8294 69.0935 15.7755 69.1204C15.7216 69.1474 15.6651 69.1662 15.6058 69.177C15.5735 69.1878 15.5411 69.1932 15.5088 69.1932C15.4765 69.1932 15.4469 69.1959 15.4199 69.2012C15.3337 69.2066 15.2421 69.1905 15.1452 69.1528C15.0482 69.115 14.9728 69.0746 14.9189 69.0315C14.8704 68.9777 14.8246 68.9265 14.7815 68.878C14.7384 68.8241 14.7007 68.7649 14.6684 68.7002C14.6253 68.6248 14.5956 68.5386 14.5795 68.4416C14.5633 68.3392 14.5552 68.2503 14.5552 68.1749C14.5606 68.1641 14.5579 68.1426 14.5471 68.1103C14.5364 68.0833 14.5337 68.0564 14.5391 68.0295C14.5445 67.9971 14.5445 67.9675 14.5391 67.9406C14.5445 67.9352 14.5445 67.9298 14.5391 67.9244C14.5337 67.919 14.5283 67.919 14.5229 67.9244C14.4906 67.9352 14.4609 67.9513 14.434 67.9729C14.4125 67.989 14.3909 68.0052 14.3694 68.0214C14.2939 68.0806 14.2212 68.1426 14.1512 68.2072C14.0865 68.2719 14.0246 68.3446 13.9653 68.4254C13.9168 68.4739 13.8737 68.5251 13.836 68.579C13.8252 68.5951 13.8117 68.6194 13.7956 68.6517C13.7848 68.6787 13.7713 68.711 13.7552 68.7487C13.7444 68.781 13.7309 68.816 13.7148 68.8537C13.704 68.8861 13.6905 68.9103 13.6744 68.9265C13.6636 68.9426 13.6501 68.9588 13.634 68.975C13.6178 68.9857 13.6016 68.9992 13.5855 69.0154C13.5747 69.0315 13.5505 69.0396 13.5127 69.0396C13.4912 69.0396 13.4858 69.0369 13.4966 69.0315C13.5073 69.0262 13.5073 69.0181 13.4966 69.0073L13.3915 68.9346C13.3646 68.9022 13.3619 68.8699 13.3834 68.8376C13.3834 68.8053 13.3888 68.7837 13.3996 68.7729C13.4211 68.7352 13.44 68.6894 13.4562 68.6356C13.4723 68.5763 13.4885 68.517 13.5047 68.4578C13.5154 68.3931 13.5289 68.3339 13.5451 68.28C13.5612 68.2207 13.5801 68.1695 13.6016 68.1264L13.634 68.0375C13.6393 68.0268 13.6447 68.0079 13.6501 67.981C13.6609 67.9486 13.669 67.9163 13.6744 67.884C13.6851 67.8517 13.6932 67.822 13.6986 67.7951C13.7094 67.7682 13.7175 67.7466 13.7229 67.7304C13.7175 67.6981 13.739 67.6766 13.7875 67.6658C13.8629 67.655 13.9249 67.6712 13.9734 67.7143C13.9788 67.7197 13.9788 67.7358 13.9734 67.7628C13.9734 67.7843 13.9707 67.8113 13.9653 67.8436C13.9599 67.8705 13.9545 67.8975 13.9491 67.9244C13.9491 67.9459 13.9518 67.9594 13.9572 67.9648C13.968 67.981 13.9788 67.9837 13.9895 67.9729C14.0272 67.9406 14.0677 67.9028 14.1108 67.8597C14.1539 67.8166 14.1943 67.7816 14.232 67.7547C14.2751 67.7278 14.3182 67.7116 14.3613 67.7062C14.4044 67.6954 14.4475 67.6873 14.4906 67.682H14.531C14.6064 67.6981 14.6764 67.7331 14.7411 67.787C14.7626 67.7978 14.7788 67.8247 14.7896 67.8678C14.8004 67.9055 14.8084 67.9406 14.8138 67.9729C14.8192 68.0052 14.8192 68.0375 14.8138 68.0699C14.8138 68.1022 14.8111 68.1318 14.8057 68.1588C14.8004 68.1803 14.8004 68.2126 14.8057 68.2557V68.3123C14.8004 68.3716 14.8057 68.4254 14.8219 68.4739C14.8435 68.5224 14.8596 68.5736 14.8704 68.6275C14.8812 68.649 14.8919 68.6733 14.9027 68.7002C14.9135 68.7218 14.927 68.7379 14.9431 68.7487C14.9647 68.781 14.9835 68.8106 14.9997 68.8376C15.0159 68.8591 15.0374 68.8807 15.0643 68.9022C15.1398 68.9777 15.2287 69.0154 15.331 69.0154C15.4388 69.0154 15.5304 68.9992 15.6058 68.9669Z" fill="white"/>
<path d="M16.4446 67.9082C16.45 67.8759 16.4554 67.8463 16.4608 67.8193C16.4715 67.7924 16.4796 67.7655 16.485 67.7385C16.485 67.7439 16.4904 67.7304 16.5012 67.6981C16.512 67.6604 16.5254 67.6146 16.5416 67.5607C16.5578 67.5069 16.5739 67.453 16.5901 67.3991C16.6062 67.3398 16.6224 67.2914 16.6386 67.2536C16.6655 67.1944 16.6817 67.154 16.6871 67.1324C16.6924 67.1055 16.7086 67.0624 16.7355 67.0031C16.7463 66.987 16.7598 66.9627 16.7759 66.9304C16.7921 66.8981 16.8083 66.8631 16.8244 66.8253C16.8406 66.7876 16.8541 66.7526 16.8648 66.7203C16.8756 66.688 16.881 66.6637 16.881 66.6476C16.881 66.6476 16.8783 66.6502 16.8729 66.6556H16.8648C16.8541 66.6449 16.846 66.6476 16.8406 66.6637L16.6951 66.7122L16.4689 66.793C16.4419 66.8038 16.4231 66.8092 16.4123 66.8092C16.4069 66.8092 16.4015 66.8092 16.3961 66.8092C16.3961 66.8092 16.3934 66.8119 16.388 66.8173C16.3827 66.8173 16.3692 66.8226 16.3476 66.8334C16.3207 66.8442 16.2911 66.855 16.2587 66.8657C16.221 66.8711 16.1806 66.8792 16.1375 66.89C16.116 66.89 16.0917 66.8792 16.0648 66.8577C16.0432 66.8469 16.0405 66.8307 16.0567 66.8092C16.0675 66.7822 16.0702 66.7661 16.0648 66.7607L16.0567 66.7526C16.0513 66.7149 16.0621 66.6933 16.089 66.688C16.1106 66.6826 16.1321 66.6799 16.1537 66.6799L16.3153 66.6233C16.3207 66.6179 16.3261 66.6125 16.3315 66.6071C16.3369 66.5964 16.3476 66.5964 16.3638 66.6071C16.4069 66.5856 16.4419 66.5721 16.4689 66.5667C16.4904 66.556 16.5066 66.5506 16.5173 66.5506C16.5497 66.529 16.582 66.5156 16.6143 66.5102C16.652 66.4994 16.6871 66.4913 16.7194 66.4859C16.7302 66.4805 16.7409 66.4751 16.7517 66.4698C16.7625 66.4644 16.7733 66.4617 16.784 66.4617C16.811 66.4563 16.8352 66.4509 16.8568 66.4455C16.8783 66.4347 16.9026 66.424 16.9295 66.4132C16.9672 66.397 16.9861 66.3836 16.9861 66.3728C16.9861 66.3674 16.9888 66.362 16.9941 66.3566V66.3485L17.0426 66.2273L17.3982 65.3222C17.4036 65.3114 17.409 65.298 17.4144 65.2818C17.4198 65.2603 17.4278 65.236 17.4386 65.2091L17.4629 65.1687C17.4736 65.1417 17.506 65.1283 17.5598 65.1283C17.6137 65.1283 17.6541 65.139 17.6811 65.1606C17.6864 65.1714 17.6918 65.1848 17.6972 65.201C17.708 65.2172 17.7188 65.2333 17.7295 65.2495C17.7349 65.2603 17.7403 65.2764 17.7457 65.298C17.7511 65.3195 17.7484 65.3384 17.7376 65.3545C17.646 65.5162 17.5679 65.6724 17.5033 65.8233C17.4386 65.9741 17.3686 66.133 17.2932 66.3001C17.2824 66.3108 17.2824 66.3162 17.2932 66.3162C17.3093 66.3108 17.3201 66.3108 17.3255 66.3162C17.4386 66.2893 17.5248 66.2704 17.5841 66.2596C17.6487 66.2489 17.7322 66.23 17.8346 66.2031C17.8669 66.2031 17.8966 66.1977 17.9235 66.1869C17.9504 66.1708 17.9774 66.1708 18.0043 66.1869C18.0151 66.1815 18.0286 66.1815 18.0447 66.1869C18.0609 66.1869 18.0743 66.1815 18.0851 66.1708C18.1336 66.1546 18.1821 66.1573 18.2306 66.1788C18.2521 66.1681 18.2683 66.1654 18.2791 66.1708C18.3114 66.1546 18.341 66.1546 18.368 66.1708C18.4003 66.1815 18.4353 66.1869 18.473 66.1869C18.4838 66.1815 18.4865 66.1842 18.4811 66.195C18.4811 66.2058 18.4838 66.2112 18.4892 66.2112C18.5053 66.2112 18.5134 66.2165 18.5134 66.2273C18.5188 66.2327 18.5161 66.2354 18.5053 66.2354C18.4784 66.2462 18.4676 66.2596 18.473 66.2758C18.4784 66.2866 18.4784 66.292 18.473 66.292C18.4299 66.3027 18.3895 66.3108 18.3518 66.3162C18.3141 66.3162 18.2737 66.3243 18.2306 66.3405C18.2036 66.3405 18.1767 66.3432 18.1498 66.3485C18.1282 66.3485 18.104 66.3539 18.077 66.3647L18.0447 66.3809C17.9854 66.3755 17.9208 66.3836 17.8508 66.4051C17.7861 66.4213 17.7215 66.4347 17.6568 66.4455C17.6245 66.4563 17.5975 66.4671 17.576 66.4778C17.5598 66.4832 17.5383 66.4913 17.5113 66.5021L17.374 66.5263L17.2527 66.5667C17.2258 66.5667 17.2096 66.5721 17.2043 66.5829C17.2043 66.5937 17.1989 66.6045 17.1881 66.6152C17.1827 66.6206 17.1719 66.6422 17.1558 66.6799C17.145 66.7176 17.1315 66.758 17.1154 66.8011C17.1046 66.8442 17.0911 66.8846 17.075 66.9223C17.0588 66.96 17.048 66.9843 17.0426 66.995C16.978 67.1836 16.9133 67.3614 16.8487 67.5284C16.784 67.6954 16.7275 67.8678 16.679 68.0456C16.6305 68.218 16.5901 68.4012 16.5578 68.5951C16.5254 68.7891 16.5093 69.0046 16.5093 69.2417C16.5093 69.371 16.512 69.4652 16.5173 69.5245C16.5227 69.5784 16.5281 69.6161 16.5335 69.6376C16.5443 69.6592 16.5524 69.6727 16.5578 69.678C16.5685 69.6834 16.5793 69.6969 16.5901 69.7185C16.6224 69.7238 16.6493 69.7373 16.6709 69.7589C16.6978 69.775 16.714 69.7939 16.7194 69.8154C16.7248 69.837 16.7167 69.8585 16.6951 69.8801C16.679 69.8962 16.644 69.9043 16.5901 69.9043C16.5793 69.9043 16.5685 69.8989 16.5578 69.8882C16.4823 69.8612 16.4338 69.8424 16.4123 69.8316C16.3961 69.8154 16.3773 69.7804 16.3557 69.7265C16.3126 69.6511 16.2857 69.5487 16.2749 69.4194C16.2695 69.2901 16.2668 69.177 16.2668 69.08L16.283 68.781C16.283 68.7271 16.2857 68.6894 16.2911 68.6679C16.2965 68.6463 16.3045 68.6086 16.3153 68.5547C16.3207 68.4847 16.3342 68.3904 16.3557 68.2719C16.3827 68.148 16.4069 68.051 16.4284 67.981L16.4446 67.9082Z" fill="white"/>
<path d="M17.9962 69.274C17.9369 69.2632 17.8749 69.2551 17.8103 69.2497C17.751 69.239 17.6998 69.2147 17.6567 69.177C17.5975 69.1177 17.5436 69.0531 17.4951 68.9831C17.4412 68.913 17.4197 68.8349 17.4305 68.7487C17.4305 68.7379 17.4332 68.7164 17.4386 68.684C17.4386 68.6463 17.4439 68.6221 17.4547 68.6113L17.4709 68.5628C17.4978 68.4982 17.5167 68.4551 17.5274 68.4335C17.5382 68.412 17.5625 68.3716 17.6002 68.3123C17.6918 68.1722 17.8103 68.0429 17.9558 67.9244C17.9989 67.8867 18.0473 67.8517 18.1012 67.8193C18.1551 67.7816 18.2144 67.7466 18.279 67.7143C18.2952 67.7143 18.3167 67.7062 18.3437 67.69C18.3868 67.6739 18.4299 67.6766 18.473 67.6981C18.5214 67.7197 18.5592 67.7439 18.5861 67.7709L18.6184 67.8517C18.6346 67.981 18.6023 68.086 18.5214 68.1668C18.4622 68.2369 18.3975 68.3042 18.3275 68.3689C18.2628 68.4335 18.1928 68.4955 18.1174 68.5547C18.1066 68.5655 18.0904 68.5763 18.0689 68.5871C18.0527 68.5978 18.0393 68.6086 18.0285 68.6194C18.0123 68.6356 17.9908 68.6463 17.9638 68.6517C17.9423 68.6517 17.918 68.6544 17.8911 68.6598C17.848 68.6867 17.8103 68.6787 17.778 68.6356L17.7456 68.6113H17.7295C17.7241 68.6113 17.7214 68.614 17.7214 68.6194C17.6945 68.6571 17.6783 68.7002 17.6729 68.7487C17.6729 68.7972 17.6729 68.8403 17.6729 68.878C17.6783 68.9049 17.6972 68.9346 17.7295 68.9669C17.751 68.9938 17.7753 69.0127 17.8022 69.0235C17.8345 69.0342 17.8642 69.0396 17.8911 69.0396C17.9127 69.045 17.9423 69.0477 17.98 69.0477C18.0231 69.0423 18.0689 69.0396 18.1174 69.0396C18.1713 69.0396 18.2251 69.0288 18.279 69.0073C18.4783 68.9588 18.6588 68.8995 18.8205 68.8295C18.9821 68.7595 19.1464 68.6867 19.3134 68.6113C19.3996 68.5682 19.4777 68.5278 19.5478 68.4901C19.6232 68.447 19.6986 68.4066 19.7741 68.3689C19.8225 68.3419 19.8522 68.3258 19.8629 68.3204C19.8737 68.3096 19.906 68.2854 19.9599 68.2477C19.9869 68.2207 20.0003 68.2099 20.0003 68.2153C20.0057 68.2153 20.03 68.2072 20.0731 68.1911C20.0838 68.1803 20.0865 68.1803 20.0811 68.1911C20.0811 68.1965 20.0838 68.2072 20.0892 68.2234C20.0946 68.245 20.1 68.2719 20.1054 68.3042C20.1162 68.3312 20.1108 68.3527 20.0892 68.3689C20.0515 68.4066 20.0353 68.4281 20.0407 68.4335C20.0461 68.4335 20.03 68.4497 19.9922 68.482C19.9114 68.5413 19.8306 68.5925 19.7498 68.6356C19.669 68.6787 19.5855 68.7271 19.4993 68.781C19.44 68.808 19.3835 68.8349 19.3296 68.8618C19.2811 68.8888 19.2326 68.913 19.1841 68.9346C19.0764 68.9777 18.9659 69.0235 18.8528 69.0719C18.745 69.115 18.6319 69.1501 18.5134 69.177L18.279 69.2417C18.2197 69.2578 18.174 69.2686 18.1416 69.274C18.1093 69.274 18.0608 69.274 17.9962 69.274ZM17.8911 68.4093C17.9827 68.3554 18.0689 68.2908 18.1497 68.2153C18.2305 68.1399 18.3086 68.0564 18.3841 67.9648C18.3787 67.9648 18.3733 67.9675 18.3679 67.9729C18.3625 67.9729 18.3571 67.9729 18.3517 67.9729C18.2494 68.016 18.1605 68.0672 18.0851 68.1264C18.015 68.1857 17.9584 68.2611 17.9153 68.3527C17.91 68.3527 17.9019 68.3716 17.8911 68.4093Z" fill="white"/>
<path d="M21.3042 67.9082C21.2988 67.9028 21.2907 67.9028 21.28 67.9082C21.2746 67.9082 21.2638 67.9055 21.2476 67.9002C21.2153 67.8894 21.1695 67.8921 21.1102 67.9082C21.0833 67.919 21.0537 67.9325 21.0214 67.9486C20.9944 67.9648 20.9675 67.981 20.9405 67.9971C20.8921 68.0241 20.8463 68.0591 20.8032 68.1022C20.7654 68.1399 20.725 68.1776 20.6819 68.2153C20.6442 68.2423 20.6065 68.2773 20.5688 68.3204C20.5311 68.3581 20.4826 68.4147 20.4233 68.4901C20.4072 68.5224 20.3856 68.5574 20.3587 68.5951C20.3371 68.6275 20.3156 68.6598 20.294 68.6921C20.2833 68.7191 20.2698 68.7379 20.2536 68.7487C20.2213 68.8026 20.1971 68.8591 20.1809 68.9184C20.1647 68.9723 20.1459 69.0288 20.1243 69.0881C20.1243 69.0989 20.1216 69.1097 20.1162 69.1204C20.1162 69.1312 20.1162 69.142 20.1162 69.1528C20.1055 69.1743 20.0866 69.1905 20.0597 69.2012C20.0381 69.212 20.0193 69.212 20.0031 69.2012C19.9438 69.1851 19.8927 69.1581 19.8496 69.1204C19.8172 69.0989 19.8092 69.0693 19.8253 69.0315C19.8361 69.0046 19.8469 68.9777 19.8576 68.9507C19.8684 68.9184 19.8819 68.8888 19.898 68.8618C19.9304 68.8026 19.9546 68.7271 19.9708 68.6356C19.9977 68.5386 20.0193 68.4416 20.0354 68.3446C20.057 68.2423 20.0812 68.1426 20.1082 68.0456C20.1189 68.0187 20.1243 67.9917 20.1243 67.9648C20.1243 67.9379 20.127 67.9109 20.1324 67.884C20.154 67.8032 20.1647 67.7197 20.1647 67.6335C20.1647 67.6011 20.1809 67.5796 20.2132 67.5688C20.2455 67.558 20.2725 67.5607 20.294 67.5769C20.3317 67.5931 20.3695 67.6146 20.4072 67.6416C20.4503 67.6685 20.4664 67.6981 20.4557 67.7304C20.4503 67.7897 20.4422 67.8463 20.4314 67.9002C20.426 67.954 20.4179 68.0106 20.4072 68.0699C20.4072 68.0699 20.4072 68.0752 20.4072 68.086C20.4072 68.086 20.4099 68.086 20.4153 68.086C20.4476 68.0591 20.4718 68.0402 20.488 68.0295C20.5041 68.0187 20.523 67.9998 20.5446 67.9729C20.593 67.919 20.655 67.8786 20.7304 67.8517C20.8058 67.8193 20.8786 67.7924 20.9486 67.7709C21.0079 67.7439 21.0779 67.7385 21.1587 67.7547C21.1911 67.7655 21.2207 67.7762 21.2476 67.787C21.28 67.7978 21.3096 67.8166 21.3365 67.8436C21.3419 67.849 21.3446 67.8544 21.3446 67.8597C21.3446 67.8651 21.3473 67.8732 21.3527 67.884C21.3581 67.8894 21.3554 67.8948 21.3446 67.9002C21.3392 67.9055 21.3311 67.9082 21.3204 67.9082H21.3042Z" fill="white"/>
<path d="M23.5924 68.9669C23.6355 68.94 23.6705 68.9211 23.6975 68.9103C23.7298 68.8942 23.7675 68.8699 23.8106 68.8376C23.9399 68.7514 24.0611 68.6571 24.1743 68.5547C24.1958 68.5278 24.2147 68.5116 24.2308 68.5063C24.2524 68.4955 24.2739 68.4766 24.2955 68.4497L24.3601 68.377C24.3709 68.3554 24.379 68.3446 24.3844 68.3446C24.3898 68.3446 24.4005 68.3285 24.4167 68.2961V68.28C24.4167 68.2746 24.4275 68.2719 24.449 68.2719C24.4598 68.2611 24.4733 68.2584 24.4894 68.2638C24.511 68.2692 24.5271 68.28 24.5379 68.2961C24.5487 68.3069 24.5568 68.3204 24.5622 68.3365C24.5676 68.3527 24.5649 68.3689 24.5541 68.385C24.5487 68.4174 24.546 68.4308 24.546 68.4254C24.546 68.4201 24.5352 68.4308 24.5137 68.4578C24.5029 68.4847 24.4921 68.5036 24.4814 68.5143C24.476 68.5197 24.4598 68.5413 24.4329 68.579C24.3736 68.6382 24.3224 68.6894 24.2793 68.7325C24.2362 68.7756 24.1797 68.8268 24.1096 68.8861C24.0827 68.913 24.0504 68.9373 24.0126 68.9588C23.9803 68.9804 23.948 69.0046 23.9157 69.0315C23.8672 69.0639 23.816 69.0935 23.7621 69.1204C23.7082 69.1474 23.6517 69.1662 23.5924 69.177C23.5601 69.1878 23.5278 69.1932 23.4954 69.1932C23.4631 69.1932 23.4335 69.1959 23.4065 69.2012C23.3203 69.2066 23.2287 69.1905 23.1318 69.1528C23.0348 69.115 22.9594 69.0746 22.9055 69.0315C22.857 68.9777 22.8112 68.9265 22.7681 68.878C22.725 68.8241 22.6873 68.7649 22.655 68.7002C22.6119 68.6248 22.5822 68.5386 22.5661 68.4416C22.5499 68.3392 22.5418 68.2503 22.5418 68.1749C22.5472 68.1641 22.5445 68.1426 22.5338 68.1103C22.523 68.0833 22.5203 68.0564 22.5257 68.0295C22.5311 67.9971 22.5311 67.9675 22.5257 67.9406C22.5311 67.9352 22.5311 67.9298 22.5257 67.9244C22.5203 67.919 22.5149 67.919 22.5095 67.9244C22.4772 67.9352 22.4476 67.9513 22.4206 67.9729C22.3991 67.989 22.3775 68.0052 22.356 68.0214C22.2805 68.0806 22.2078 68.1426 22.1378 68.2072C22.0731 68.2719 22.0112 68.3446 21.9519 68.4254C21.9034 68.4739 21.8603 68.5251 21.8226 68.579C21.8118 68.5951 21.7984 68.6194 21.7822 68.6517C21.7714 68.6787 21.758 68.711 21.7418 68.7487C21.731 68.781 21.7175 68.816 21.7014 68.8537C21.6906 68.8861 21.6771 68.9103 21.661 68.9265C21.6502 68.9426 21.6367 68.9588 21.6206 68.975C21.6044 68.9857 21.5882 68.9992 21.5721 69.0154C21.5613 69.0315 21.5371 69.0396 21.4993 69.0396C21.4778 69.0396 21.4724 69.0369 21.4832 69.0315C21.494 69.0262 21.494 69.0181 21.4832 69.0073L21.3781 68.9346C21.3512 68.9022 21.3485 68.8699 21.37 68.8376C21.37 68.8053 21.3754 68.7837 21.3862 68.7729C21.4078 68.7352 21.4266 68.6894 21.4428 68.6356C21.4589 68.5763 21.4751 68.517 21.4913 68.4578C21.502 68.3931 21.5155 68.3339 21.5317 68.28C21.5478 68.2207 21.5667 68.1695 21.5882 68.1264L21.6206 68.0375C21.626 68.0268 21.6313 68.0079 21.6367 67.981C21.6475 67.9486 21.6556 67.9163 21.661 67.884C21.6717 67.8517 21.6798 67.822 21.6852 67.7951C21.696 67.7682 21.7041 67.7466 21.7095 67.7304C21.7041 67.6981 21.7256 67.6766 21.7741 67.6658C21.8495 67.655 21.9115 67.6712 21.96 67.7143C21.9654 67.7197 21.9654 67.7358 21.96 67.7628C21.96 67.7843 21.9573 67.8113 21.9519 67.8436C21.9465 67.8705 21.9411 67.8975 21.9357 67.9244C21.9357 67.9459 21.9384 67.9594 21.9438 67.9648C21.9546 67.981 21.9654 67.9837 21.9761 67.9729C22.0139 67.9406 22.0543 67.9028 22.0974 67.8597C22.1405 67.8166 22.1809 67.7816 22.2186 67.7547C22.2617 67.7278 22.3048 67.7116 22.3479 67.7062C22.391 67.6954 22.4341 67.6873 22.4772 67.682H22.5176C22.593 67.6981 22.6631 67.7331 22.7277 67.787C22.7493 67.7978 22.7654 67.8247 22.7762 67.8678C22.787 67.9055 22.7951 67.9406 22.8004 67.9729C22.8058 68.0052 22.8058 68.0375 22.8004 68.0699C22.8004 68.1022 22.7977 68.1318 22.7924 68.1588C22.787 68.1803 22.787 68.2126 22.7924 68.2557V68.3123C22.787 68.3716 22.7924 68.4254 22.8085 68.4739C22.8301 68.5224 22.8462 68.5736 22.857 68.6275C22.8678 68.649 22.8786 68.6733 22.8893 68.7002C22.9001 68.7218 22.9136 68.7379 22.9297 68.7487C22.9513 68.781 22.9701 68.8106 22.9863 68.8376C23.0025 68.8591 23.024 68.8807 23.051 68.9022C23.1264 68.9777 23.2153 69.0154 23.3176 69.0154C23.4254 69.0154 23.517 68.9992 23.5924 68.9669Z" fill="white"/>
<path d="M26.1121 68.9992C26.0636 68.9992 26.0206 68.9911 25.9828 68.975C25.9397 68.9534 25.8966 68.9292 25.8535 68.9022C25.8104 68.8699 25.7754 68.8322 25.7485 68.7891C25.6784 68.6975 25.6273 68.5925 25.5949 68.4739C25.5949 68.4578 25.5869 68.4497 25.5707 68.4497L25.4333 68.5871C25.3525 68.6517 25.2717 68.7164 25.1909 68.781C25.1154 68.8457 25.0373 68.9049 24.9565 68.9588C24.9026 68.9911 24.8488 69.0208 24.7949 69.0477C24.7464 69.0746 24.6925 69.0935 24.6333 69.1043C24.574 69.1258 24.5066 69.1366 24.4312 69.1366C24.3342 69.1474 24.2642 69.0989 24.2211 68.9911L24.1565 68.8699C24.1241 68.8053 24.1214 68.7352 24.1484 68.6598C24.1592 68.6167 24.178 68.5763 24.2049 68.5386C24.2265 68.5009 24.2454 68.4632 24.2615 68.4254L24.3504 68.3123C24.4258 68.2261 24.504 68.1453 24.5848 68.0699C24.671 67.989 24.7599 67.919 24.8515 67.8597L24.9888 67.7789C25.0643 67.7358 25.1451 67.7143 25.2313 67.7143C25.2798 67.7143 25.3148 67.7278 25.3363 67.7547C25.4064 67.8193 25.4522 67.8975 25.4737 67.989C25.4737 67.9998 25.4683 68.016 25.4576 68.0375C25.4414 68.0483 25.4306 68.0483 25.4252 68.0375L25.3687 67.989C25.3417 67.9621 25.3175 67.9567 25.2959 67.9729C25.2528 67.9837 25.2097 67.9944 25.1666 68.0052C25.1235 68.0106 25.0804 68.0268 25.0373 68.0537C24.9403 68.1022 24.8515 68.1668 24.7706 68.2477C24.7491 68.2584 24.7302 68.2746 24.7141 68.2961C24.6009 68.3823 24.5013 68.5009 24.4151 68.6517C24.372 68.7002 24.3423 68.7622 24.3262 68.8376C24.3154 68.8591 24.3208 68.8699 24.3423 68.8699C24.3585 68.8753 24.3747 68.878 24.3908 68.878C24.407 68.878 24.4204 68.878 24.4312 68.878C24.4689 68.8672 24.5066 68.8591 24.5444 68.8537C24.5875 68.8484 24.6252 68.8349 24.6575 68.8133C24.8137 68.7487 24.9538 68.6571 25.0777 68.5386L25.2717 68.377C25.2878 68.3662 25.3013 68.3581 25.3121 68.3527C25.3282 68.3419 25.3417 68.3312 25.3525 68.3204C25.3956 68.2719 25.436 68.2261 25.4737 68.183C25.5168 68.1399 25.5599 68.0887 25.603 68.0295C25.63 67.9917 25.6623 67.9837 25.7 68.0052C25.7215 68.016 25.7458 68.0295 25.7727 68.0456C25.7997 68.0564 25.8185 68.0726 25.8293 68.0941C25.8347 68.1157 25.8374 68.1345 25.8374 68.1507C25.8428 68.1615 25.8428 68.1776 25.8374 68.1992C25.832 68.2315 25.8266 68.2665 25.8212 68.3042C25.8212 68.3419 25.8212 68.3796 25.8212 68.4174C25.8212 68.5089 25.8401 68.5925 25.8778 68.6679C25.8886 68.6787 25.8993 68.6867 25.9101 68.6921C25.9263 68.6921 25.9397 68.6975 25.9505 68.7083C26.0259 68.7568 26.1041 68.781 26.1849 68.781C26.2657 68.7756 26.3465 68.7568 26.4273 68.7244C26.4704 68.7083 26.5081 68.6975 26.5404 68.6921C26.5728 68.6813 26.6105 68.6625 26.6536 68.6356C26.7236 68.5817 26.7829 68.5413 26.8314 68.5143C26.8799 68.4874 26.9337 68.4389 26.993 68.3689C27.0092 68.3527 27.0388 68.3204 27.0819 68.2719C27.125 68.218 27.1519 68.1803 27.1627 68.1588L27.187 68.1426C27.187 68.1372 27.1977 68.1345 27.2193 68.1345C27.2462 68.1345 27.2597 68.1372 27.2597 68.1426L27.292 68.1911C27.3082 68.2288 27.2947 68.28 27.2516 68.3446C27.2139 68.4039 27.1843 68.447 27.1627 68.4739C27.0496 68.6356 26.9068 68.7622 26.7344 68.8537C26.5674 68.9453 26.4085 68.9938 26.2576 68.9992C26.2468 68.9992 26.2226 69.0019 26.1849 69.0073C26.1472 69.0127 26.1229 69.01 26.1121 68.9992Z" fill="white"/>
<path d="M27.1618 67.9082C27.1672 67.8759 27.1726 67.8463 27.178 67.8193C27.1888 67.7924 27.1968 67.7655 27.2022 67.7385C27.2022 67.7439 27.2076 67.7304 27.2184 67.6981C27.2292 67.6604 27.2426 67.6146 27.2588 67.5607C27.275 67.5069 27.2911 67.453 27.3073 67.3991C27.3235 67.3398 27.3396 67.2914 27.3558 67.2536C27.3827 67.1944 27.3989 67.154 27.4043 67.1324C27.4097 67.1055 27.4258 67.0624 27.4528 67.0031C27.4635 66.987 27.477 66.9627 27.4932 66.9304C27.5093 66.8981 27.5255 66.8631 27.5416 66.8253C27.5578 66.7876 27.5713 66.7526 27.5821 66.7203C27.5928 66.688 27.5982 66.6637 27.5982 66.6476C27.5982 66.6476 27.5955 66.6502 27.5901 66.6556H27.5821C27.5713 66.6449 27.5632 66.6476 27.5578 66.6637L27.4123 66.7122L27.1861 66.793C27.1591 66.8038 27.1403 66.8092 27.1295 66.8092C27.1241 66.8092 27.1187 66.8092 27.1133 66.8092C27.1133 66.8092 27.1106 66.8119 27.1053 66.8173C27.0999 66.8173 27.0864 66.8226 27.0648 66.8334C27.0379 66.8442 27.0083 66.855 26.976 66.8657C26.9382 66.8711 26.8978 66.8792 26.8547 66.89C26.8332 66.89 26.8089 66.8792 26.782 66.8577C26.7605 66.8469 26.7578 66.8307 26.7739 66.8092C26.7847 66.7822 26.7874 66.7661 26.782 66.7607L26.7739 66.7526C26.7685 66.7149 26.7793 66.6933 26.8062 66.688C26.8278 66.6826 26.8493 66.6799 26.8709 66.6799L27.0325 66.6233C27.0379 66.6179 27.0433 66.6125 27.0487 66.6071C27.0541 66.5964 27.0648 66.5964 27.081 66.6071C27.1241 66.5856 27.1591 66.5721 27.1861 66.5667C27.2076 66.556 27.2238 66.5506 27.2346 66.5506C27.2669 66.529 27.2992 66.5156 27.3315 66.5102C27.3692 66.4994 27.4043 66.4913 27.4366 66.4859C27.4474 66.4805 27.4581 66.4751 27.4689 66.4698C27.4797 66.4644 27.4905 66.4617 27.5012 66.4617C27.5282 66.4563 27.5524 66.4509 27.574 66.4455C27.5955 66.4347 27.6198 66.424 27.6467 66.4132C27.6844 66.397 27.7033 66.3836 27.7033 66.3728C27.7033 66.3674 27.706 66.362 27.7114 66.3566V66.3485L27.7598 66.2273L28.1154 65.3222C28.1208 65.3114 28.1262 65.298 28.1316 65.2818C28.137 65.2603 28.1451 65.236 28.1558 65.2091L28.1801 65.1687C28.1908 65.1417 28.2232 65.1283 28.277 65.1283C28.3309 65.1283 28.3713 65.139 28.3983 65.1606C28.4037 65.1714 28.409 65.1848 28.4144 65.201C28.4252 65.2172 28.436 65.2333 28.4468 65.2495C28.4521 65.2603 28.4575 65.2764 28.4629 65.298C28.4683 65.3195 28.4656 65.3384 28.4548 65.3545C28.3632 65.5162 28.2851 65.6724 28.2205 65.8233C28.1558 65.9741 28.0858 66.133 28.0104 66.3001C27.9996 66.3108 27.9996 66.3162 28.0104 66.3162C28.0265 66.3108 28.0373 66.3108 28.0427 66.3162C28.1558 66.2893 28.242 66.2704 28.3013 66.2596C28.3659 66.2489 28.4494 66.23 28.5518 66.2031C28.5841 66.2031 28.6138 66.1977 28.6407 66.1869C28.6676 66.1708 28.6946 66.1708 28.7215 66.1869C28.7323 66.1815 28.7458 66.1815 28.7619 66.1869C28.7781 66.1869 28.7916 66.1815 28.8023 66.1708C28.8508 66.1546 28.8993 66.1573 28.9478 66.1788C28.9693 66.1681 28.9855 66.1654 28.9963 66.1708C29.0286 66.1546 29.0582 66.1546 29.0852 66.1708C29.1175 66.1815 29.1525 66.1869 29.1902 66.1869C29.201 66.1815 29.2037 66.1842 29.1983 66.195C29.1983 66.2058 29.201 66.2112 29.2064 66.2112C29.2226 66.2112 29.2306 66.2165 29.2306 66.2273C29.236 66.2327 29.2333 66.2354 29.2226 66.2354C29.1956 66.2462 29.1848 66.2596 29.1902 66.2758C29.1956 66.2866 29.1956 66.292 29.1902 66.292C29.1471 66.3027 29.1067 66.3108 29.069 66.3162C29.0313 66.3162 28.9909 66.3243 28.9478 66.3405C28.9209 66.3405 28.8939 66.3432 28.867 66.3485C28.8454 66.3485 28.8212 66.3539 28.7943 66.3647L28.7619 66.3809C28.7027 66.3755 28.638 66.3836 28.568 66.4051C28.5033 66.4213 28.4387 66.4347 28.374 66.4455C28.3417 66.4563 28.3148 66.4671 28.2932 66.4778C28.277 66.4832 28.2555 66.4913 28.2286 66.5021L28.0912 66.5263L27.97 66.5667C27.943 66.5667 27.9269 66.5721 27.9215 66.5829C27.9215 66.5937 27.9161 66.6045 27.9053 66.6152C27.8999 66.6206 27.8891 66.6422 27.873 66.6799C27.8622 66.7176 27.8487 66.758 27.8326 66.8011C27.8218 66.8442 27.8083 66.8846 27.7922 66.9223C27.776 66.96 27.7652 66.9843 27.7598 66.995C27.6952 67.1836 27.6305 67.3614 27.5659 67.5284C27.5012 67.6954 27.4447 67.8678 27.3962 68.0456C27.3477 68.218 27.3073 68.4012 27.275 68.5951C27.2426 68.7891 27.2265 69.0046 27.2265 69.2417C27.2265 69.371 27.2292 69.4652 27.2346 69.5245C27.2399 69.5784 27.2453 69.6161 27.2507 69.6376C27.2615 69.6592 27.2696 69.6727 27.275 69.678C27.2857 69.6834 27.2965 69.6969 27.3073 69.7185C27.3396 69.7238 27.3666 69.7373 27.3881 69.7589C27.415 69.775 27.4312 69.7939 27.4366 69.8154C27.442 69.837 27.4339 69.8585 27.4123 69.8801C27.3962 69.8962 27.3612 69.9043 27.3073 69.9043C27.2965 69.9043 27.2857 69.8989 27.275 69.8882C27.1995 69.8612 27.1511 69.8424 27.1295 69.8316C27.1133 69.8154 27.0945 69.7804 27.0729 69.7265C27.0298 69.6511 27.0029 69.5487 26.9921 69.4194C26.9867 69.2901 26.984 69.177 26.984 69.08L27.0002 68.781C27.0002 68.7271 27.0029 68.6894 27.0083 68.6679C27.0137 68.6463 27.0217 68.6086 27.0325 68.5547C27.0379 68.4847 27.0514 68.3904 27.0729 68.2719C27.0999 68.148 27.1241 68.051 27.1457 67.981L27.1618 67.9082Z" fill="white"/>
<path d="M28.8992 69.2012C28.8723 69.2012 28.8427 69.1959 28.8104 69.1851C28.778 69.1743 28.7403 69.1635 28.6972 69.1528C28.6164 69.1097 28.5571 69.0719 28.5194 69.0396C28.4817 69.0019 28.4494 68.9373 28.4224 68.8457C28.3793 68.7487 28.3686 68.649 28.3901 68.5467L28.4629 68.2881C28.4898 68.2396 28.5167 68.1884 28.5437 68.1345C28.5706 68.0806 28.5922 68.0295 28.6083 67.981C28.6137 67.981 28.6137 67.9783 28.6083 67.9729C28.6029 67.9675 28.6029 67.9621 28.6083 67.9567C28.6137 67.9459 28.6245 67.9379 28.6406 67.9325C28.6568 67.9271 28.6703 67.9271 28.681 67.9325C28.7026 67.9433 28.7215 67.954 28.7376 67.9648C28.7538 67.9702 28.7699 67.9783 28.7861 67.989C28.7915 67.9944 28.7942 67.9998 28.7942 68.0052C28.7942 68.0052 28.7996 68.0079 28.8104 68.0133C28.8427 68.0456 28.8588 68.0752 28.8588 68.1022C28.8642 68.1291 28.8534 68.1641 28.8265 68.2072L28.6891 68.5224C28.673 68.5709 28.6568 68.6194 28.6406 68.6679C28.6299 68.7164 28.6299 68.7649 28.6406 68.8133C28.646 68.9049 28.6918 68.9588 28.778 68.975C28.8696 68.9857 28.9531 68.9857 29.0285 68.975C29.104 68.9642 29.1875 68.9453 29.2791 68.9184C29.3707 68.8861 29.4595 68.8511 29.5457 68.8133C29.6373 68.7702 29.7208 68.7271 29.7963 68.684C29.8771 68.6356 29.9444 68.5898 29.9983 68.5467C30.0306 68.5197 30.0495 68.5036 30.0549 68.4982C30.0603 68.4928 30.0656 68.4901 30.071 68.4901C30.0764 68.4901 30.0845 68.4874 30.0953 68.482C30.1061 68.4712 30.133 68.4497 30.1761 68.4174C30.1923 68.4012 30.2165 68.3823 30.2488 68.3608C30.2811 68.3339 30.3054 68.3123 30.3216 68.2961C30.3431 68.2854 30.3673 68.2692 30.3943 68.2477C30.4266 68.2207 30.4562 68.1965 30.4832 68.1749C30.5155 68.1534 30.5424 68.1399 30.564 68.1345C30.5909 68.1291 30.6125 68.1372 30.6286 68.1588C30.6394 68.1803 30.6367 68.2072 30.6206 68.2396C30.6044 68.2665 30.6044 68.2934 30.6206 68.3204L30.6044 68.3689C30.5936 68.3958 30.5802 68.412 30.564 68.4174C30.5478 68.4227 30.5263 68.4281 30.4993 68.4335C30.4616 68.4658 30.4266 68.4955 30.3943 68.5224C30.362 68.5494 30.3296 68.5817 30.2973 68.6194C30.2434 68.6625 30.2003 68.6948 30.168 68.7164C30.1357 68.7379 30.1061 68.7595 30.0791 68.781C30.0576 68.7972 30.0333 68.8133 30.0064 68.8295C29.9794 68.8457 29.9471 68.8672 29.9094 68.8942C29.9094 68.8995 29.8959 68.9049 29.869 68.9103C29.8421 68.9157 29.8259 68.9211 29.8205 68.9265C29.7828 68.9696 29.7397 68.9992 29.6912 69.0154C29.6427 69.0315 29.5781 69.0585 29.4973 69.0962C29.4164 69.1177 29.3222 69.1447 29.2144 69.177C29.1121 69.2093 29.007 69.2174 28.8992 69.2012ZM28.972 67.3668C28.9504 67.356 28.937 67.3506 28.9316 67.3506C28.9208 67.3452 28.9127 67.3399 28.9073 67.3345C28.9019 67.3291 28.8939 67.321 28.8831 67.3102C28.8561 67.2671 28.8481 67.2186 28.8588 67.1648C28.8696 67.1217 28.8804 67.0786 28.8912 67.0355C28.9019 66.9924 28.9235 66.9493 28.9558 66.9062C28.9558 66.8792 28.9612 66.8711 28.972 66.8819C29.0043 66.8657 29.0312 66.8577 29.0528 66.8577C29.1013 66.8738 29.1471 66.9035 29.1902 66.9466C29.2171 66.9627 29.2279 66.9816 29.2225 67.0031C29.2225 67.0193 29.2198 67.0408 29.2144 67.0678C29.2144 67.0786 29.2117 67.0893 29.2063 67.1001C29.2009 67.1055 29.1956 67.1136 29.1902 67.1243C29.1525 67.1674 29.1201 67.2186 29.0932 67.2779C29.1094 67.2887 29.1067 67.2967 29.0851 67.3021C29.0582 67.3452 29.0205 67.3668 28.972 67.3668Z" fill="white"/>
<path d="M31.5345 67.9971C31.5453 68.0726 31.5453 68.1291 31.5345 68.1668C31.5237 68.1992 31.5103 68.2369 31.4941 68.28C31.4726 68.3392 31.4564 68.385 31.4456 68.4174C31.4402 68.4443 31.4241 68.4874 31.3971 68.5467C31.3971 68.552 31.3944 68.5601 31.389 68.5709C31.3837 68.5817 31.3837 68.5898 31.389 68.5951C31.5076 68.579 31.6099 68.5628 31.6961 68.5467C31.7877 68.5305 31.8712 68.5143 31.9467 68.4982C32.0221 68.4766 32.0921 68.4524 32.1568 68.4254C32.2268 68.3985 32.3022 68.3662 32.383 68.3285C32.4208 68.3069 32.445 68.2934 32.4558 68.2881C32.4719 68.2773 32.4854 68.2665 32.4962 68.2557C32.507 68.245 32.5204 68.2315 32.5366 68.2153C32.5581 68.1938 32.5959 68.1615 32.6497 68.1184C32.6551 68.1184 32.6578 68.1157 32.6578 68.1103C32.6632 68.1049 32.6686 68.1022 32.674 68.1022C32.6847 68.0914 32.7036 68.0833 32.7305 68.0779C32.7629 68.0726 32.7871 68.0752 32.8033 68.086C32.8087 68.0968 32.8087 68.1022 32.8033 68.1022C32.7979 68.1022 32.8006 68.1049 32.8114 68.1103C32.8114 68.1157 32.8194 68.1184 32.8356 68.1184C32.8572 68.1184 32.8652 68.121 32.8598 68.1264C32.8437 68.2072 32.8006 68.2611 32.7305 68.2881C32.6982 68.315 32.674 68.3312 32.6578 68.3365C32.647 68.3419 32.6228 68.3554 32.5851 68.377C32.515 68.4254 32.4639 68.4605 32.4315 68.482C32.4046 68.4982 32.3804 68.5116 32.3588 68.5224C32.3426 68.5332 32.3211 68.544 32.2942 68.5547C32.2672 68.5655 32.2214 68.5844 32.1568 68.6113C32.076 68.649 31.9601 68.6867 31.8093 68.7244C31.6584 68.7622 31.521 68.781 31.3971 68.781C31.3864 68.781 31.3729 68.781 31.3567 68.781C31.3459 68.781 31.3352 68.7837 31.3244 68.7891C31.3028 68.7945 31.2894 68.8026 31.284 68.8133C31.284 68.8241 31.2813 68.8403 31.2759 68.8618C31.249 68.9049 31.2193 68.9373 31.187 68.9588C31.1601 68.9804 31.1331 69.0127 31.1062 69.0558L31.0415 69.1285C30.9984 69.177 30.9473 69.2147 30.888 69.2417C30.8287 69.2686 30.7695 69.2821 30.7102 69.2821C30.6833 69.2874 30.6483 69.2874 30.6052 69.2821C30.5621 69.2713 30.5351 69.2605 30.5243 69.2497C30.4651 69.2174 30.4193 69.1716 30.387 69.1124C30.3546 69.0531 30.3385 68.9938 30.3385 68.9346C30.3223 68.7729 30.3466 68.6275 30.4112 68.4982C30.422 68.4551 30.4328 68.4174 30.4435 68.385C30.4597 68.3473 30.4759 68.3069 30.492 68.2638C30.5028 68.2423 30.5082 68.2261 30.5082 68.2153C30.5136 68.1992 30.5217 68.1857 30.5324 68.1749C30.5648 68.1372 30.589 68.0914 30.6052 68.0375C30.6429 67.9675 30.6779 67.9217 30.7102 67.9002C30.7479 67.8732 30.7937 67.8301 30.8476 67.7709L30.9284 67.7143C31.0038 67.6712 31.0685 67.6469 31.1224 67.6416C31.1655 67.6362 31.2059 67.6335 31.2436 67.6335C31.2813 67.6335 31.3082 67.6362 31.3244 67.6416C31.3513 67.6469 31.3783 67.6577 31.4052 67.6739C31.4321 67.69 31.451 67.7116 31.4618 67.7385C31.4887 67.7655 31.5049 67.7951 31.5103 67.8274C31.521 67.8597 31.5291 67.8894 31.5345 67.9163C31.5399 67.9379 31.5399 67.9648 31.5345 67.9971ZM31.3001 67.9486C31.3163 67.9055 31.2975 67.8759 31.2436 67.8597C31.1897 67.8436 31.152 67.8463 31.1304 67.8678C31.1089 67.884 31.0847 67.8948 31.0577 67.9002C30.9931 67.9486 30.9392 68.0025 30.8961 68.0618C30.8584 68.121 30.826 68.1803 30.7991 68.2396C30.7722 68.2827 30.7587 68.3312 30.7587 68.385C30.7479 68.4335 30.7722 68.4712 30.8314 68.4982C30.8314 68.5036 30.8368 68.5116 30.8476 68.5224C30.8638 68.5278 30.8745 68.5359 30.8799 68.5467C30.8961 68.5574 30.9284 68.5736 30.9769 68.5951C31.0308 68.6113 31.0631 68.614 31.0739 68.6032C31.117 68.5494 31.1547 68.4766 31.187 68.385C31.2193 68.2934 31.2517 68.2153 31.284 68.1507C31.3055 68.086 31.3109 68.0187 31.3001 67.9486ZM30.5809 69.0235C30.5701 69.1474 30.6321 69.1581 30.7668 69.0558C30.8099 69.0127 30.8503 68.975 30.888 68.9426C30.9257 68.9103 30.958 68.8591 30.985 68.7891C30.985 68.7891 30.9877 68.7864 30.9931 68.781C30.9984 68.7756 31.0011 68.7702 31.0011 68.7649C31.0065 68.7541 31.0065 68.746 31.0011 68.7406C31.0011 68.7352 30.9904 68.7352 30.9688 68.7406C30.9419 68.7298 30.8961 68.711 30.8314 68.684C30.7668 68.6517 30.7183 68.6113 30.686 68.5628C30.6806 68.552 30.6725 68.5574 30.6617 68.579C30.651 68.5951 30.6429 68.6113 30.6375 68.6275C30.6052 68.6867 30.5863 68.7487 30.5809 68.8133C30.5809 68.878 30.5809 68.94 30.5809 68.9992V69.0235Z" fill="white"/>
<path d="M34.6569 68.9669C34.7 68.94 34.735 68.9211 34.7619 68.9103C34.7942 68.8942 34.832 68.8699 34.8751 68.8376C35.0044 68.7514 35.1256 68.6571 35.2387 68.5547C35.2603 68.5278 35.2791 68.5116 35.2953 68.5063C35.3168 68.4955 35.3384 68.4766 35.3599 68.4497L35.4246 68.377C35.4354 68.3554 35.4434 68.3446 35.4488 68.3446C35.4542 68.3446 35.465 68.3285 35.4812 68.2961V68.28C35.4812 68.2746 35.4919 68.2719 35.5135 68.2719C35.5243 68.2611 35.5377 68.2584 35.5539 68.2638C35.5754 68.2692 35.5916 68.28 35.6024 68.2961C35.6132 68.3069 35.6212 68.3204 35.6266 68.3365C35.632 68.3527 35.6293 68.3689 35.6185 68.385C35.6132 68.4174 35.6105 68.4308 35.6105 68.4254C35.6105 68.4201 35.5997 68.4308 35.5781 68.4578C35.5674 68.4847 35.5566 68.5036 35.5458 68.5143C35.5404 68.5197 35.5243 68.5413 35.4973 68.579C35.4381 68.6382 35.3869 68.6894 35.3438 68.7325C35.3007 68.7756 35.2441 68.8268 35.1741 68.8861C35.1471 68.913 35.1148 68.9373 35.0771 68.9588C35.0448 68.9804 35.0124 69.0046 34.9801 69.0315C34.9316 69.0639 34.8804 69.0935 34.8266 69.1204C34.7727 69.1474 34.7161 69.1662 34.6569 69.177C34.6245 69.1878 34.5922 69.1932 34.5599 69.1932C34.5276 69.1932 34.4979 69.1959 34.471 69.2012C34.3848 69.2066 34.2932 69.1905 34.1962 69.1528C34.0993 69.115 34.0238 69.0746 33.97 69.0315C33.9215 68.9777 33.8757 68.9265 33.8326 68.878C33.7895 68.8241 33.7518 68.7649 33.7194 68.7002C33.6763 68.6248 33.6467 68.5386 33.6305 68.4416C33.6144 68.3392 33.6063 68.2503 33.6063 68.1749C33.6117 68.1641 33.609 68.1426 33.5982 68.1103C33.5874 68.0833 33.5847 68.0564 33.5901 68.0295C33.5955 67.9971 33.5955 67.9675 33.5901 67.9406C33.5955 67.9352 33.5955 67.9298 33.5901 67.9244C33.5847 67.919 33.5794 67.919 33.574 67.9244C33.5416 67.9352 33.512 67.9513 33.4851 67.9729C33.4635 67.989 33.442 68.0052 33.4204 68.0214C33.345 68.0806 33.2723 68.1426 33.2022 68.2072C33.1376 68.2719 33.0756 68.3446 33.0164 68.4254C32.9679 68.4739 32.9248 68.5251 32.8871 68.579C32.8763 68.5951 32.8628 68.6194 32.8467 68.6517C32.8359 68.6787 32.8224 68.711 32.8062 68.7487C32.7955 68.781 32.782 68.816 32.7658 68.8537C32.7551 68.8861 32.7416 68.9103 32.7254 68.9265C32.7147 68.9426 32.7012 68.9588 32.685 68.975C32.6689 68.9857 32.6527 68.9992 32.6365 69.0154C32.6258 69.0315 32.6015 69.0396 32.5638 69.0396C32.5423 69.0396 32.5369 69.0369 32.5476 69.0315C32.5584 69.0262 32.5584 69.0181 32.5476 69.0073L32.4426 68.9346C32.4156 68.9022 32.413 68.8699 32.4345 68.8376C32.4345 68.8053 32.4399 68.7837 32.4507 68.7729C32.4722 68.7352 32.4911 68.6894 32.5072 68.6356C32.5234 68.5763 32.5396 68.517 32.5557 68.4578C32.5665 68.3931 32.58 68.3339 32.5961 68.28C32.6123 68.2207 32.6311 68.1695 32.6527 68.1264L32.685 68.0375C32.6904 68.0268 32.6958 68.0079 32.7012 67.981C32.712 67.9486 32.72 67.9163 32.7254 67.884C32.7362 67.8517 32.7443 67.822 32.7497 67.7951C32.7605 67.7682 32.7685 67.7466 32.7739 67.7304C32.7685 67.6981 32.7901 67.6766 32.8386 67.6658C32.914 67.655 32.976 67.6712 33.0244 67.7143C33.0298 67.7197 33.0298 67.7358 33.0244 67.7628C33.0244 67.7843 33.0217 67.8113 33.0164 67.8436C33.011 67.8705 33.0056 67.8975 33.0002 67.9244C33.0002 67.9459 33.0029 67.9594 33.0083 67.9648C33.0191 67.981 33.0298 67.9837 33.0406 67.9729C33.0783 67.9406 33.1187 67.9028 33.1618 67.8597C33.2049 67.8166 33.2453 67.7816 33.283 67.7547C33.3261 67.7278 33.3692 67.7116 33.4123 67.7062C33.4554 67.6954 33.4985 67.6873 33.5416 67.682H33.582C33.6575 67.6981 33.7275 67.7331 33.7922 67.787C33.8137 67.7978 33.8299 67.8247 33.8407 67.8678C33.8514 67.9055 33.8595 67.9406 33.8649 67.9729C33.8703 68.0052 33.8703 68.0375 33.8649 68.0699C33.8649 68.1022 33.8622 68.1318 33.8568 68.1588C33.8514 68.1803 33.8514 68.2126 33.8568 68.2557V68.3123C33.8514 68.3716 33.8568 68.4254 33.873 68.4739C33.8945 68.5224 33.9107 68.5736 33.9215 68.6275C33.9322 68.649 33.943 68.6733 33.9538 68.7002C33.9646 68.7218 33.978 68.7379 33.9942 68.7487C34.0157 68.781 34.0346 68.8106 34.0508 68.8376C34.0669 68.8591 34.0885 68.8807 34.1154 68.9022C34.1908 68.9777 34.2797 69.0154 34.3821 69.0154C34.4899 69.0154 34.5814 68.9992 34.6569 68.9669Z" fill="white"/>
<path d="M37.1766 68.9992C37.1281 68.9992 37.085 68.9911 37.0473 68.975C37.0042 68.9534 36.9611 68.9292 36.918 68.9022C36.8749 68.8699 36.8399 68.8322 36.8129 68.7891C36.7429 68.6975 36.6917 68.5925 36.6594 68.4739C36.6594 68.4578 36.6513 68.4497 36.6351 68.4497L36.4978 68.5871C36.4169 68.6517 36.3361 68.7164 36.2553 68.781C36.1799 68.8457 36.1018 68.9049 36.021 68.9588C35.9671 68.9911 35.9132 69.0208 35.8593 69.0477C35.8109 69.0746 35.757 69.0935 35.6977 69.1043C35.6384 69.1258 35.5711 69.1366 35.4957 69.1366C35.3987 69.1474 35.3287 69.0989 35.2856 68.9911L35.2209 68.8699C35.1886 68.8053 35.1859 68.7352 35.2128 68.6598C35.2236 68.6167 35.2425 68.5763 35.2694 68.5386C35.291 68.5009 35.3098 68.4632 35.326 68.4254L35.4149 68.3123C35.4903 68.2261 35.5684 68.1453 35.6492 68.0699C35.7354 67.989 35.8243 67.919 35.9159 67.8597L36.0533 67.7789C36.1287 67.7358 36.2095 67.7143 36.2957 67.7143C36.3442 67.7143 36.3792 67.7278 36.4008 67.7547C36.4708 67.8193 36.5166 67.8975 36.5382 67.989C36.5382 67.9998 36.5328 68.016 36.522 68.0375C36.5058 68.0483 36.4951 68.0483 36.4897 68.0375L36.4331 67.989C36.4062 67.9621 36.3819 67.9567 36.3604 67.9729C36.3173 67.9837 36.2742 67.9944 36.2311 68.0052C36.188 68.0106 36.1449 68.0268 36.1018 68.0537C36.0048 68.1022 35.9159 68.1668 35.8351 68.2477C35.8135 68.2584 35.7947 68.2746 35.7785 68.2961C35.6654 68.3823 35.5657 68.5009 35.4795 68.6517C35.4364 68.7002 35.4068 68.7622 35.3906 68.8376C35.3798 68.8591 35.3852 68.8699 35.4068 68.8699C35.4229 68.8753 35.4391 68.878 35.4553 68.878C35.4714 68.878 35.4849 68.878 35.4957 68.878C35.5334 68.8672 35.5711 68.8591 35.6088 68.8537C35.6519 68.8484 35.6896 68.8349 35.722 68.8133C35.8782 68.7487 36.0183 68.6571 36.1422 68.5386L36.3361 68.377C36.3523 68.3662 36.3658 68.3581 36.3765 68.3527C36.3927 68.3419 36.4062 68.3312 36.417 68.3204C36.4601 68.2719 36.5005 68.2261 36.5382 68.183C36.5813 68.1399 36.6244 68.0887 36.6675 68.0295C36.6944 67.9917 36.7267 67.9837 36.7644 68.0052C36.786 68.016 36.8102 68.0295 36.8372 68.0456C36.8641 68.0564 36.883 68.0726 36.8937 68.0941C36.8991 68.1157 36.9018 68.1345 36.9018 68.1507C36.9072 68.1615 36.9072 68.1776 36.9018 68.1992C36.8964 68.2315 36.8911 68.2665 36.8857 68.3042C36.8857 68.3419 36.8857 68.3796 36.8857 68.4174C36.8857 68.5089 36.9045 68.5925 36.9422 68.6679C36.953 68.6787 36.9638 68.6867 36.9746 68.6921C36.9907 68.6921 37.0042 68.6975 37.015 68.7083C37.0904 68.7568 37.1685 68.781 37.2493 68.781C37.3301 68.7756 37.4109 68.7568 37.4918 68.7244C37.5349 68.7083 37.5726 68.6975 37.6049 68.6921C37.6372 68.6813 37.6749 68.6625 37.718 68.6356C37.7881 68.5817 37.8473 68.5413 37.8958 68.5143C37.9443 68.4874 37.9982 68.4389 38.0575 68.3689C38.0736 68.3527 38.1033 68.3204 38.1464 68.2719C38.1895 68.218 38.2164 68.1803 38.2272 68.1588L38.2514 68.1426C38.2514 68.1372 38.2622 68.1345 38.2837 68.1345C38.3107 68.1345 38.3241 68.1372 38.3241 68.1426L38.3565 68.1911C38.3726 68.2288 38.3592 68.28 38.3161 68.3446C38.2783 68.4039 38.2487 68.447 38.2272 68.4739C38.114 68.6356 37.9713 68.7622 37.7989 68.8537C37.6318 68.9453 37.4729 68.9938 37.3221 68.9992C37.3113 68.9992 37.287 69.0019 37.2493 69.0073C37.2116 69.0127 37.1874 69.01 37.1766 68.9992Z" fill="white"/>
<path d="M37.9273 69.5568C37.9165 69.5245 37.9192 69.5003 37.9354 69.4841C37.9461 69.4572 37.9515 69.4302 37.9515 69.4033C37.9515 69.371 37.9515 69.3386 37.9515 69.3063C37.9461 69.2686 37.9515 69.2309 37.9677 69.1932C37.9785 69.1501 37.9865 69.107 37.9919 69.0639C37.9919 69.0262 37.9973 68.9911 38.0081 68.9588C38.0189 68.9265 38.0296 68.8888 38.0404 68.8457L38.0647 68.6598C38.0862 68.6059 38.0997 68.5547 38.1051 68.5063C38.1158 68.4524 38.132 68.3958 38.1535 68.3365C38.1535 68.3365 38.1535 68.3312 38.1535 68.3204C38.1643 68.2934 38.1859 68.2261 38.2182 68.1184C38.2559 68.0106 38.2936 67.8975 38.3313 67.7789C38.3744 67.655 38.4122 67.5446 38.4445 67.4476C38.4822 67.3506 38.5037 67.2994 38.5091 67.2941C38.5307 67.2348 38.5468 67.1809 38.5576 67.1324C38.5738 67.0786 38.5953 67.022 38.6223 66.9627C38.6277 66.9358 38.6384 66.9062 38.6546 66.8738C38.6708 66.8415 38.6842 66.8092 38.695 66.7769C38.7273 66.7176 38.7516 66.661 38.7677 66.6071C38.7839 66.5533 38.8054 66.4994 38.8324 66.4455C38.8432 66.4401 38.8485 66.4347 38.8485 66.4294C38.8809 66.3378 38.9105 66.2489 38.9374 66.1627C38.9698 66.0765 39.0075 65.9903 39.0506 65.9041C39.0829 65.8286 39.1125 65.7559 39.1395 65.6859C39.1718 65.6104 39.1987 65.5296 39.2203 65.4434L39.2364 65.3707C39.2364 65.3545 39.2391 65.3411 39.2445 65.3303C39.2499 65.3141 39.2499 65.2953 39.2445 65.2737C39.2445 65.2468 39.2715 65.2252 39.3253 65.2091C39.3684 65.2037 39.4088 65.2091 39.4466 65.2252C39.4843 65.2414 39.5193 65.2576 39.5516 65.2737C39.5624 65.2845 39.5705 65.298 39.5759 65.3141C39.5812 65.3249 39.5786 65.3384 39.5678 65.3545C39.5355 65.4623 39.4977 65.5673 39.4546 65.6697C39.4169 65.7667 39.3765 65.8717 39.3334 65.9849L39.1476 66.4294C39.1422 66.4401 39.1395 66.4509 39.1395 66.4617C39.1395 66.4671 39.1341 66.4751 39.1233 66.4859C39.1018 66.5398 39.0829 66.591 39.0667 66.6395C39.0506 66.6826 39.029 66.7284 39.0021 66.7769C38.9644 66.8523 38.9347 66.9304 38.9132 67.0112C38.8916 67.0866 38.8593 67.1621 38.8162 67.2375C38.8054 67.2752 38.792 67.3129 38.7758 67.3506C38.7596 67.383 38.7462 67.4207 38.7354 67.4638C38.7246 67.4907 38.7058 67.5392 38.6788 67.6092C38.6573 67.6739 38.633 67.7493 38.6061 67.8355C38.5792 67.9217 38.5522 68.0079 38.5253 68.0941C38.4984 68.1803 38.4768 68.253 38.4606 68.3123C38.4499 68.35 38.4364 68.3904 38.4202 68.4335C38.4095 68.4766 38.4014 68.517 38.396 68.5547C38.3852 68.6032 38.3744 68.649 38.3637 68.6921C38.3583 68.7352 38.3448 68.7783 38.3233 68.8214C38.3017 68.913 38.2828 68.9965 38.2667 69.0719C38.2505 69.142 38.2451 69.2093 38.2505 69.274C38.2505 69.3225 38.2451 69.371 38.2344 69.4194C38.2236 69.4679 38.2209 69.5191 38.2263 69.573C38.2317 69.5891 38.2317 69.6026 38.2263 69.6134C38.2209 69.6242 38.2155 69.6376 38.2101 69.6538C38.1993 69.6969 38.1966 69.7454 38.202 69.7993C38.2128 69.8478 38.2263 69.8962 38.2424 69.9447C38.2532 69.9555 38.2586 69.9609 38.2586 69.9609C38.2586 69.9717 38.2613 69.9797 38.2667 69.9851C38.2721 69.9905 38.2775 69.9905 38.2829 69.9851C38.3098 69.969 38.3313 69.969 38.3475 69.9851C38.3691 70.0013 38.3771 70.0228 38.3717 70.0498C38.3717 70.0713 38.3583 70.0929 38.3313 70.1144C38.3098 70.136 38.2694 70.1468 38.2101 70.1468C38.1455 70.1468 38.0889 70.1225 38.0404 70.074C38.0027 70.0471 37.9785 70.0175 37.9677 69.9851C37.9569 69.9474 37.9461 69.907 37.9354 69.8639C37.9461 69.81 37.9488 69.7589 37.9434 69.7104C37.9327 69.6565 37.9273 69.6053 37.9273 69.5568Z" fill="white"/>
<path d="M41.0698 69.4437V69.3144C41.0752 69.2767 41.0778 69.2417 41.0778 69.2093C41.0778 69.177 41.0859 69.1447 41.1021 69.1124C41.1075 69.0369 41.1236 68.9642 41.1506 68.8942C41.1829 68.8241 41.2045 68.7514 41.2152 68.676C41.2314 68.6382 41.2449 68.6005 41.2556 68.5628C41.2664 68.5197 41.2799 68.4766 41.296 68.4335C41.3014 68.4227 41.3068 68.412 41.3122 68.4012C41.3176 68.385 41.323 68.3689 41.3284 68.3527C41.3445 68.3258 41.3634 68.3042 41.3849 68.2881C41.4119 68.2665 41.428 68.2396 41.4334 68.2072C41.4442 68.1803 41.455 68.1588 41.4657 68.1426C41.4765 68.121 41.4873 68.0995 41.4981 68.0779L41.5708 67.9325C41.6085 67.8732 41.6435 67.814 41.6759 67.7547C41.7136 67.6954 41.754 67.6389 41.7971 67.585C41.824 67.5365 41.8537 67.4907 41.886 67.4476C41.9237 67.4045 41.9587 67.3614 41.991 67.3183C42.018 67.286 42.0476 67.259 42.0799 67.2375C42.0961 67.2267 42.1123 67.2132 42.1284 67.1971C42.1446 67.1809 42.158 67.1674 42.1688 67.1567C42.2011 67.1243 42.22 67.0947 42.2254 67.0678C42.2308 67.0408 42.2416 67.0193 42.2577 67.0031C42.2739 66.987 42.29 66.9708 42.3062 66.9546L42.4759 66.7688C42.4921 66.7472 42.5109 66.7284 42.5325 66.7122C42.554 66.696 42.5783 66.6772 42.6052 66.6556C42.6322 66.6395 42.651 66.6206 42.6618 66.5991C42.6779 66.5721 42.6968 66.5506 42.7184 66.5344C42.783 66.4913 42.8423 66.4428 42.8961 66.3889C42.95 66.3351 43.0093 66.2812 43.0739 66.2273C43.0955 66.2058 43.117 66.1896 43.1386 66.1788C43.1601 66.1627 43.1844 66.1438 43.2113 66.1223C43.2275 66.1115 43.2436 66.1007 43.2598 66.0899C43.276 66.0792 43.2921 66.063 43.3083 66.0415L43.3406 65.993C43.3837 65.966 43.4241 65.9364 43.4618 65.9041C43.5049 65.8717 43.5561 65.8448 43.6154 65.8233C43.6369 65.8125 43.6504 65.799 43.6558 65.7829C43.6773 65.7505 43.7124 65.7236 43.7608 65.702C43.8039 65.6697 43.8497 65.6374 43.8982 65.6051C43.9521 65.5727 44.0033 65.5431 44.0518 65.5162C44.1164 65.4731 44.1784 65.4354 44.2376 65.403C44.3023 65.3707 44.3643 65.3411 44.4235 65.3141C44.4774 65.2926 44.5259 65.271 44.569 65.2495C44.6175 65.2279 44.6713 65.2091 44.7306 65.1929C44.7899 65.1714 44.8491 65.1552 44.9084 65.1444C44.973 65.1283 45.035 65.1148 45.0943 65.104C45.1158 65.0986 45.1347 65.0986 45.1508 65.104C45.237 65.1202 45.3098 65.1552 45.369 65.2091C45.4337 65.2576 45.4795 65.3141 45.5064 65.3788C45.5172 65.4111 45.5064 65.4327 45.4741 65.4434C45.4633 65.4488 45.4498 65.4542 45.4337 65.4596C45.4175 65.465 45.4014 65.4623 45.3852 65.4515C45.3636 65.4407 45.3475 65.43 45.3367 65.4192C45.3098 65.3976 45.2667 65.3923 45.2074 65.403C45.1805 65.4138 45.1508 65.4219 45.1185 65.4273C45.0916 65.4273 45.0646 65.43 45.0377 65.4354C44.7899 65.5054 44.5663 65.597 44.3669 65.7101C44.3238 65.7371 44.2807 65.7613 44.2376 65.7829C44.1945 65.8044 44.1514 65.8286 44.1083 65.8556C44.0437 65.8987 43.9763 65.9418 43.9063 65.9849C43.8417 66.028 43.777 66.0738 43.7124 66.1223C43.6585 66.1761 43.5992 66.2246 43.5346 66.2677C43.4699 66.3108 43.408 66.3593 43.3487 66.4132L43.2679 66.4778L42.6699 67.0274C42.6483 67.0435 42.6187 67.0759 42.581 67.1243L42.5486 67.1728C42.4678 67.2483 42.3978 67.3264 42.3385 67.4072C42.2793 67.488 42.2173 67.5688 42.1527 67.6496C42.1257 67.6766 42.1015 67.7062 42.0799 67.7385C42.0638 67.7709 42.0449 67.8005 42.0234 67.8274C41.9964 67.8544 41.9722 67.8867 41.9506 67.9244C41.9291 67.9621 41.9021 67.9971 41.8698 68.0295C41.8213 68.1103 41.7728 68.1938 41.7244 68.28C41.6813 68.3662 41.6408 68.4551 41.6031 68.5467C41.5977 68.579 41.5843 68.6086 41.5627 68.6356C41.5196 68.7379 41.4819 68.843 41.4496 68.9507C41.4227 69.0531 41.3957 69.1555 41.3688 69.2578C41.3526 69.2955 41.3418 69.3332 41.3365 69.371C41.3365 69.4087 41.3311 69.4491 41.3203 69.4922C41.3149 69.5299 41.3149 69.5676 41.3203 69.6053C41.3364 69.6807 41.3445 69.7508 41.3445 69.8154C41.3445 69.837 41.3526 69.8504 41.3688 69.8558C41.4011 69.9797 41.4496 70.0848 41.5142 70.171C41.5412 70.2033 41.5708 70.233 41.6031 70.2599C41.6355 70.2868 41.6759 70.3138 41.7244 70.3407C41.7836 70.3676 41.8456 70.3865 41.9102 70.3973C41.9803 70.4081 42.0476 70.4188 42.1123 70.4296C42.1392 70.4296 42.1661 70.4296 42.1931 70.4296C42.22 70.4242 42.2469 70.4215 42.2739 70.4215C42.2847 70.4215 42.2981 70.4215 42.3143 70.4215C42.3305 70.4161 42.3466 70.4134 42.3628 70.4134C42.4382 70.4134 42.5109 70.4081 42.581 70.3973C42.6564 70.3811 42.7264 70.3676 42.7911 70.3569C42.8827 70.3353 42.9743 70.3084 43.0659 70.2761C43.1574 70.2437 43.249 70.2141 43.3406 70.1872C43.3783 70.1764 43.4133 70.1656 43.4457 70.1548C43.478 70.1387 43.5157 70.1252 43.5588 70.1144C43.6019 70.109 43.6396 70.0983 43.6719 70.0821C43.7312 70.0552 43.7878 70.0309 43.8417 70.0094C43.8955 69.9878 43.9521 69.9636 44.0114 69.9366C44.0383 69.9259 44.0679 69.9151 44.1003 69.9043C44.1326 69.8935 44.1622 69.8774 44.1892 69.8558L44.2134 69.8397C44.2565 69.8451 44.2861 69.837 44.3023 69.8154C44.3238 69.7885 44.3535 69.7642 44.3912 69.7427C44.4127 69.7265 44.4262 69.7158 44.4316 69.7104C44.437 69.705 44.4397 69.7023 44.4397 69.7023C44.4397 69.6969 44.4424 69.6942 44.4478 69.6942C44.4585 69.6942 44.4774 69.6888 44.5043 69.678C44.5259 69.678 44.542 69.6727 44.5528 69.6619C44.5905 69.6296 44.6417 69.6188 44.7064 69.6296H44.7225C44.7333 69.6296 44.7441 69.6349 44.7548 69.6457C44.7656 69.6565 44.7737 69.6673 44.7791 69.678C44.7791 69.6888 44.7791 69.7023 44.7791 69.7185C44.7845 69.7292 44.7872 69.74 44.7872 69.7508C44.7872 69.7562 44.7845 69.7589 44.7791 69.7589C44.7791 69.7589 44.7791 69.7616 44.7791 69.7669V69.775L44.7225 69.8316C44.6956 69.8478 44.6794 69.8612 44.674 69.872C44.6686 69.8774 44.666 69.8828 44.666 69.8882C44.666 69.8935 44.6633 69.8989 44.6579 69.9043C44.6525 69.9043 44.6363 69.9124 44.6094 69.9286C44.5609 69.9447 44.5393 69.9582 44.5447 69.969C44.5501 69.9744 44.534 69.9878 44.4962 70.0094C44.4478 70.0309 44.4208 70.0444 44.4154 70.0498C44.41 70.0552 44.4073 70.0579 44.4073 70.0579C44.4127 70.0579 44.41 70.0606 44.3993 70.0659C44.3939 70.0659 44.3669 70.074 44.3185 70.0902L44.2457 70.1225C44.138 70.171 44.0329 70.2168 43.9306 70.2599C43.8336 70.2976 43.7312 70.338 43.6235 70.3811L43.4618 70.4377C43.3487 70.4808 43.2302 70.5185 43.1063 70.5508C42.9877 70.5778 42.8692 70.6047 42.7507 70.6316L42.6375 70.6478C42.6268 70.6478 42.6106 70.6478 42.5891 70.6478C42.5729 70.6478 42.5567 70.6505 42.5406 70.6559C42.4113 70.6774 42.2847 70.6774 42.1607 70.6559C42.1446 70.6505 42.1149 70.6478 42.0718 70.6478C42.0341 70.637 41.9937 70.6289 41.9506 70.6236C41.9129 70.6128 41.8698 70.5993 41.8213 70.5832C41.7136 70.5508 41.6193 70.5023 41.5385 70.4377C41.4631 70.3676 41.3876 70.2868 41.3122 70.1952C41.2422 70.109 41.1856 70.0175 41.1425 69.9205C41.0994 69.8181 41.0778 69.7158 41.0778 69.6134V69.4437H41.0698Z" fill="white"/>
<path d="M47.3335 68.9992C47.285 68.9992 47.2419 68.9911 47.2042 68.975C47.1611 68.9534 47.118 68.9292 47.0749 68.9022C47.0318 68.8699 46.9968 68.8322 46.9698 68.7891C46.8998 68.6975 46.8486 68.5925 46.8163 68.4739C46.8163 68.4578 46.8082 68.4497 46.792 68.4497L46.6547 68.5871C46.5738 68.6517 46.493 68.7164 46.4122 68.781C46.3368 68.8457 46.2587 68.9049 46.1779 68.9588C46.124 68.9911 46.0701 69.0208 46.0162 69.0477C45.9677 69.0746 45.9139 69.0935 45.8546 69.1043C45.7953 69.1258 45.728 69.1366 45.6526 69.1366C45.5556 69.1474 45.4856 69.0989 45.4425 68.9911L45.3778 68.8699C45.3455 68.8053 45.3428 68.7352 45.3697 68.6598C45.3805 68.6167 45.3994 68.5763 45.4263 68.5386C45.4478 68.5009 45.4667 68.4632 45.4829 68.4254L45.5718 68.3123C45.6472 68.2261 45.7253 68.1453 45.8061 68.0699C45.8923 67.989 45.9812 67.919 46.0728 67.8597L46.2102 67.7789C46.2856 67.7358 46.3664 67.7143 46.4526 67.7143C46.5011 67.7143 46.5361 67.7278 46.5577 67.7547C46.6277 67.8193 46.6735 67.8975 46.6951 67.989C46.6951 67.9998 46.6897 68.016 46.6789 68.0375C46.6627 68.0483 46.652 68.0483 46.6466 68.0375L46.59 67.989C46.5631 67.9621 46.5388 67.9567 46.5173 67.9729C46.4742 67.9837 46.4311 67.9944 46.388 68.0052C46.3449 68.0106 46.3018 68.0268 46.2587 68.0537C46.1617 68.1022 46.0728 68.1668 45.992 68.2477C45.9704 68.2584 45.9516 68.2746 45.9354 68.2961C45.8223 68.3823 45.7226 68.5009 45.6364 68.6517C45.5933 68.7002 45.5637 68.7622 45.5475 68.8376C45.5367 68.8591 45.5421 68.8699 45.5637 68.8699C45.5798 68.8753 45.596 68.878 45.6122 68.878C45.6283 68.878 45.6418 68.878 45.6526 68.878C45.6903 68.8672 45.728 68.8591 45.7657 68.8537C45.8088 68.8484 45.8465 68.8349 45.8788 68.8133C46.0351 68.7487 46.1752 68.6571 46.2991 68.5386L46.493 68.377C46.5092 68.3662 46.5227 68.3581 46.5334 68.3527C46.5496 68.3419 46.5631 68.3312 46.5738 68.3204C46.6169 68.2719 46.6573 68.2261 46.6951 68.183C46.7382 68.1399 46.7813 68.0887 46.8244 68.0295C46.8513 67.9917 46.8836 67.9837 46.9213 68.0052C46.9429 68.016 46.9671 68.0295 46.9941 68.0456C47.021 68.0564 47.0399 68.0726 47.0506 68.0941C47.056 68.1157 47.0587 68.1345 47.0587 68.1507C47.0641 68.1615 47.0641 68.1776 47.0587 68.1992C47.0533 68.2315 47.0479 68.2665 47.0426 68.3042C47.0426 68.3419 47.0426 68.3796 47.0426 68.4174C47.0426 68.5089 47.0614 68.5925 47.0991 68.6679C47.1099 68.6787 47.1207 68.6867 47.1315 68.6921C47.1476 68.6921 47.1611 68.6975 47.1719 68.7083C47.2473 68.7568 47.3254 68.781 47.4062 68.781C47.487 68.7756 47.5678 68.7568 47.6487 68.7244C47.6918 68.7083 47.7295 68.6975 47.7618 68.6921C47.7941 68.6813 47.8318 68.6625 47.8749 68.6356C47.945 68.5817 48.0042 68.5413 48.0527 68.5143C48.1012 68.4874 48.1551 68.4389 48.2143 68.3689C48.2305 68.3527 48.2601 68.3204 48.3032 68.2719C48.3463 68.218 48.3733 68.1803 48.3841 68.1588L48.4083 68.1426C48.4083 68.1372 48.4191 68.1345 48.4406 68.1345C48.4676 68.1345 48.481 68.1372 48.481 68.1426L48.5134 68.1911C48.5295 68.2288 48.516 68.28 48.4729 68.3446C48.4352 68.4039 48.4056 68.447 48.3841 68.4739C48.2709 68.6356 48.1281 68.7622 47.9557 68.8537C47.7887 68.9453 47.6298 68.9938 47.4789 68.9992C47.4682 68.9992 47.4439 69.0019 47.4062 69.0073C47.3685 69.0127 47.3443 69.01 47.3335 68.9992Z" fill="white"/>
<path d="M49.6519 67.9082C49.6465 67.9028 49.6385 67.9028 49.6277 67.9082C49.6223 67.9082 49.6115 67.9055 49.5954 67.9002C49.563 67.8894 49.5172 67.8921 49.458 67.9082C49.431 67.919 49.4014 67.9325 49.3691 67.9486C49.3422 67.9648 49.3152 67.981 49.2883 67.9971C49.2398 68.0241 49.194 68.0591 49.1509 68.1022C49.1132 68.1399 49.0728 68.1776 49.0297 68.2153C48.992 68.2423 48.9542 68.2773 48.9165 68.3204C48.8788 68.3581 48.8303 68.4147 48.7711 68.4901C48.7549 68.5224 48.7334 68.5574 48.7064 68.5951C48.6849 68.6275 48.6633 68.6598 48.6418 68.6921C48.631 68.7191 48.6175 68.7379 48.6014 68.7487C48.569 68.8026 48.5448 68.8591 48.5286 68.9184C48.5125 68.9723 48.4936 69.0288 48.4721 69.0881C48.4721 69.0989 48.4694 69.1097 48.464 69.1204C48.464 69.1312 48.464 69.142 48.464 69.1528C48.4532 69.1743 48.4343 69.1905 48.4074 69.2012C48.3859 69.212 48.367 69.212 48.3508 69.2012C48.2916 69.1851 48.2404 69.1581 48.1973 69.1204C48.165 69.0989 48.1569 69.0693 48.1731 69.0315C48.1838 69.0046 48.1946 68.9777 48.2054 68.9507C48.2162 68.9184 48.2296 68.8888 48.2458 68.8618C48.2781 68.8026 48.3024 68.7271 48.3185 68.6356C48.3455 68.5386 48.367 68.4416 48.3832 68.3446C48.4047 68.2423 48.429 68.1426 48.4559 68.0456C48.4667 68.0187 48.4721 67.9917 48.4721 67.9648C48.4721 67.9379 48.4748 67.9109 48.4801 67.884C48.5017 67.8032 48.5125 67.7197 48.5125 67.6335C48.5125 67.6011 48.5286 67.5796 48.561 67.5688C48.5933 67.558 48.6202 67.5607 48.6418 67.5769C48.6795 67.5931 48.7172 67.6146 48.7549 67.6416C48.798 67.6685 48.8142 67.6981 48.8034 67.7304C48.798 67.7897 48.7899 67.8463 48.7792 67.9002C48.7738 67.954 48.7657 68.0106 48.7549 68.0699C48.7549 68.0699 48.7549 68.0752 48.7549 68.086C48.7549 68.086 48.7576 68.086 48.763 68.086C48.7953 68.0591 48.8196 68.0402 48.8357 68.0295C48.8519 68.0187 48.8707 67.9998 48.8923 67.9729C48.9408 67.919 49.0027 67.8786 49.0782 67.8517C49.1536 67.8193 49.2263 67.7924 49.2964 67.7709C49.3556 67.7439 49.4257 67.7385 49.5065 67.7547C49.5388 67.7655 49.5684 67.7762 49.5954 67.787C49.6277 67.7978 49.6573 67.8166 49.6843 67.8436C49.6896 67.849 49.6923 67.8544 49.6923 67.8597C49.6923 67.8651 49.695 67.8732 49.7004 67.884C49.7058 67.8894 49.7031 67.8948 49.6923 67.9002C49.687 67.9055 49.6789 67.9082 49.6681 67.9082H49.6519Z" fill="white"/>
<path d="M50.2188 69.274C50.1596 69.2632 50.0976 69.2551 50.033 69.2497C49.9737 69.239 49.9225 69.2147 49.8794 69.177C49.8201 69.1177 49.7663 69.0531 49.7178 68.9831C49.6639 68.913 49.6424 68.8349 49.6531 68.7487C49.6531 68.7379 49.6558 68.7164 49.6612 68.684C49.6612 68.6463 49.6666 68.6221 49.6774 68.6113L49.6935 68.5628C49.7205 68.4982 49.7393 68.4551 49.7501 68.4335C49.7609 68.412 49.7851 68.3716 49.8228 68.3123C49.9144 68.1722 50.033 68.0429 50.1784 67.9244C50.2215 67.8867 50.27 67.8517 50.3239 67.8193C50.3778 67.7816 50.437 67.7466 50.5017 67.7143C50.5178 67.7143 50.5394 67.7062 50.5663 67.69C50.6094 67.6739 50.6525 67.6766 50.6956 67.6981C50.7441 67.7197 50.7818 67.7439 50.8088 67.7709L50.8411 67.8517C50.8573 67.981 50.8249 68.086 50.7441 68.1668C50.6848 68.2369 50.6202 68.3042 50.5502 68.3689C50.4855 68.4335 50.4155 68.4955 50.34 68.5547C50.3293 68.5655 50.3131 68.5763 50.2916 68.5871C50.2754 68.5978 50.2619 68.6086 50.2512 68.6194C50.235 68.6356 50.2134 68.6463 50.1865 68.6517C50.1649 68.6517 50.1407 68.6544 50.1138 68.6598C50.0707 68.6867 50.033 68.6787 50.0006 68.6356L49.9683 68.6113H49.9521C49.9468 68.6113 49.9441 68.614 49.9441 68.6194C49.9171 68.6571 49.901 68.7002 49.8956 68.7487C49.8956 68.7972 49.8956 68.8403 49.8956 68.878C49.901 68.9049 49.9198 68.9346 49.9521 68.9669C49.9737 68.9938 49.9979 69.0127 50.0249 69.0235C50.0572 69.0342 50.0868 69.0396 50.1138 69.0396C50.1353 69.045 50.1649 69.0477 50.2027 69.0477C50.2458 69.0423 50.2916 69.0396 50.34 69.0396C50.3939 69.0396 50.4478 69.0288 50.5017 69.0073C50.701 68.9588 50.8815 68.8995 51.0431 68.8295C51.2047 68.7595 51.3691 68.6867 51.5361 68.6113C51.6223 68.5682 51.7004 68.5278 51.7704 68.4901C51.8459 68.447 51.9213 68.4066 51.9967 68.3689C52.0452 68.3419 52.0748 68.3258 52.0856 68.3204C52.0964 68.3096 52.1287 68.2854 52.1826 68.2477C52.2095 68.2207 52.223 68.2099 52.223 68.2153C52.2284 68.2153 52.2526 68.2072 52.2957 68.1911C52.3065 68.1803 52.3092 68.1803 52.3038 68.1911C52.3038 68.1965 52.3065 68.2072 52.3119 68.2234C52.3173 68.245 52.3227 68.2719 52.328 68.3042C52.3388 68.3312 52.3334 68.3527 52.3119 68.3689C52.2742 68.4066 52.258 68.4281 52.2634 68.4335C52.2688 68.4335 52.2526 68.4497 52.2149 68.482C52.1341 68.5413 52.0533 68.5925 51.9725 68.6356C51.8917 68.6787 51.8081 68.7271 51.7219 68.781C51.6627 68.808 51.6061 68.8349 51.5522 68.8618C51.5038 68.8888 51.4553 68.913 51.4068 68.9346C51.299 68.9777 51.1886 69.0235 51.0754 69.0719C50.9677 69.115 50.8546 69.1501 50.736 69.177L50.5017 69.2417C50.4424 69.2578 50.3966 69.2686 50.3643 69.274C50.332 69.274 50.2835 69.274 50.2188 69.274ZM50.1138 68.4093C50.2054 68.3554 50.2916 68.2908 50.3724 68.2153C50.4532 68.1399 50.5313 68.0564 50.6067 67.9648C50.6013 67.9648 50.596 67.9675 50.5906 67.9729C50.5852 67.9729 50.5798 67.9729 50.5744 67.9729C50.472 68.016 50.3831 68.0672 50.3077 68.1264C50.2377 68.1857 50.1811 68.2611 50.138 68.3527C50.1326 68.3527 50.1245 68.3716 50.1138 68.4093Z" fill="white"/>
<path d="M52.4601 69.274C52.4009 69.2632 52.3389 69.2551 52.2743 69.2497C52.215 69.239 52.1638 69.2147 52.1207 69.177C52.0615 69.1177 52.0076 69.0531 51.9591 68.9831C51.9052 68.913 51.8837 68.8349 51.8944 68.7487C51.8944 68.7379 51.8971 68.7164 51.9025 68.684C51.9025 68.6463 51.9079 68.6221 51.9187 68.6113L51.9348 68.5628C51.9618 68.4982 51.9806 68.4551 51.9914 68.4335C52.0022 68.412 52.0264 68.3716 52.0641 68.3123C52.1557 68.1722 52.2743 68.0429 52.4197 67.9244C52.4628 67.8867 52.5113 67.8517 52.5652 67.8193C52.6191 67.7816 52.6783 67.7466 52.743 67.7143C52.7591 67.7143 52.7807 67.7062 52.8076 67.69C52.8507 67.6739 52.8938 67.6766 52.9369 67.6981C52.9854 67.7197 53.0231 67.7439 53.0501 67.7709L53.0824 67.8517C53.0986 67.981 53.0662 68.086 52.9854 68.1668C52.9262 68.2369 52.8615 68.3042 52.7915 68.3689C52.7268 68.4335 52.6568 68.4955 52.5813 68.5547C52.5706 68.5655 52.5544 68.5763 52.5329 68.5871C52.5167 68.5978 52.5032 68.6086 52.4925 68.6194C52.4763 68.6356 52.4547 68.6463 52.4278 68.6517C52.4062 68.6517 52.382 68.6544 52.3551 68.6598C52.312 68.6867 52.2743 68.6787 52.2419 68.6356L52.2096 68.6113H52.1934C52.1881 68.6113 52.1854 68.614 52.1854 68.6194C52.1584 68.6571 52.1423 68.7002 52.1369 68.7487C52.1369 68.7972 52.1369 68.8403 52.1369 68.878C52.1423 68.9049 52.1611 68.9346 52.1934 68.9669C52.215 68.9938 52.2392 69.0127 52.2662 69.0235C52.2985 69.0342 52.3281 69.0396 52.3551 69.0396C52.3766 69.045 52.4062 69.0477 52.444 69.0477C52.4871 69.0423 52.5329 69.0396 52.5813 69.0396C52.6352 69.0396 52.6891 69.0288 52.743 69.0073C52.9423 68.9588 53.1228 68.8995 53.2844 68.8295C53.446 68.7595 53.6104 68.6867 53.7774 68.6113C53.8636 68.5682 53.9417 68.5278 54.0117 68.4901C54.0872 68.447 54.1626 68.4066 54.238 68.3689C54.2865 68.3419 54.3161 68.3258 54.3269 68.3204C54.3377 68.3096 54.37 68.2854 54.4239 68.2477C54.4508 68.2207 54.4643 68.2099 54.4643 68.2153C54.4697 68.2153 54.4939 68.2072 54.537 68.1911C54.5478 68.1803 54.5505 68.1803 54.5451 68.1911C54.5451 68.1965 54.5478 68.2072 54.5532 68.2234C54.5586 68.245 54.564 68.2719 54.5694 68.3042C54.5801 68.3312 54.5747 68.3527 54.5532 68.3689C54.5155 68.4066 54.4993 68.4281 54.5047 68.4335C54.5101 68.4335 54.4939 68.4497 54.4562 68.482C54.3754 68.5413 54.2946 68.5925 54.2138 68.6356C54.133 68.6787 54.0494 68.7271 53.9632 68.781C53.904 68.808 53.8474 68.8349 53.7935 68.8618C53.7451 68.8888 53.6966 68.913 53.6481 68.9346C53.5403 68.9777 53.4299 69.0235 53.3167 69.0719C53.209 69.115 53.0959 69.1501 52.9773 69.177L52.743 69.2417C52.6837 69.2578 52.6379 69.2686 52.6056 69.274C52.5733 69.274 52.5248 69.274 52.4601 69.274ZM52.3551 68.4093C52.4467 68.3554 52.5329 68.2908 52.6137 68.2153C52.6945 68.1399 52.7726 68.0564 52.848 67.9648C52.8426 67.9648 52.8373 67.9675 52.8319 67.9729C52.8265 67.9729 52.8211 67.9729 52.8157 67.9729C52.7133 68.016 52.6244 68.0672 52.549 68.1264C52.479 68.1857 52.4224 68.2611 52.3793 68.3527C52.3739 68.3527 52.3658 68.3716 52.3551 68.4093Z" fill="white"/>
<path d="M55.7682 67.9082C55.7628 67.9028 55.7547 67.9028 55.7439 67.9082C55.7385 67.9082 55.7278 67.9055 55.7116 67.9002C55.6793 67.8894 55.6335 67.8921 55.5742 67.9082C55.5473 67.919 55.5176 67.9325 55.4853 67.9486C55.4584 67.9648 55.4314 67.981 55.4045 67.9971C55.356 68.0241 55.3102 68.0591 55.2671 68.1022C55.2294 68.1399 55.189 68.1776 55.1459 68.2153C55.1082 68.2423 55.0705 68.2773 55.0328 68.3204C54.9951 68.3581 54.9466 68.4147 54.8873 68.4901C54.8711 68.5224 54.8496 68.5574 54.8227 68.5951C54.8011 68.6275 54.7795 68.6598 54.758 68.6921C54.7472 68.7191 54.7338 68.7379 54.7176 68.7487C54.6853 68.8026 54.661 68.8591 54.6449 68.9184C54.6287 68.9723 54.6098 69.0288 54.5883 69.0881C54.5883 69.0989 54.5856 69.1097 54.5802 69.1204C54.5802 69.1312 54.5802 69.142 54.5802 69.1528C54.5694 69.1743 54.5506 69.1905 54.5236 69.2012C54.5021 69.212 54.4832 69.212 54.4671 69.2012C54.4078 69.1851 54.3566 69.1581 54.3135 69.1204C54.2812 69.0989 54.2731 69.0693 54.2893 69.0315C54.3001 69.0046 54.3108 68.9777 54.3216 68.9507C54.3324 68.9184 54.3459 68.8888 54.362 68.8618C54.3943 68.8026 54.4186 68.7271 54.4347 68.6356C54.4617 68.5386 54.4832 68.4416 54.4994 68.3446C54.5209 68.2423 54.5452 68.1426 54.5721 68.0456C54.5829 68.0187 54.5883 67.9917 54.5883 67.9648C54.5883 67.9379 54.591 67.9109 54.5964 67.884C54.6179 67.8032 54.6287 67.7197 54.6287 67.6335C54.6287 67.6011 54.6449 67.5796 54.6772 67.5688C54.7095 67.558 54.7365 67.5607 54.758 67.5769C54.7957 67.5931 54.8334 67.6146 54.8711 67.6416C54.9142 67.6685 54.9304 67.6981 54.9196 67.7304C54.9142 67.7897 54.9062 67.8463 54.8954 67.9002C54.89 67.954 54.8819 68.0106 54.8711 68.0699C54.8711 68.0699 54.8711 68.0752 54.8711 68.086C54.8711 68.086 54.8738 68.086 54.8792 68.086C54.9115 68.0591 54.9358 68.0402 54.952 68.0295C54.9681 68.0187 54.987 67.9998 55.0085 67.9729C55.057 67.919 55.119 67.8786 55.1944 67.8517C55.2698 67.8193 55.3425 67.7924 55.4126 67.7709C55.4718 67.7439 55.5419 67.7385 55.6227 67.7547C55.655 67.7655 55.6847 67.7762 55.7116 67.787C55.7439 67.7978 55.7736 67.8166 55.8005 67.8436C55.8059 67.849 55.8086 67.8544 55.8086 67.8597C55.8086 67.8651 55.8113 67.8732 55.8167 67.884C55.822 67.8894 55.8193 67.8948 55.8086 67.9002C55.8032 67.9055 55.7951 67.9082 55.7843 67.9082H55.7682Z" fill="white"/>
<path d="M57.1513 67.884C57.1513 67.8948 57.1486 67.9028 57.1432 67.9082C57.1432 67.9136 57.1432 67.9217 57.1432 67.9325C57.1432 67.9433 57.1378 67.9513 57.127 67.9567C57.1162 67.9621 57.1082 67.9621 57.1028 67.9567C57.0974 67.9567 57.092 67.954 57.0866 67.9486C57.0597 67.9271 57.03 67.9163 56.9977 67.9163C56.9654 67.9109 56.9304 67.9109 56.8927 67.9163C56.8119 67.9379 56.7283 67.9621 56.6421 67.989C56.5613 68.016 56.4832 68.051 56.4078 68.0941C56.3593 68.1157 56.3054 68.1507 56.2462 68.1992C56.2138 68.2261 56.2192 68.2477 56.2623 68.2638C56.2839 68.2746 56.3 68.28 56.3108 68.28C56.3431 68.2908 56.3755 68.3015 56.4078 68.3123C56.4401 68.3177 56.4751 68.3258 56.5128 68.3365C56.5613 68.3473 56.6071 68.3608 56.6502 68.377C56.6987 68.3931 56.7472 68.4093 56.7957 68.4254C56.8334 68.4416 56.863 68.4524 56.8846 68.4578C56.9061 68.4578 56.9358 68.4712 56.9735 68.4982C57.0112 68.5197 57.0435 68.5278 57.0705 68.5224C57.1567 68.5009 57.2482 68.482 57.3452 68.4658C57.3775 68.4551 57.4072 68.447 57.4341 68.4416C57.4664 68.4362 57.5015 68.4308 57.5392 68.4254C57.5553 68.4254 57.5877 68.4201 57.6361 68.4093C57.6846 68.3985 57.7358 68.3877 57.7897 68.377C57.8436 68.3608 57.8947 68.3473 57.9432 68.3365C57.9917 68.3258 58.024 68.3204 58.0402 68.3204C58.0564 68.3204 58.0725 68.3177 58.0887 68.3123C58.1049 68.3069 58.121 68.3042 58.1372 68.3042C58.1641 68.2881 58.1803 68.2854 58.1857 68.2961C58.218 68.2908 58.2611 68.2854 58.315 68.28C58.3689 68.2692 58.4012 68.2773 58.412 68.3042C58.4443 68.3312 58.4551 68.3554 58.4443 68.377C58.4335 68.3931 58.4146 68.4066 58.3877 68.4174C58.3608 68.4281 58.3284 68.4362 58.2907 68.4416C58.2584 68.447 58.2315 68.4497 58.2099 68.4497C58.1722 68.4497 58.1345 68.4551 58.0968 68.4658C58.0645 68.4766 58.0321 68.4874 57.9998 68.4982L57.5392 68.6032C57.4907 68.614 57.426 68.6329 57.3452 68.6598C57.2644 68.6813 57.2159 68.7002 57.1998 68.7164C57.1836 68.7271 57.1836 68.746 57.1998 68.7729C57.2213 68.7945 57.2348 68.8133 57.2402 68.8295C57.2509 68.8564 57.2536 68.878 57.2482 68.8942C57.2482 68.9049 57.2482 68.9211 57.2482 68.9426C57.2429 69.0019 57.2321 69.0504 57.2159 69.0881C57.2051 69.1204 57.1728 69.1662 57.1189 69.2255C57.0705 69.2848 57.0166 69.3359 56.9573 69.379C56.9034 69.4221 56.8469 69.4652 56.7876 69.5083C56.723 69.5514 56.6556 69.5918 56.5856 69.6296C56.5209 69.6619 56.4536 69.6915 56.3835 69.7185C56.3728 69.7292 56.362 69.7346 56.3512 69.7346C56.292 69.7454 56.2354 69.7589 56.1815 69.775C56.133 69.7912 56.0818 69.7993 56.028 69.7993C56.0118 69.7993 55.9983 69.802 55.9876 69.8073C55.9768 69.8127 55.966 69.8154 55.9552 69.8154C55.9121 69.8208 55.869 69.8208 55.8259 69.8154C55.7828 69.8047 55.7424 69.7858 55.7047 69.7589C55.6778 69.7427 55.6589 69.7265 55.6481 69.7104C55.632 69.6888 55.6185 69.6646 55.6077 69.6376L55.5835 69.5164C55.5835 69.5003 55.5889 69.4868 55.5997 69.476C55.6266 69.3952 55.6643 69.3305 55.7128 69.2821C55.7721 69.2282 55.8313 69.1797 55.8906 69.1366C55.9445 69.0881 56.0037 69.045 56.0684 69.0073C56.1007 68.9911 56.1303 68.9723 56.1573 68.9507C56.1842 68.9292 56.2165 68.913 56.2542 68.9022C56.265 68.8969 56.2731 68.8942 56.2785 68.8942C56.2839 68.8942 56.2893 68.8915 56.2946 68.8861C56.3701 68.843 56.4455 68.8026 56.5209 68.7649C56.6017 68.7271 56.6799 68.6948 56.7553 68.6679C56.7661 68.6679 56.7714 68.6625 56.7714 68.6517C56.7661 68.6463 56.7634 68.649 56.7634 68.6598C56.7634 68.6652 56.7607 68.6652 56.7553 68.6598C56.7068 68.6436 56.6556 68.6275 56.6017 68.6113C56.5532 68.5898 56.5048 68.5736 56.4563 68.5628L56.3027 68.5224C56.265 68.517 56.2273 68.5036 56.1896 68.482C56.0818 68.4443 56.0226 68.3608 56.0118 68.2315C55.9956 68.1453 56.0199 68.0726 56.0845 68.0133C56.1007 67.9971 56.1169 67.9837 56.133 67.9729C56.1492 67.9567 56.1653 67.9433 56.1815 67.9325C56.2408 67.8894 56.3027 67.8544 56.3674 67.8274C56.4374 67.7951 56.5048 67.7655 56.5694 67.7385C56.6933 67.6954 56.8038 67.6658 56.9007 67.6496C56.9115 67.6496 56.9223 67.6496 56.9331 67.6496C56.9492 67.6442 56.9627 67.6416 56.9735 67.6416C57.0327 67.6308 57.0758 67.6523 57.1028 67.7062C57.1028 67.7116 57.1082 67.7251 57.1189 67.7466C57.1567 67.7897 57.1674 67.8355 57.1513 67.884ZM55.8744 69.6053C55.9014 69.6053 55.9283 69.6026 55.9552 69.5972C55.9822 69.5918 56.0091 69.5865 56.036 69.5811C56.1384 69.5595 56.2515 69.5218 56.3755 69.4679C56.4024 69.4518 56.4293 69.4356 56.4563 69.4194C56.4832 69.4033 56.5101 69.3898 56.5371 69.379L56.5937 69.3386L56.7957 69.2012C56.8765 69.142 56.9519 69.0693 57.022 68.9831C57.0327 68.9723 57.0381 68.9588 57.0381 68.9426C57.0381 68.9211 57.0408 68.9049 57.0462 68.8942C57.057 68.8834 57.057 68.8807 57.0462 68.8861C57.0408 68.8915 57.0435 68.8888 57.0543 68.878C57.0543 68.8672 57.0462 68.8484 57.03 68.8214C57.0139 68.7945 57.0004 68.7837 56.9896 68.7891C56.9196 68.816 56.8549 68.8457 56.7957 68.878C56.7364 68.9103 56.6718 68.9426 56.6017 68.975C56.5748 68.9857 56.5479 69.0019 56.5209 69.0235C56.4994 69.0396 56.4751 69.0531 56.4482 69.0639L56.3997 69.0881L56.23 69.1851C56.2192 69.1959 56.2058 69.2039 56.1896 69.2093C56.1734 69.2147 56.16 69.2228 56.1492 69.2336C56.1169 69.2605 56.0818 69.2874 56.0441 69.3144C56.0118 69.3359 55.9795 69.3602 55.9472 69.3871C55.8825 69.4356 55.8286 69.4976 55.7855 69.573L55.7936 69.5891C55.8367 69.5999 55.8636 69.6053 55.8744 69.6053Z" fill="white"/>
</svg>
