<svg width="309" height="164" viewBox="0 0 309 164" fill="none" xmlns="http://www.w3.org/2000/svg">
<path d="M48.5952 100.291C48.5952 100.291 50.2895 103.959 50.198 104.958C50.1065 105.958 48.5952 109.141 48.5952 109.141L46.7673 100.717L48.5952 100.291Z" fill="#FFB27D"/>
<path d="M47.2635 84.5237L48.5953 100.291L46.7656 100.717L41.9398 86.4186L47.2635 84.5237Z" fill="#FFB27D"/>
<path d="M7.92471 33.8804L26.0986 23.1316L38.5829 31.8974L21.2886 41.9993L7.92471 33.8804Z" fill="#233862"/>
<path d="M17.2616 38.8335C17.2616 38.8335 16.7971 41.481 14.2549 42.8453C11.7126 44.2096 9.53456 44.6098 10.08 49.0023C10.6254 53.3949 7.6292 54.3961 7.08381 57.3045C6.53841 60.2147 6.60703 65.5327 13.8907 63.9427C21.1761 62.3528 37.8581 63.488 39.672 61.1242C41.4841 58.7605 40.2138 53.8497 37.128 50.1199C34.0421 46.3918 38.1255 43.9523 36.6741 40.6702C35.2226 37.3881 32.4358 34.0108 32.4358 34.0108C32.4358 34.0108 20.4477 31.7299 17.2598 38.8335H17.2616Z" fill="#132644"/>
<path d="M20.7028 159.778L23.1606 170.149L26.8429 170.128L26.9784 159.778H20.7028Z" fill="#FFB27D"/>
<path d="M51.676 160.218L58.6693 170.149L61.3963 166.643L57.1862 158.854L51.676 160.218Z" fill="#FFB27D"/>
<path d="M30.3738 55.2403C30.3985 55.2509 29.9235 66.7894 27.9495 66.8088C27.536 66.8123 24.4836 58.7304 24.0948 58.6247C21.9836 58.0483 21.6863 52.8731 21.7162 52.866C22.6099 52.688 22.8685 51.4576 22.8492 46.1678L23.2538 46.2472L30.0484 47.5956C30.0484 47.5956 29.8936 49.739 29.89 51.7573C29.8848 53.4512 29.9886 55.0588 30.3756 55.2403H30.3738Z" fill="#FFB27D"/>
<path d="M2.92645 43.6649L2.70477 43.1995C7.6485 40.8429 7.91416 35.271 7.90713 33.9843C7.90713 33.8186 8.00389 33.6705 8.15344 33.6036C8.30474 33.5366 8.47364 33.6476 8.47364 33.8133C8.46308 35.3116 8.0813 41.2077 2.92469 43.6667L2.92645 43.6649Z" fill="#EFCBAB"/>
<path d="M2.70479 43.1996L2.01514 43.3089L2.41099 44.1056L2.92647 43.6649L2.70479 43.1996Z" fill="#D8A987"/>
<path d="M2.01509 43.3088C2.01509 43.3088 1.10375 43.7248 0.860962 43.4904C0.860962 43.4904 0.966526 44.2995 1.33775 44.4599C1.33775 44.4599 2.10657 44.3647 2.41094 44.1056L2.01509 43.3088Z" fill="#EFCBAB"/>
<path d="M30.0484 47.5957C30.0484 47.5957 29.8936 49.7391 29.8901 51.7574C26.0881 51.6499 24.0772 48.1739 23.2538 46.249L30.0484 47.5975V47.5957Z" fill="#EF9E67"/>
<path d="M21.8552 46.4871C21.8552 46.4871 19.2795 43.7885 18.2785 41.2396C17.5642 39.4188 17.1156 32.2288 24.3376 31.8181C24.3376 31.8181 26.4172 31.6084 28.5935 32.5179C30.3246 33.2406 32.9724 35.0227 31.7409 41.6257L31.5175 43.8167L21.8552 46.4853V46.4871Z" fill="#132644"/>
<path d="M60.74 164.375C60.74 164.375 58.9331 164.687 57.4518 164.8C57.1228 164.824 56.8096 164.84 56.5369 164.84C55.8227 164.84 54.5366 164.57 53.6727 164.369L53.6076 164.355C53.2276 164.265 52.9391 164.191 52.8318 164.163L52.786 164.151C52.786 164.151 43.78 154.105 38.729 138.002C38.6111 137.626 38.4862 137.247 38.356 136.865C35.5903 128.788 29.8584 118.651 26.8394 109.473C26.3591 108.011 25.9263 106.635 25.541 105.334C25.4161 104.918 25.2964 104.507 25.1803 104.105C22.9548 96.3567 22.3108 91.2696 21.7162 85.8335L39.876 90.4623C39.876 90.4623 47.4992 123.576 60.7418 164.373L60.74 164.375Z" fill="#A53D38"/>
<path d="M31.2377 48.6727C31.2377 48.6727 22.4481 50.5993 21.3344 45.0962C20.2208 39.5932 18.3365 36.1366 23.9013 34.6735C29.4661 33.2105 30.9844 35.0878 31.8025 36.8346C32.6206 38.5814 33.495 48.0293 31.2377 48.6727Z" fill="#FFB27D"/>
<path d="M27.8915 33.7287C27.8915 33.7287 26.7761 40.6737 23.2627 42.3764C19.7493 44.0791 17.9407 43.4093 17.9407 43.4093C17.9407 43.4093 20.3281 40.5732 20.124 36.5049C20.124 36.5049 25.4513 31.023 27.8915 33.7287Z" fill="#132644"/>
<path d="M27.3989 34.374C27.3989 34.374 29.4925 35.451 30.2138 36.7642C30.9351 38.0774 32.4358 38.5427 32.5326 40.6544C32.5326 40.6544 33.4686 35.8987 30.9246 33.8276C28.2275 31.633 27.3971 34.3722 27.3971 34.3722L27.3989 34.374Z" fill="#132644"/>
<path d="M57.4518 164.799C57.1228 164.824 56.8096 164.84 56.5369 164.84C55.8226 164.84 54.5366 164.57 53.6727 164.369L53.6076 164.355L52.8318 164.163L52.786 164.151C52.786 164.151 43.78 154.105 38.7289 138.002C38.6111 137.626 38.4861 137.247 38.356 136.865C35.5903 128.788 29.8584 118.651 26.8393 109.473C26.3591 108.011 25.9263 106.635 25.541 105.334C25.4161 104.918 25.2964 104.507 25.1803 104.105L28.3911 101.662C28.3911 101.662 38.034 117.306 41.0196 132.028C43.495 144.231 54.1477 160.051 57.4535 164.799H57.4518Z" fill="#912F2F"/>
<path d="M28.7271 133.401C28.7816 140.559 28.4192 157.019 27.4903 163.833C27.4903 163.833 26.6071 164.616 24.4185 164.625C22.1771 164.634 21.176 163.805 21.176 163.805C18.8414 151.958 17.1806 142.154 15.9701 133.706C14.9779 126.773 14.0965 120.83 13.4191 115.714C12.8174 111.181 16.6158 98.9036 16.6158 98.9036L30.87 97.5111C30.6324 110.056 28.6972 129.239 28.7271 133.401Z" fill="#A53D38"/>
<path d="M24.4185 164.625C22.5114 164.736 21.176 163.805 21.176 163.805C18.8414 151.958 17.1806 142.154 15.9701 133.706C14.9779 126.773 14.0965 120.83 13.4191 115.714C12.8174 111.181 16.6158 98.9037 16.6158 98.9037L21.447 102.001C21.447 102.001 14.5926 108.248 16.2763 120.058C17.9582 131.867 22.0733 162.954 24.4167 164.625H24.4185Z" fill="#912F2F"/>
<path d="M46.8694 89.015C45.9791 89.3147 44.9746 89.4909 43.9823 89.6355C42.4024 89.8664 40.8595 90.0162 39.8743 90.4622C36.9626 91.7859 29.8988 52.7128 29.8988 52.7128C29.8988 52.7128 35.0396 52.7621 37.4006 56.4884C39.7599 60.2147 48.9454 78.6241 49.7617 84.5237C50.1277 87.1766 48.7554 88.3769 46.8694 89.015Z" fill="#1C468A"/>
<path d="M57.4518 141.712C57.4518 141.712 56.9803 142.895 55.6837 144.553C55.0398 145.38 54.19 146.323 53.0939 147.298C50.2051 149.859 45.6027 152.63 38.4932 154.005C38.115 154.077 37.7332 154.146 37.3408 154.213C35.198 154.567 33.1396 154.823 31.1797 154.995C27.193 155.346 23.6075 155.364 20.5603 155.223C18.472 155.126 16.637 154.953 15.0958 154.761C11.6141 154.326 9.62781 153.79 9.62781 153.79C9.62781 153.79 9.62781 118.48 12.5325 97.5111C14.1405 85.9004 19.5346 52.8732 19.5346 52.8732L22.2158 52.4607L28.6444 66.8089L29.9024 52.7128L32.8246 53.6523C34.2602 54.1141 35.3563 55.2863 35.7258 56.7493L57.4536 141.71L57.4518 141.712Z" fill="#1C468A"/>
<path d="M36.7302 87.4744L21.8146 85.9585L24.2319 64.3076L39.1475 65.8218L36.7302 87.4744Z" fill="#BC3F3F"/>
<path d="M24.232 64.3077L23.2767 64.2355L21.0283 85.8688L21.8147 85.9587L24.232 64.3077Z" fill="#9B2323"/>
<path d="M11.7213 75.4654C11.7213 75.4654 22.1929 78.6717 32.2018 80.1047C32.2018 80.1047 35.504 81.536 33.9541 81.9273C33.5565 82.0278 13.5141 86.4063 10.5426 83.5649L11.7213 75.4636V75.4654Z" fill="#FFB27D"/>
<path d="M22.1876 52.4607C22.1876 52.4607 14.3533 53.4108 13.0338 54.9954C8.86596 60.0067 5.08691 81.4056 8.354 86.3463C12.258 92.2478 18.2696 82.9867 20.1538 77.5294C21.132 74.7003 22.7242 57.6059 22.1876 52.4607Z" fill="#1C468A"/>
<path d="M31.2166 79.9584C31.2166 79.9584 32.4482 79.8438 32.6804 79.449C33.1466 78.6611 33.8855 78.6716 34.5013 78.5676C35.1171 78.4636 35.8085 77.7885 35.9299 77.9243C36.0513 78.06 35.476 78.8038 35.154 79.0823C35.154 79.0823 35.8138 79.1229 36.2518 78.9131C36.6882 78.7051 38.2241 76.9495 38.2311 77.7057C38.2487 79.5248 38.1079 79.8156 36.5527 81.1006C35.2754 82.1564 30.9422 82.5495 30.9422 82.5495L31.2166 79.9584Z" fill="#FFB27D"/>
<path d="M22.1666 74.9929L21.8623 78.067C21.3785 77.963 20.8137 77.7921 20.1557 77.5294C15.8594 75.8073 17.5537 67.2495 17.5537 67.2495C18.224 70.6726 20.3774 73.3166 22.1666 74.9947V74.9929Z" fill="#233862"/>
<path d="M32.4357 34.0124C32.4357 34.0124 26.0828 31.5958 17.2597 38.8351L17.4409 37.1817C17.6028 35.7028 18.3628 34.3526 19.5539 33.4677C20.898 32.4683 23.0409 31.3684 26.2605 30.9119C28.4719 30.5999 30.6746 31.5447 31.973 33.3673L32.434 34.0142L32.4357 34.0124Z" fill="#1C468A"/>
<path d="M46.8694 89.015C45.9792 89.3147 44.9746 89.4909 43.9823 89.6355L39.8602 71.4094C39.8602 71.4094 46.7973 85.4192 46.8694 89.015Z" fill="#233862"/>
<path d="M28.0902 45.6481C28.0902 45.6481 28.4966 46.4308 29.0895 46.4361C29.6842 46.4396 31.2007 46.288 31.3098 46.1487C31.4189 46.0095 31.7074 45.1793 31.7074 45.1793C31.7074 45.1793 29.2127 45.1334 28.0884 45.6481H28.0902Z" fill="white"/>
<path d="M232.492 68.8253C232.492 68.8253 231.834 67.8981 231.084 67.3182C230.333 66.7383 229.543 65.6507 229.775 65.2982C230.007 64.9457 232.261 63.287 232.261 63.287L233.461 66.2641L232.492 68.8253Z" fill="#FFB27D"/>
<path d="M251.936 34.0972L271.556 26.3062L282.531 36.9086L263.88 44.1973L251.936 34.0972Z" fill="#233862"/>
<path d="M241.232 76.0963L233.42 66.0455L232.492 68.8235C232.492 68.8235 240.493 87.0531 244.156 85.3574C245.864 84.5659 241.232 76.0945 241.232 76.0945V76.0963Z" fill="#FFB27D"/>
<path d="M265.648 43.3177C265.648 43.3177 261.837 45.5669 264.176 49.926C264.176 49.926 260.838 49.3144 260.118 48.3167C260.118 48.3167 260.203 48.7327 260.326 48.9424C260.326 48.9424 256.417 48.4454 255.696 46.9841C254.209 43.9735 257.816 44.1621 259.374 41.0368C261.41 36.9527 264.607 33.7447 269.123 35.9974C269.123 35.9974 275.441 35.6519 272.583 43.7637C269.728 51.8755 272.427 52.5912 272.427 52.5912C272.427 52.5912 271.579 52.7621 271.216 52.667C271.216 52.667 270.74 52.3232 270.713 52.0024C270.713 52.0024 270.696 52.4907 270.792 52.674C270.792 52.674 267.805 52.1769 266.642 50.6892C265.479 49.2015 264.781 44.92 265.648 43.3195V43.3177Z" fill="#C94C43"/>
<path d="M260.146 56.3756C260.146 56.3756 260.137 56.3793 260.131 56.3811C260.108 56.3774 260.111 56.3756 260.146 56.3756Z" fill="#FFB27D"/>
<path d="M269.41 53.7034C269.522 54.7099 269.656 55.6106 269.714 56.0407C269.756 56.3492 270.451 61.8346 269.179 61.8892C267.907 61.9439 264.763 68.4446 263.347 68.3917C261.76 68.3318 260.354 56.3756 260.145 56.3756C260.55 56.1993 261.788 52.2668 262.179 50.7668C262.654 48.9477 263.027 46.9823 263.027 46.9823L269.468 47.3895L269.851 47.4142C269.614 48.2937 269.445 49.124 269.327 49.896C269.311 50 269.297 50.1058 269.283 50.2062C269.165 51.0629 269.269 52.4625 269.408 53.7034H269.41Z" fill="#FFB27D"/>
<path d="M262.14 46.3319C262.14 46.3319 261.097 43.0145 261.308 40.4692C261.459 38.6537 264.348 33.5014 270.553 36.1384C270.553 36.1384 272.07 35.7752 273.514 37.4339C274.665 38.7524 276.144 41.3347 272.402 46.346L271.315 48.0858L262.14 46.3301V46.3319Z" fill="#C94C43"/>
<path d="M269.41 53.7034C264.904 52.3814 262.991 47.1674 262.991 47.1674C264.897 47.2238 267.379 48.5493 269.327 49.896C269.311 50 269.297 50.1057 269.283 50.2062C269.165 51.0629 269.269 52.4624 269.408 53.7034H269.41Z" fill="#ED975D"/>
<path d="M269.728 51.872C269.728 51.872 261.587 49.8555 262.919 44.7967C264.249 39.7378 264.096 36.0697 269.35 37.1431C274.603 38.2166 275.101 40.4129 275.067 42.2091C275.032 44.0052 271.881 52.2651 269.73 51.872H269.728Z" fill="#FFB27D"/>
<path d="M273.072 37.9979C273.072 37.9979 269.285 43.3441 265.648 43.3176C262.012 43.2912 260.775 41.9851 260.775 41.9851C260.775 41.9851 263.936 40.5996 265.437 37.113C265.437 37.113 272.144 34.7281 273.071 37.9961L273.072 37.9979Z" fill="#C94C43"/>
<path d="M272.395 38.3347C272.395 38.3347 273.702 40.0991 273.766 41.4934C273.829 42.8877 273.31 45.5881 274.105 45.7027C274.105 45.7027 276.843 42.1121 275.567 39.3324C274.214 36.3852 272.395 38.3329 272.395 38.3329V38.3347Z" fill="#C94C43"/>
<path d="M272.65 38.6167C272.65 38.6167 269.427 44.4106 264.605 45.2619C264.605 45.2619 269.911 42.5845 271.359 38.5779C272.807 34.5731 272.65 38.6167 272.65 38.6167Z" fill="#C94C43"/>
<path d="M268.458 48.6287C268.458 48.6287 268.56 49.399 269.049 49.5805C269.54 49.7621 270.842 50.0935 270.974 50.0106C271.106 49.9278 271.593 49.3285 271.593 49.3285C271.593 49.3285 269.542 48.5406 268.458 48.6287Z" fill="white"/>
<path d="M265.419 126.022C265.315 126.456 265.212 126.883 265.11 127.307C264.496 129.861 263.924 132.23 263.563 134.215C263.097 136.794 262.984 138.715 263.6 139.521C265.185 141.603 264.782 152.737 264.26 160.756C263.952 165.527 263.6 169.194 263.6 169.194L260.724 172.162C260.724 172.162 259.812 167.426 258.663 161.678C257.119 153.954 255.143 144.405 254.367 142.068C253.75 140.214 252.851 132.299 252.057 124.217C252.018 123.814 251.978 123.41 251.939 123.005C251.802 121.591 251.67 120.184 251.543 118.809C250.831 111.165 251.862 103.968 251.862 103.968C251.862 103.968 255.604 100.881 260.423 100.465C263.262 100.219 265.933 101.123 267.253 104.62C269.174 109.705 267.226 118.485 265.421 126.022H265.419Z" fill="#FFB27D"/>
<path d="M265.418 126.022C261.475 123.17 255.93 118.096 253.917 109.776C253.532 105.639 256.788 101.71 260.421 100.467C263.261 100.219 265.931 101.125 267.251 104.62C269.172 109.705 267.226 118.487 265.418 126.022Z" fill="#ED975D"/>
<path d="M279.793 75.7703L299.165 80.7833V83.0501C299.165 83.0501 279.888 82.8227 278.644 80.6723C277.4 78.52 279.793 75.7703 279.793 75.7703Z" fill="#FFB27D"/>
<path d="M299.163 150.467L298.257 154.213C298.257 154.213 294.255 152.142 289.176 149.464C281.26 145.288 270.729 139.635 268.664 138.049C267.304 137.002 265.504 131.321 263.838 124.894C261.355 115.312 259.168 104.075 259.168 104.075C259.168 104.075 262.842 89.921 272.675 98.5845C278.558 103.769 277.645 113.759 276.999 121.529C276.57 126.741 276.262 130.956 278.213 132.047C281.014 133.614 287.805 139.339 292.605 144.943C294.325 146.952 295.791 148.946 296.723 150.726L299.16 150.469L299.163 150.467Z" fill="#FFB27D"/>
<path d="M299.163 80.7834C299.163 80.7834 302.717 79.0295 304.13 78.8603C305.543 78.6911 307.916 78.6329 307.916 78.8603C307.916 79.0877 305.372 80.6688 304.695 80.7834C304.017 80.898 302.717 81.8604 303.113 81.9732C303.509 82.086 305.599 81.6048 305.627 81.9732C305.655 82.3416 304.355 82.5672 304.13 82.851C303.903 83.1348 303.113 83.4733 301.841 83.304C300.569 83.1348 299.163 83.0484 299.163 83.0484V80.7817V80.7834Z" fill="#FFB27D"/>
<path d="M299.163 134.143C286.655 152.189 254.383 154.211 254.383 154.211C249.142 135.051 251.29 86.6054 252.49 68.598C252.416 65.4533 252.538 62.7935 253.053 61.7711C253.855 60.1759 258.218 57.4103 259.784 56.0371C259.784 56.0371 260.148 55.8891 260.46 55.8644C260.696 56.6893 263.602 66.5762 263.891 66.3699C264.176 66.1672 269.082 56.7722 269.6 55.6635C270.126 55.6793 270.486 55.6917 270.592 55.6969C271.456 55.7375 276.123 56.6752 276.516 57.4297C276.653 57.6923 277.992 61.2511 279.675 65.961C279.675 65.961 279.675 65.9645 279.675 65.9733C282.832 74.8096 287.46 73.1509 289.299 75.7685C290.455 77.4113 289.957 80.4801 287.814 83.1294C287.633 83.3551 287.439 83.5772 287.233 83.7922C285.602 85.5214 283.391 86.5437 279.791 86.0132C278.896 85.881 277.084 85.0137 275.608 83.734C279.149 97.0651 299.163 134.141 299.163 134.141V134.143Z" fill="#1C468A"/>
<path d="M260.675 55.4063L258.98 56.3758C258.98 56.3758 263.604 69.4795 263.833 69.4231C264.061 69.3667 271.007 55.7447 271.007 55.7447L269.591 55.1525L263.891 66.3719L260.675 55.4045V55.4063Z" fill="#F99746"/>
<path d="M275.092 38.5092C275.092 38.5092 269.165 35.1795 259.372 41.0351L259.795 39.4258C260.171 37.9875 261.123 36.7642 262.432 36.0644C263.91 35.2747 266.19 34.5027 269.441 34.5291C271.676 34.5467 273.715 35.8088 274.73 37.8024L275.09 38.511L275.092 38.5092Z" fill="#1C468A"/>
<path d="M245.555 42.7801L245.409 42.2865C250.659 40.7266 251.784 35.264 251.976 33.9914C252.001 33.8275 252.121 33.6953 252.279 33.653C252.439 33.6106 252.589 33.7464 252.562 33.9103C252.319 35.3874 251.03 41.1531 245.555 42.7801Z" fill="#EFCBAB"/>
<path d="M245.409 42.2847H244.71L244.978 43.1343L245.555 42.78L245.409 42.2847Z" fill="#D8A987"/>
<path d="M244.71 42.2847C244.71 42.2847 243.746 42.5526 243.542 42.2847C243.542 42.2847 243.521 43.1008 243.864 43.3158C243.864 43.3158 244.638 43.3423 244.979 43.1325L244.712 42.2847H244.71Z" fill="#EFCBAB"/>
<path d="M261.021 56.5854C261.021 56.5854 262.569 59.4375 268.734 56.8393L263.89 66.3718L261.021 56.5854Z" fill="white"/>
<path d="M258.98 56.3757C258.98 56.3757 258.176 83.505 251.498 88.7613C251.028 89.1332 250.527 89.3958 249.995 89.5316C246.621 90.3953 244.17 88.3805 242.511 85.5902C240.205 81.7141 239.423 76.3397 239.816 75.1023C240.56 72.7439 242.275 76.9143 245.878 75.7686C249.482 74.6246 250.453 60.0843 252.969 57.9638C253.625 57.4121 258.98 56.3739 258.98 56.3739V56.3757Z" fill="#1C468A"/>
<path d="M226.392 75.6804C226.392 75.6804 225.386 75.1375 224.427 74.4359C223.987 74.1098 223.558 73.7555 223.239 73.403C223.06 73.202 222.916 73.0064 222.828 72.816C222.828 72.816 230.982 62.9838 231.63 61.8275C232.277 60.6712 238.429 51.1316 238.429 51.1316C238.429 51.1316 239.182 51.4859 240.087 52.0729C240.421 52.2914 240.78 52.5435 241.125 52.8202C241.763 53.3332 242.363 53.9378 242.727 54.5864C242.727 54.5864 233.771 63.6801 233.139 64.9915C232.506 66.3047 226.39 75.6804 226.39 75.6804H226.392Z" fill="#EFCBAB"/>
<path d="M224.427 74.4359C223.987 74.1098 223.558 73.7555 223.239 73.403C223.06 73.202 222.916 73.0064 222.828 72.816C222.828 72.816 230.982 62.9838 231.63 61.8275C232.277 60.6712 238.429 51.1316 238.429 51.1316C238.429 51.1316 239.182 51.4859 240.087 52.0729C240.421 52.2914 240.78 52.5435 241.125 52.8202C238.611 55.392 231.823 62.4004 231.242 63.6025C230.679 64.7712 226.258 71.6156 224.427 74.4359Z" fill="#DDB08E"/>
<path d="M232.814 59.9062C232.814 59.9062 230.409 62.2436 230.132 63.8388L232.646 65.8606C232.646 65.8606 234.847 63.7013 235.544 62.1043L232.812 59.908L232.814 59.9062Z" fill="#C94C43"/>
<path d="M233.421 66.0474C233.421 66.0474 233.593 64.461 233.229 63.9022C232.865 63.3435 232.831 61.8046 232.492 61.9686C232.152 62.1325 232.37 63.3928 232.156 64.0009C231.941 64.6108 231.626 67.4417 232.492 67.9811C233.357 68.5204 233.421 66.0456 233.421 66.0456V66.0474Z" fill="#FFB27D"/>
<path d="M230.982 62.0656C230.982 62.0656 229.981 61.9105 229.617 62.5768C229.253 63.243 228.799 64.3253 229.488 64.7537C230.178 65.182 230.982 62.0656 230.982 62.0656Z" fill="#FFB27D"/>
<path d="M264.26 160.756C263.952 165.527 263.6 169.194 263.6 169.194L260.724 172.162C260.724 172.162 259.812 167.426 258.663 161.678C258.663 161.678 261.888 162.802 264.26 160.754V160.756Z" fill="white"/>
<path d="M299.163 150.467L298.257 154.213C298.257 154.213 294.255 152.142 289.176 149.464C291.151 148.209 292.128 146.348 292.606 144.943C294.327 146.952 295.793 148.946 296.725 150.726L299.162 150.469L299.163 150.467Z" fill="white"/>
<path d="M304.343 151.92C304.343 151.92 304.334 151.92 304.32 151.914C304.202 151.884 303.664 151.706 303.307 150.848C303.071 150.282 303.001 149.818 302.784 149.258L301.899 147.728C300.974 146.506 300.648 146.794 300.648 146.794C300.648 146.794 300.405 147.104 300.048 147.515C299.457 148.191 298.553 149.135 297.913 149.376C297.457 149.547 297.172 149.831 296.998 150.093C296.774 150.425 296.725 150.723 296.725 150.723C296.725 150.723 298.625 151.054 298.46 151.992C298.138 153.807 298.213 154.137 298.247 154.197L298.257 154.209C298.257 154.209 301.498 155.908 302.534 156.242C304.378 156.834 305.342 158.089 305.939 158.664C306.181 158.896 306.516 159.002 306.846 158.949C307.332 158.872 307.964 158.716 308.101 158.417L304.343 151.916V151.92Z" fill="#233862"/>
<path d="M262.611 74.7444C262.611 74.2262 263.03 73.8066 263.547 73.8066C264.065 73.8066 264.483 74.2262 264.483 74.7444C264.483 75.2626 264.065 75.6821 263.547 75.6821C263.03 75.6821 262.611 75.2626 262.611 74.7444Z" fill="#233862"/>
<path d="M262.611 81.7035C262.611 81.1853 263.03 80.7657 263.547 80.7657C264.065 80.7657 264.483 81.1853 264.483 81.7035C264.483 82.2217 264.065 82.6412 263.547 82.6412C263.03 82.6412 262.611 82.2217 262.611 81.7035Z" fill="#233862"/>
<path d="M287.814 83.1312C287.633 83.3569 287.439 83.579 287.233 83.794C285.602 85.5232 283.391 86.5455 279.791 86.015C278.896 85.8828 277.084 85.0155 275.608 83.7358C275.608 83.7358 272.638 75.6099 273.037 74.4642C273.438 73.3202 279.156 82.227 283.903 82.6412C285.757 82.8051 287.015 82.955 287.812 83.1312H287.814Z" fill="#233862"/>
<path d="M252.912 76.8137L251.499 88.7611C251.03 89.1331 250.528 89.3957 249.997 89.5314C246.623 90.3951 244.172 88.3804 242.513 85.5901C244.242 85.8298 248.436 86.2053 249.351 84.3756C250.511 82.0559 252.912 76.8137 252.912 76.8137Z" fill="#233862"/>
<path d="M171.011 11.7358C171.011 11.7358 172.693 10.2164 173.103 9.15173C173.513 8.08708 173.466 6.29796 173.466 5.13812C173.466 5.13812 172.959 4.96009 172.834 5.51357C172.711 6.06705 172.484 7.34676 172.018 7.60411C171.552 7.86146 170.506 7.83149 170.264 9.15173C170.023 10.472 171.011 11.7358 171.011 11.7358Z" fill="#B56F40"/>
<path d="M167.166 11.9933C167.166 11.9933 165.637 8.85749 165.946 7.8369C166.254 6.81631 170.954 5.69701 171.571 6.17822C172.19 6.65943 171.571 12.5186 171.571 12.5186L167.166 11.9933Z" fill="#B56F40"/>
<path d="M216.589 106.452C216.589 106.452 216.364 109.039 217.263 110.278C218.162 111.516 218.649 112.642 218.948 112.078C219.247 111.516 218.461 109.564 218.723 109.601C218.985 109.638 219.712 111.928 220.079 112.64C220.445 113.352 221.232 114.479 221.756 113.916C222.28 113.354 221.269 108.027 220.857 107.352C220.445 106.677 219.583 105.177 219.583 105.177L216.587 106.453L216.589 106.452Z" fill="#B56F40"/>
<path d="M184.295 28.4266L202.171 18.3529L214.184 33.2634L197.815 41.2201L184.295 28.4266Z" fill="#233862"/>
<path d="M191.802 33.1772C191.802 33.1772 191.427 34.7847 190.38 35.3558C189.333 35.9269 190.98 37.4728 190.566 38.6132C190.155 39.7537 191.817 41.2202 191.817 41.2202L203.364 42.5528C203.364 42.5528 205.056 41.8178 205.206 39.8295C205.355 37.8412 205.533 35.3576 205.533 35.3576L200.489 31.5009L193.225 31.8446L191.802 33.1772Z" fill="#C94C43"/>
<path d="M153.007 13.8881C153.007 13.8881 152.473 12.6331 152.1 11.2652C151.933 10.636 151.794 9.98555 151.761 9.41973C151.742 9.09892 151.754 8.80984 151.814 8.5666C151.814 8.5666 166.698 5.48544 168.158 4.89142C169.618 4.2974 182.421 0 182.421 0C182.421 0 182.859 0.891913 183.265 2.10992C183.415 2.56293 183.561 3.06529 183.677 3.57999C183.89 4.53183 184.002 5.54185 183.858 6.4179C183.858 6.4179 168.777 8.2123 167.215 8.9632C165.651 9.7141 153.005 13.8881 153.005 13.8881H153.007Z" fill="#EFCBAB"/>
<path d="M152.1 11.2652C151.933 10.636 151.794 9.98555 151.761 9.41973C151.742 9.09892 151.754 8.80984 151.814 8.5666C151.814 8.5666 166.698 5.48544 168.158 4.89142C169.618 4.2974 182.421 0 182.421 0C182.421 0 182.859 0.891913 183.265 2.10992C183.415 2.56293 183.561 3.06529 183.677 3.57999C179.43 4.10174 167.912 5.57181 166.48 6.25749C165.09 6.92731 155.895 10.0049 152.099 11.2652H152.1Z" fill="#DDB08E"/>
<path d="M170.686 3.98718C170.686 3.98718 166.713 4.37321 165.274 5.65115L166.115 9.40565C166.115 9.40565 169.766 9.03372 171.599 8.06601L170.686 3.98718Z" fill="#C94C43"/>
<path d="M193.082 42.8259C193.082 42.8259 192.102 48.0699 191.066 50.3278L185.165 53.231L193.424 69.5886L204.764 59.3316L200.998 51.9724C200.998 51.9724 200.639 44.6838 201.798 42.1861C202.957 39.6883 193.084 42.8277 193.084 42.8277L193.082 42.8259Z" fill="#B56F40"/>
<path d="M192.942 43.5503C192.942 43.5503 193.941 47.6203 196.94 47.9975C199.942 48.373 201.142 45.0926 201.142 45.0926L192.942 43.5503Z" fill="#99592E"/>
<path d="M196.826 46.466C194.668 46.0941 191.126 42.5916 191.675 39.0152L192.532 33.4328C192.732 32.1266 193.806 31.1977 194.916 31.3687L203.176 32.6413C204.286 32.8123 205.032 34.0215 204.831 35.3276L204.022 40.5927C203.447 44.3437 199.302 46.8908 196.825 46.4642L196.826 46.466Z" fill="#B56F40"/>
<path d="M174.907 94.7015C174.891 94.0493 175.757 120.648 174.483 135.749C173.227 150.663 174.492 171.413 174.492 171.413C174.492 171.413 178.577 173.669 183.005 171.413C183.005 171.413 187.861 142.604 187.831 135.749C187.797 128.448 193.118 95.8419 193.118 95.8419L174.907 94.7032V94.7015Z" fill="#F99746"/>
<path d="M205.118 171.411C205.118 171.411 201.035 173.669 196.606 171.411C196.606 171.411 191.751 142.604 191.78 135.747C191.795 132.664 190.853 125.065 189.763 117.318C188.269 106.719 186.494 95.8419 186.494 95.8419L205.412 94.6573C205.412 94.6573 203.851 120.837 205.129 135.749C206.406 150.661 205.118 171.413 205.118 171.413V171.411Z" fill="#F99746"/>
<path d="M195.053 39.3921C194.247 39.267 192.66 38.8404 192.593 37.3915C192.572 36.9526 192.711 36.5877 192.993 36.3339C193.302 36.0554 193.761 35.9373 194.251 36.0131L196.729 36.3956C197.201 36.4679 197.509 36.6547 197.646 36.9508C197.877 37.4479 197.542 38.0895 197.389 38.3416C196.861 39.2053 196.263 39.5561 195.509 39.4415C195.475 39.4415 195.301 39.4309 195.053 39.3921ZM194.226 36.177C193.786 36.11 193.376 36.2105 193.103 36.4573C192.861 36.6758 192.741 36.9967 192.759 37.3844C192.794 38.1265 193.262 38.6712 194.154 39.0008C194.833 39.2511 195.512 39.2776 195.519 39.2776H195.528C196.21 39.3833 196.758 39.059 197.247 38.257C197.356 38.0772 197.697 37.4585 197.495 37.0213C197.382 36.7798 197.117 36.6247 196.703 36.5613L194.224 36.1788L194.226 36.177Z" fill="#2C3A64"/>
<path d="M200.773 40.2735C200.523 40.2347 200.354 40.1924 200.322 40.1836C199.567 40.0655 199.103 39.5526 198.858 38.569C198.786 38.2817 198.661 37.5695 199.029 37.1641C199.249 36.9244 199.599 36.838 200.071 36.9121L202.549 37.2946C203.039 37.3704 203.441 37.6189 203.653 37.9785C203.844 38.3046 203.867 38.6959 203.716 39.1066C203.218 40.4674 201.577 40.3986 200.771 40.2735H200.773ZM200.048 37.0742C199.634 37.0108 199.333 37.0778 199.154 37.2752C198.83 37.6312 198.969 38.324 199.02 38.5284C199.247 39.4415 199.671 39.9157 200.354 40.0197H200.363C200.363 40.0197 201.026 40.2047 201.747 40.1695C202.697 40.1237 203.308 39.7464 203.563 39.0484C203.697 38.6853 203.679 38.3434 203.512 38.0613C203.325 37.7441 202.966 37.5237 202.527 37.4567L200.048 37.0742Z" fill="#2C3A64"/>
<path d="M197.337 37.6648C197.3 37.6595 197.268 37.6331 197.256 37.5943C197.242 37.5414 197.272 37.4868 197.324 37.4727C197.368 37.4603 198.408 37.1748 199.198 37.7635C199.242 37.797 199.251 37.8587 199.217 37.901C199.186 37.9451 199.122 37.9539 199.078 37.9222C198.364 37.3898 197.386 37.6595 197.375 37.6631C197.361 37.6666 197.347 37.6683 197.333 37.6648H197.337Z" fill="#2C3A64"/>
<path d="M195.153 53.2205L189.565 50.795C189.565 50.795 186.677 73.8156 190.533 75.2416C190.533 75.2416 201.538 55.66 200.79 53.1464L195.155 53.2222L195.153 53.2205Z" fill="white"/>
<path d="M191.617 49.3356C191.617 49.3356 190.042 49.607 189.219 50.3949C189.219 50.3949 190.417 54.2957 193.6 55.4591L194.965 53.2205C194.965 53.2205 192.368 51.9902 191.617 49.3356Z" fill="#D2E3FC"/>
<path d="M194.965 53.2203C194.965 53.2203 200.171 53.0194 200.947 50.5076C200.947 50.5076 201.986 51.5951 201.948 53.3578C201.948 53.3578 200.301 55.8502 196.182 55.8784L194.965 53.2203Z" fill="#D2E3FC"/>
<path d="M195.399 42.5526C195.399 42.5526 198.169 42.676 199.391 43.1678C199.391 43.1678 198.547 44.1725 197.44 44.0015C196.334 43.8306 195.561 43.2965 195.399 42.5526Z" fill="#FFF0E6"/>
<path d="M175.786 34.3756C173.274 35.962 169.843 38.1107 167.042 39.8099C166.905 39.3357 166.803 38.9056 166.745 38.5302C165.818 32.597 167.166 11.9931 167.166 11.9931C167.166 11.9931 168.1 11.5225 169.064 11.4414C170.887 11.2916 171.573 12.5166 171.573 12.5166C171.573 12.5166 174.748 30.6422 175.788 34.3738L175.786 34.3756Z" fill="#B56F40"/>
<path d="M220.276 106.035L218.382 106.825C215.352 107.906 212.083 106.448 211.091 103.383C209.756 99.2509 209.618 94.8002 209.124 91.1373C208.881 89.3359 208.6 85.6219 207.511 82.7294C207.509 82.7294 207.509 82.7258 207.509 82.7258L209.413 146.769C180.883 148.794 166.965 132.365 166.965 132.365C166.228 115.027 173.142 75.9607 175.663 62.4216C174.448 59.6718 165.818 51.7768 164.375 44.0246C163.705 40.4252 165.804 37.8781 168.353 36.1595C171.56 33.9932 175.48 33.1383 175.48 33.1383L184.701 45.4876C185.093 45.9318 185.37 46.2808 185.477 46.5011C186.188 47.9518 189.88 50.3614 189.88 50.3614C189.87 50.4372 190.278 71.1821 191.029 71.8431C192.115 71.4306 199.391 56.8375 200.998 51.9742C203.315 52.6123 205.815 53.4778 208.452 54.6429C208.452 54.6429 213.445 57.3134 214.152 68.9523C214.752 78.8215 220.771 91.4176 222.136 102.864C222.298 104.22 221.536 105.517 220.276 106.041V106.035Z" fill="#1C468A"/>
<path d="M188.846 49.6422C188.846 49.6422 189.52 69.7561 190.38 74.7903L203.183 52.6264L201.418 51.9725L191.3 70.3395L190.301 50.3579L188.846 49.644V49.6422Z" fill="#C94C43"/>
<path d="M191.617 48.8613C191.617 48.8613 190.042 49.1328 189.219 49.9207C189.219 49.9207 190.417 53.8215 193.6 54.9849L194.965 53.2222C194.965 53.2222 192.368 51.5177 191.617 48.8631V48.8613Z" fill="white"/>
<path d="M194.965 53.2204C194.965 53.2204 200.171 52.5453 200.947 50.0317C200.947 50.0317 201.986 51.1193 201.948 52.882C201.948 52.882 200.301 55.3744 196.182 55.4026L194.965 53.2187V53.2204Z" fill="white"/>
<path d="M188.272 77.8872C188.795 77.8872 189.219 77.4627 189.219 76.9389C189.219 76.4152 188.795 75.9906 188.272 75.9906C187.75 75.9906 187.326 76.4152 187.326 76.9389C187.326 77.4627 187.75 77.8872 188.272 77.8872Z" fill="#233862"/>
<path d="M185.549 85.472C185.549 84.9485 185.973 84.5237 186.495 84.5237C187.018 84.5237 187.442 84.9485 187.442 85.472C187.442 85.9955 187.018 86.4186 186.495 86.4186C185.973 86.4186 185.549 85.9938 185.549 85.472Z" fill="#233862"/>
<path d="M185.588 37.8675L185.903 37.5696C182.736 34.2223 184.208 29.7715 184.602 28.7633C184.653 28.6346 184.622 28.4883 184.523 28.3896C184.425 28.2909 184.258 28.3279 184.208 28.4583C183.765 29.6358 182.285 34.3774 185.588 37.8692V37.8675Z" fill="#EFCBAB"/>
<path d="M185.903 37.5697L186.411 37.8623L185.859 38.3682L185.588 37.8676L185.903 37.5697Z" fill="#D8A987"/>
<path d="M186.411 37.8622C186.411 37.8622 187 38.4633 187.263 38.354C187.263 38.354 186.935 38.9569 186.596 38.9692C186.596 38.9692 186.02 38.6625 185.86 38.3664L186.411 37.8605V37.8622Z" fill="#EFCBAB"/>
<path d="M192.092 34.3879C192.092 34.3879 194.309 34.5377 194.965 33.4131C194.965 33.4131 196.766 33.8626 197.56 33.1875C197.56 33.1875 200.338 33.7498 200.414 32.6252C200.414 32.6252 202.537 36.8821 204.863 35.9919C207.19 35.1018 201.14 30.7867 201.14 30.7867L193.223 31.8443L192.09 34.3879H192.092Z" fill="#C94C43"/>
<path d="M192.256 31.201L191.802 33.1788C191.802 33.1788 197.986 30.9789 205.533 35.3574L205.445 32.1723C205.428 31.55 205.144 30.9648 204.666 30.57C203.301 29.4436 200.035 27.2315 193.99 28.9924C193.142 29.2392 192.453 30.3408 192.256 31.2028V31.201Z" fill="#1C468A"/>
<path d="M165.232 6.81097C165.211 6.68934 164.803 5.83621 165.361 5.04477C165.918 4.25333 169.581 3.04237 169.923 3.68222C170.264 4.32207 170.047 6.54304 168.87 7.03483C167.693 7.52661 165.322 7.30628 165.232 6.81097Z" fill="#B56F40"/>
<path d="M175.663 62.4181C174.448 59.6683 165.818 51.7733 164.375 44.0211C163.705 40.4217 165.804 37.8746 168.353 36.156C168.353 36.156 167.159 41.5991 170.547 46.5117C173.936 51.4243 175.663 62.4181 175.663 62.4181Z" fill="#233862"/>
<path d="M218.382 106.825C215.352 107.906 212.083 106.448 211.091 103.382C209.756 99.2508 209.618 94.8 209.124 91.1372C208.881 89.3358 208.6 85.6218 207.511 82.7292C207.613 82.8897 210.896 88.0878 213.844 96.5028C216.84 105.052 215.905 106.3 218.382 106.827V106.825Z" fill="#233862"/>
<path d="M106.558 126.63C107.7 124.838 98.08 105.017 103.244 93.9787C103.886 92.6038 115.877 94.6591 115.877 94.6591C115.877 94.6591 118.33 122.531 116.952 129.907C115.979 135.118 114.072 150.495 113.04 159.073C113.036 159.101 113.033 159.127 113.029 159.154C112.783 161.193 112.586 162.841 112.466 163.867C112.373 164.641 112.464 165.425 112.732 166.158C113.497 168.256 115.156 172.598 115.986 173.197C115.986 173.197 111.449 174.498 110.578 173.986C109.707 173.479 107.492 165.464 107.492 165.464C107.878 164.72 108.013 163.871 107.885 163.042C107.712 161.951 107.452 160.239 107.156 158.135C103.244 142.272 103.833 130.912 106.558 126.63Z" fill="#FFB27D"/>
<path d="M80.9317 162.201C81.5563 161.641 81.9838 160.897 82.1545 160.074C82.3779 158.991 82.7386 157.297 83.2065 155.225C85.1418 138.999 89.6985 128.582 93.759 125.541C95.4585 124.268 93.4512 102.32 102.174 93.8235C103.259 92.7642 113.752 98.9318 113.752 98.9318C113.752 98.9318 106.215 125.874 102.325 132.287C99.5772 136.817 92.3709 150.527 88.379 158.186C87.4096 160.038 86.632 161.54 86.1517 162.467C85.7928 163.158 85.601 163.925 85.5922 164.704C85.5676 166.939 85.2685 172.92 86.1481 173.442C86.6953 173.766 87.1703 174.126 87.5644 174.489C87.5644 174.489 83.4265 174.133 82.9198 174.104C82.4201 174.078 79.248 164.131 79.1865 163.941C79.8216 163.246 80.4655 162.621 80.9335 162.199L80.9317 162.201Z" fill="#FFB27D"/>
<path d="M77.2425 168.064C80.7982 169.929 81.3224 176.153 81.8889 177.494L88.3791 177.514C89.3591 177.182 88.9738 175.791 87.5628 174.489C87.5628 174.489 83.4248 174.133 82.9182 174.105C82.4185 174.078 79.2464 164.131 79.1848 163.941C77.6929 165.563 76.2485 167.542 77.2425 168.064Z" fill="#1C468A"/>
<path d="M82.918 147.437C83.2048 155.225 98.6658 153.728 98.6658 153.728L100.712 143.824L102.067 137.251L102.517 135.072L101.838 134.749L92.0015 130.071L88.9209 128.605L88.796 128.994L83.4933 145.634V145.641L82.918 147.441V147.437Z" fill="#F99746"/>
<path d="M83.4916 145.639C87.9585 141.037 100.712 143.824 100.712 143.824L102.067 137.251L101.84 134.749L92.0032 130.071L88.7977 128.994L83.4951 145.634V145.641L83.4916 145.639Z" fill="#EF7E29"/>
<path d="M102.519 132.199L104.553 154.565C108.332 159.365 118.314 156.416 118.314 156.416C118.314 156.416 119.072 137.94 119.46 137.212L118.012 136.785L102.517 132.199H102.519Z" fill="#F99746"/>
<path d="M102.519 132.199L104.553 154.565C104.66 143.557 118.868 144.664 118.868 144.664L118.013 136.785L102.519 132.199Z" fill="#EF7E29"/>
<path d="M119.926 27.1363L99.0776 18.8571L87.4167 30.1223L107.234 37.8675L119.926 27.1363Z" fill="#233862"/>
<path d="M110.161 30.9491C110.161 30.9491 110.205 33.438 112.03 34.2136C115.805 35.8176 112.213 37.6772 115.914 40.3018C116.766 40.9064 117.382 44.6574 111.486 45.2162C105.589 45.7749 104.857 46.2773 104.857 46.2773C104.857 46.2773 100.48 49.0888 95.631 46.198C92.8231 44.5234 96.3611 39.8559 95.0715 38.6696C93.3368 37.0709 93.1046 31.8322 95.631 29.6676C98.1574 27.5031 102.199 26.248 102.199 26.248L110.163 30.9491H110.161Z" fill="#132644"/>
<path d="M126.706 36.3621L126.861 35.8369C121.282 34.1799 120.086 28.3755 119.882 27.0235C119.855 26.849 119.729 26.7097 119.56 26.6639C119.389 26.6181 119.231 26.7644 119.259 26.9371C119.516 28.5077 120.888 34.6347 126.706 36.3621Z" fill="#EFCBAB"/>
<path d="M126.861 35.837H127.603L127.318 36.7395L126.706 36.3623L126.861 35.837Z" fill="#D8A987"/>
<path d="M127.603 35.837C127.603 35.837 128.629 36.1226 128.845 35.837C128.845 35.837 128.868 36.7043 128.504 36.9334C128.504 36.9334 127.681 36.9616 127.32 36.7395L127.605 35.837H127.603Z" fill="#EFCBAB"/>
<path d="M111.439 46.7584C111.025 46.7056 109.773 45.7044 109.206 44.1708C108.523 42.3271 107.936 40.3212 107.936 40.3212L106.124 40.6191L101.282 41.4123L100.886 41.4775C101.273 42.4998 101.564 43.4658 101.773 44.3542C102.155 45.9635 102.273 47.3243 102.227 48.336C102.179 49.369 101.639 49.6422 101.347 49.8502C101.212 49.9366 106.453 67.1526 108.983 66.2959C111.178 65.5521 111.652 46.7003 111.439 46.7584Z" fill="#FFB27D"/>
<path d="M102.227 48.336C105.135 47.1568 107.938 40.3212 107.938 40.3212C107.359 40.2524 106.745 40.367 106.125 40.6191C104.523 41.2624 102.888 42.8048 101.775 44.3542C102.155 45.9635 102.274 47.3243 102.227 48.336Z" fill="#ED975D"/>
<path d="M100.369 45.5528C100.369 45.5528 109.012 44.1497 108.057 38.77C107.102 33.3904 107.573 29.5865 102.014 30.2546C96.4544 30.9244 95.7506 33.1665 95.6327 35.0402C95.5149 36.9139 98.0958 45.7802 100.367 45.5528H100.369Z" fill="#FFB27D"/>
<path d="M99.6 50.5499C99.6 50.5499 85.0151 46.152 83.9771 44.9305C82.9391 43.7072 80.4197 27.4712 80.418 25.1339L78.2962 25.4389C78.2962 25.4389 76.7234 43.9064 78.546 48.0963C80.3687 52.2844 98.7608 58.8838 98.7608 58.8838L99.6018 50.5499H99.6Z" fill="#FFB27D"/>
<path d="M111.001 46.5522C111.001 46.5522 109.21 52.1452 102.197 48.6269L109.561 64.8576L111.486 50.3455L111.002 46.5522H111.001Z" fill="#F99746"/>
<path d="M116.961 48.1985C116.961 48.1985 116.078 51.1087 132.966 60.3327L145.424 51.7873L146.919 53.0423C146.919 53.0423 134.975 67.4663 133.11 67.1596C131.245 66.8529 118.423 58.3903 118.423 58.3903L116.963 48.2002L116.961 48.1985Z" fill="#FFB27D"/>
<path d="M71.0479 120.338C71.0479 120.338 71.5071 121.785 72.5504 123.879C74.3484 127.478 77.8776 132.988 83.782 136.295C90.478 140.048 112.174 147.218 127.074 143.746C127.074 143.746 125.661 96.5011 122.531 77.0747C122.459 76.6252 122.385 76.1898 122.311 75.7703C123.219 79.2586 127.881 80.4079 129.794 79.7627C133.992 78.3473 135.454 75.0776 135.652 71.6174C135.96 66.2906 133.274 60.5073 132.968 60.3328C126.082 56.4161 124.806 50.1992 121.462 47.98C118.476 45.9987 111.351 46.517 111.002 46.5522L109.442 62.0761L102.199 48.6269C102.188 48.6233 90.5114 47.6063 83.9808 44.9305C83.9808 44.9305 64.4486 72.007 88.636 71.6509C88.636 77.8855 85.7278 83.5542 82.9217 91.9816C80.1402 100.34 71.0514 120.338 71.0514 120.338H71.0479Z" fill="#1C468A"/>
<path d="M102.248 41.6344C102.248 41.6344 102.151 42.5104 101.6 42.729C101.048 42.9476 99.579 43.353 99.4277 43.2649C99.2763 43.175 98.7081 42.5051 98.7081 42.5051C98.7081 42.5051 101.016 41.5604 102.248 41.6344Z" fill="white"/>
<path d="M80.4674 25.1446C80.4674 25.1446 81.3611 24.5223 80.8896 22.8125C80.5747 21.6686 80.7858 20.7414 80.5448 20.7678C80.2862 20.7978 80.0874 22.282 79.9361 22.6469C79.8094 22.9553 77.8688 19.2784 77.3709 19.5657C76.8731 19.853 75.9072 21.3072 78.2242 26.3344L80.4674 25.1428V25.1446Z" fill="#FFB27D"/>
<path d="M145.424 51.7874C145.424 51.7874 146.75 48.634 147.192 47.9853C148.066 46.6985 150.559 45.8948 150.721 46.4641C150.881 47.0317 149.122 47.8707 149.046 49.1821C149.025 49.5453 149.769 48.8402 150.229 48.5652C150.505 48.3995 150.67 48.537 150.526 48.7468C149.794 49.815 149.395 50.9113 148.694 51.3168C147.994 51.7222 146.919 53.0424 146.919 53.0424L145.424 51.7874Z" fill="#FFB27D"/>
<path d="M111.001 46.5521L109.44 62.0759L102.227 48.3359L99.6002 48.3447L110.214 67.6936L112.938 46.4692L111.001 46.5521Z" fill="#AA443E"/>
<path d="M96.801 30.4537C96.801 30.4537 94.2675 33.4415 102.248 34.9045C104.813 35.3751 106.099 37.8587 105.401 39.9563C104.364 43.0674 106.984 46.4183 110.84 45.2108C113.911 44.2502 108.91 29.8862 106.185 29.6676C103.462 29.449 96.7992 30.4537 96.7992 30.4537H96.801Z" fill="#132644"/>
<path d="M99.6001 31.1394C99.6001 31.1394 97.0368 32.9849 96.8186 34.462C96.6005 35.9409 96.0023 38.0526 95.0224 36.5596C94.0424 35.0666 93.8788 33.0484 95.0224 31.6841C96.1659 30.3197 98.7258 29.7063 99.2694 30.177C99.8148 30.6476 99.6001 31.1394 99.6001 31.1394Z" fill="#132644"/>
<path d="M95.0698 30.2827C95.0698 30.2827 99.9696 26.0558 110.374 32.278L110.513 29.7063C110.112 28.178 109.625 28.1904 108.233 27.4465C106.664 26.6075 104.239 25.7878 100.784 25.816C98.4108 25.8354 97.0262 25.5287 95.946 27.6475L95.0681 30.2827H95.0698Z" fill="#1C468A"/>
<path d="M159.921 59.8074C159.921 59.8074 160.842 58.8027 161.65 57.6393C162.018 57.1017 162.364 56.5341 162.586 56.0141C162.711 55.718 162.795 55.4413 162.82 55.1927C162.82 55.1927 149.822 47.303 148.643 46.2524C147.466 45.2036 136.835 36.8627 136.835 36.8627C136.835 36.8627 136.124 37.5554 135.336 38.5672C135.044 38.9444 134.737 39.3674 134.458 39.8134C133.939 40.6401 133.495 41.5531 133.339 42.4274C133.339 42.4274 146.952 49.1714 148.173 50.4018C149.396 51.6339 159.922 59.8039 159.922 59.8039L159.921 59.8074Z" fill="#EFCBAB"/>
<path d="M161.648 57.6393C162.016 57.1017 162.362 56.5341 162.584 56.0141C162.709 55.718 162.793 55.4413 162.818 55.1927C162.818 55.1927 149.82 47.303 148.641 46.2524C147.464 45.2036 136.833 36.8627 136.833 36.8627C136.833 36.8627 136.122 37.5554 135.334 38.5672C135.042 38.9444 134.736 39.3674 134.456 39.8134C138.284 41.7276 148.648 46.9716 149.769 48.098C150.856 49.1943 158.492 55.1751 161.65 57.6358L161.648 57.6393Z" fill="#DDB08E"/>
<path d="M146.562 44.5533C146.562 44.5533 150.177 46.2473 151.106 47.9342L149.06 51.1916C149.06 51.1916 145.744 49.6193 144.338 48.0928L146.56 44.5551L146.562 44.5533Z" fill="#C94C43"/>
<path d="M148.694 51.3149C148.694 51.3149 149.607 50.9412 150.155 50.2573C150.702 49.5734 151.446 48.4664 150.526 48.7467C149.607 49.0252 147.973 50.1797 147.355 50.2873C146.738 50.3948 146.961 50.8742 146.917 51.0117C146.873 51.1492 148.693 51.3167 148.693 51.3167L148.694 51.3149Z" fill="#FFB27D"/>
<path d="M71.0479 120.338C71.0479 120.338 71.5071 121.785 72.5504 123.879C76.4649 119.73 81.9206 113.123 85.7225 105.179C92.2813 91.4704 88.6325 71.6527 88.6325 71.6527C88.6325 77.8873 85.7243 83.556 82.9181 91.9834C80.1366 100.342 71.0479 120.34 71.0479 120.34V120.338Z" fill="#233862"/>
<path d="M111.484 73.2937C111.484 72.9324 111.192 72.6398 110.832 72.6398C110.471 72.6398 110.179 72.9324 110.179 73.2937C110.179 73.6551 110.471 73.9477 110.832 73.9477C111.192 73.9477 111.484 73.6551 111.484 73.2937Z" fill="#233862"/>
<path d="M111.484 85.1793C111.484 84.818 111.192 84.5254 110.832 84.5254C110.471 84.5254 110.179 84.818 110.179 85.1793C110.179 85.5407 110.471 85.8333 110.832 85.8333C111.192 85.8333 111.484 85.5407 111.484 85.1793Z" fill="#233862"/>
<path d="M122.531 77.0747C122.459 76.6252 122.385 76.1898 122.311 75.7703C123.219 79.2586 127.881 80.4079 129.794 79.7627C133.992 78.3473 135.453 75.0776 135.652 71.6174C135.198 71.8536 128.386 75.342 125.216 73.2937C121.988 71.205 119.989 66.4775 119.927 66.3312L122.531 77.0747Z" fill="#233862"/>
</svg>
