<svg width="70" height="68" viewBox="0 0 70 68" fill="none" xmlns="http://www.w3.org/2000/svg">
<path d="M50.6644 18.136C48.4346 21.5751 45.619 24.5974 42.3431 27.0795C37.225 30.8192 32.0305 33.5609 26.7116 32.3773C25.0854 32.0098 22.4658 30.2838 22.7676 26.2694C23.0776 23.3469 24.1237 20.5477 25.8075 18.1301C25.8075 18.1301 22.3155 23.3223 24.6392 26.4749C27.0756 29.7719 33.9409 26.1942 35.0892 25.4087C35.0892 25.4087 39.8563 22.3242 42.4054 18.136H50.6644Z" fill="white"/>
<path d="M18.9482 15.4882C21.1814 12.0491 23.9994 8.99634 27.2764 6.51417C32.3887 2.77449 37.582 0.0328328 42.9021 1.22343C44.5283 1.58507 47.1478 3.31108 46.8461 7.32551C46.542 10.2597 45.497 13.0695 43.8062 15.4965C43.8062 15.4965 47.2981 10.3114 44.9745 7.15174C42.544 3.85471 35.6728 7.43823 34.5245 8.21787C34.5245 8.21787 29.7645 11.3024 27.2083 15.4906H18.9482V15.4882Z" fill="white"/>
<path d="M15.582 52.4437L15.5984 48.9162C15.5998 48.6048 15.5381 48.4738 15.1583 48.472L15.1593 48.2634L18.0952 48.277L18.0943 48.4856C17.758 48.4841 17.6796 48.5989 17.6781 48.9258L17.6346 58.319C17.6331 58.6303 17.7104 58.7615 18.0466 58.763L18.0457 58.9654L15.1097 58.9518L15.1107 58.7494C15.4905 58.7512 15.5533 58.63 15.5548 58.3094L15.5735 54.2868L8.98235 54.2563L8.9637 58.2788C8.96226 58.5901 9.03326 58.7212 9.38508 58.7229L9.38414 58.9252L6.41705 58.9115L6.41799 58.7091C6.80405 58.7109 6.86066 58.5897 6.86214 58.269L6.9057 48.8759C6.90714 48.5645 6.85171 48.4335 6.46565 48.4317L6.46661 48.2231L9.41813 48.2368L9.41717 48.4454C9.06535 48.4438 8.99321 48.5586 8.99169 48.8855L8.97533 52.413L15.582 52.4437Z" fill="white"/>
<path d="M25.4628 58.7973C25.7742 58.7987 25.8401 58.6776 25.8416 58.3569L25.8851 48.9637C25.8866 48.6524 25.8311 48.5214 25.5105 48.5199L25.5114 48.3113L35.0354 48.3554C35.3872 48.3571 35.534 48.2457 35.535 48.0464L35.7373 48.0473L35.726 50.4852L35.5237 50.4842C35.5249 50.2165 35.3791 50.1037 35.0273 50.1021L27.9754 50.0694L27.9633 52.6815L32.5742 52.7029C32.923 52.7045 33.048 52.5868 33.0493 52.319L33.2766 52.3201L33.2651 54.7859L33.0628 54.785C33.0681 54.7353 33.0601 54.6851 33.0395 54.6395C33.0189 54.594 32.9865 54.5548 32.9456 54.526C32.8323 54.4555 32.6993 54.4232 32.5662 54.434L27.9739 54.4127L27.9605 57.3081L35.165 57.3416C35.5168 57.3432 35.6419 57.2255 35.6429 56.9951L35.8453 56.996L35.8342 59.3871L35.6318 59.3862C35.6328 59.1807 35.4838 59.0741 35.1569 59.0726L25.4617 59.0277L25.4628 58.7973Z" fill="white"/>
<path d="M45.6678 58.4489C45.6663 58.7603 45.7373 58.8914 46.2043 58.8935L46.2034 59.0959L43.0526 59.0813L43.0535 58.8789C43.5268 58.8811 43.5803 58.7599 43.5818 58.4393L43.6253 49.0461C43.6268 48.7347 43.5682 48.6037 43.1012 48.6015L43.1022 48.3929L46.253 48.4075L46.252 48.6161C45.7787 48.614 45.7128 48.732 45.7113 49.0558L45.6678 58.4489Z" fill="white"/>
<path d="M56.003 52.8022L60.5113 52.8231C61.6259 52.8282 61.9357 52.4779 61.9402 51.522C61.9446 50.5662 61.6349 50.2161 60.5234 50.2109L56.0151 50.19L56.003 52.8022ZM55.9767 58.4904C55.9752 58.8017 56.0369 58.9328 56.3856 58.9344L56.3846 59.1368L53.4829 59.1233L53.4839 58.9209C53.8357 58.9226 53.8954 58.8045 53.8969 58.4807L53.9404 49.0938C53.9419 48.7824 53.8833 48.6514 53.5315 48.6498L53.5325 48.4412L60.5626 48.4738C62.8821 48.4845 64.0535 49.6669 64.0448 51.5318C64.0362 53.3967 63.0967 54.5662 60.5344 54.5543L55.995 54.5332L55.9767 58.4904Z" fill="white"/>
<path d="M1.30243 66.0117L1.30759 64.8993L0.390823 64.8951L0.385664 66.0074L0.00367943 66.0056L0.0166321 63.2126L0.386393 63.2143L0.380129 64.565L1.29689 64.5692L1.303 63.2522L1.67887 63.2539L1.66592 66.047L1.30243 66.0117Z" fill="white"/>
<path d="M3.36525 66.0212C3.32828 65.9232 3.3071 65.82 3.30249 65.7153C3.25142 65.8169 3.17302 65.9023 3.07611 65.9617C2.9792 66.0212 2.86762 66.0525 2.75391 66.052C2.67817 66.0566 2.60226 66.0462 2.53058 66.0213C2.45889 65.9964 2.39284 65.9576 2.33625 65.907C2.27966 65.8564 2.23364 65.7952 2.20086 65.7267C2.16807 65.6583 2.14917 65.5841 2.14525 65.5083C2.14386 65.4787 2.144 65.4492 2.14566 65.4197C2.14757 65.0071 2.50336 64.7276 3.28872 64.7313L3.28931 64.6029C3.29073 64.2973 3.16619 64.1348 2.92477 64.1337C2.83088 64.1377 2.74007 64.1684 2.66298 64.2222C2.58589 64.2759 2.52569 64.3505 2.48942 64.4372L2.25221 64.1886C2.33525 64.071 2.4448 63.9747 2.572 63.9073C2.6992 63.8399 2.84047 63.8035 2.98438 63.8008C3.35414 63.8025 3.65549 64.0606 3.65285 64.629L3.64802 65.6711C3.64123 65.7867 3.66272 65.9021 3.71063 66.0075L3.36525 66.0212ZM3.29962 65.0155L3.211 65.0151C2.78318 65.0131 2.5075 65.1524 2.50621 65.4305C2.50074 65.5101 2.52662 65.5886 2.5783 65.6494C2.62997 65.7102 2.70337 65.7483 2.78279 65.7557L2.81641 65.7559C2.88534 65.7489 2.95223 65.7285 3.01322 65.6956C3.07422 65.6628 3.12811 65.6182 3.17182 65.5644C3.21552 65.5107 3.24816 65.4488 3.26787 65.3824C3.28758 65.316 3.29396 65.2463 3.28665 65.1774L3.29962 65.0155Z" fill="white"/>
<path d="M5.44924 66.0309C5.41476 65.9323 5.39466 65.8293 5.38954 65.725C5.33847 65.8266 5.26007 65.9119 5.16316 65.9714C5.06625 66.0309 4.95467 66.0622 4.84096 66.0617C4.37341 66.0595 4.19802 65.6614 4.20015 65.2L4.20639 63.8554L4.57921 63.8571L4.57354 65.0795C4.57185 65.4431 4.61322 65.7489 4.95242 65.7505C5.29162 65.7521 5.38156 65.4683 5.38275 65.2116L5.38897 63.8701L5.75262 63.8717L5.74412 65.7053C5.73825 65.8164 5.75435 65.9276 5.7915 66.0325L5.44924 66.0309Z" fill="white"/>
<path d="M7.3198 65.9937C7.20821 66.0395 7.08868 66.0628 6.96805 66.0624C6.59523 66.0606 6.40378 65.8306 6.40555 65.4486L6.41146 64.1743L6.15476 64.1731L6.15618 63.8675L6.41287 63.8687L6.41557 63.2881L6.78533 63.2898L6.78269 63.8582L7.24719 63.8603L7.24577 64.1659L6.78128 64.1638L6.77554 65.4014C6.77463 65.597 6.84746 65.7073 7.0247 65.7081C7.09797 65.7121 7.17067 65.6932 7.23276 65.6541L7.3198 65.9937Z" fill="white"/>
<path d="M9.17338 65.5897C9.1138 65.7403 9.00828 65.8682 8.87182 65.9554C8.73536 66.0425 8.57491 66.0844 8.41326 66.0752C7.89682 66.0728 7.6115 65.6528 7.61472 64.9591C7.61794 64.2654 7.92555 63.8298 8.42366 63.8321C9.03484 63.835 9.19439 64.3552 9.1915 64.9786L9.19113 65.0581L7.96878 65.0524C7.96692 65.4527 8.11844 65.7285 8.43014 65.7299C8.65322 65.731 8.79132 65.6063 8.89939 65.3654L9.17338 65.5897ZM8.85308 64.809C8.85489 64.4178 8.73083 64.1514 8.45275 64.1501C8.17466 64.1488 8.02365 64.4231 7.98215 64.8049L8.85308 64.809Z" fill="white"/>
<path d="M9.79451 65.4551C9.85251 65.5493 9.93366 65.6271 10.0302 65.6811C10.1268 65.735 10.2356 65.7633 10.3462 65.7633C10.5693 65.7643 10.7043 65.6366 10.7052 65.4594C10.7073 64.9949 9.59424 65.1486 9.59744 64.458C9.60694 64.2892 9.68238 64.1308 9.80752 64.0171C9.93266 63.9033 10.0975 63.8433 10.2665 63.8499L10.3337 63.8502C10.4654 63.846 10.5963 63.8715 10.7167 63.925C10.8371 63.9785 10.9439 64.0585 11.029 64.159L10.7773 64.3901C10.7267 64.3143 10.6576 64.2527 10.5765 64.2112C10.4954 64.1696 10.405 64.1495 10.3139 64.1527C10.2738 64.1469 10.2329 64.1492 10.1936 64.1594C10.1544 64.1696 10.1175 64.1876 10.0853 64.2122C10.053 64.2368 10.026 64.2675 10.0058 64.3027C9.98551 64.3378 9.97247 64.3767 9.9674 64.4169C9.96547 64.8325 11.0817 64.6635 11.0781 65.4275C11.0785 65.5124 11.0622 65.5966 11.03 65.6752C10.9977 65.7538 10.9503 65.8252 10.8904 65.8854C10.8305 65.9456 10.7593 65.9934 10.6808 66.026C10.6024 66.0586 10.5183 66.0754 10.4334 66.0754L10.3539 66.075C10.194 66.0804 10.0351 66.0467 9.8911 65.9768C9.74711 65.9069 9.62235 65.803 9.52763 65.6739L9.79451 65.4551Z" fill="white"/>
<path d="M12.5941 66.064L12.607 63.271L14.0035 63.2774L14.0019 63.6319L12.9598 63.6271L12.9552 64.6233L13.8414 64.6274L13.8398 64.9758L12.9536 64.9717L12.9501 65.7387L13.9921 65.7435L13.9905 66.095L12.5941 66.064ZM12.9467 63.1625L12.8348 62.9236L13.6985 62.509L13.8316 62.7938L12.9467 63.1625Z" fill="white"/>
<path d="M15.5705 66.032C15.4589 66.0778 15.3393 66.1011 15.2187 66.1007C14.8398 66.0989 14.6544 65.8688 14.6562 65.4869L14.6621 64.2126L14.4024 64.2113L14.4038 63.9058L14.6635 63.907L14.6662 63.3263L15.0299 63.328L15.0272 63.8964L15.4917 63.8986L15.4903 64.2042L15.0258 64.202L15.0201 65.4396C15.0192 65.6352 15.092 65.7456 15.2723 65.7464C15.3446 65.7503 15.4163 65.7314 15.4773 65.6924L15.5705 66.032Z" fill="white"/>
<path d="M17.19 66.0853C17.1599 65.9858 17.1409 65.8832 17.1334 65.7795C17.0816 65.8825 17.0018 65.9687 16.9031 66.0283C16.8044 66.0879 16.6909 66.1183 16.5756 66.1161C16.1111 66.1139 15.9357 65.7159 15.9379 65.2544L15.9441 63.9098L16.3078 63.9115L16.3021 65.1339C16.3004 65.4975 16.3448 65.8033 16.681 65.8049C17.0171 65.8064 17.1101 65.5227 17.1113 65.266L17.1175 63.9244L17.4842 63.9261L17.4757 65.7597C17.4753 65.8707 17.4923 65.9811 17.5262 66.0869L17.19 66.0853Z" fill="white"/>
<path d="M19.2161 66.0947C19.186 66.0121 19.1678 65.9255 19.1623 65.8378C19.115 65.9313 19.042 66.0095 18.952 66.0632C18.8619 66.1169 18.7584 66.1439 18.6536 66.141C18.1861 66.1388 17.9621 65.6702 17.9651 65.0163C17.9682 64.3623 18.2362 63.896 18.7038 63.8982C18.7904 63.8982 18.8757 63.92 18.9519 63.9614C19.028 64.0029 19.0926 64.0627 19.1397 64.1355L19.144 63.1912L19.5138 63.1929L19.5019 65.7568C19.4946 65.8715 19.5086 65.9866 19.5431 66.0962L19.2161 66.0947ZM19.1332 64.8719C19.1346 64.5664 19.075 64.236 18.745 64.2345C18.4149 64.233 18.3278 64.5779 18.3257 65.021C18.3237 65.4641 18.4199 65.8038 18.7407 65.8052C19.0616 65.8067 19.1329 65.587 19.1343 65.2998L19.1332 64.8719Z" fill="white"/>
<path d="M21.5406 65.6471C21.4803 65.7971 21.3746 65.9245 21.2383 66.0116C21.102 66.0986 20.942 66.1409 20.7805 66.1326C20.258 66.1301 19.9757 65.7102 19.9789 65.0165C19.9821 64.3228 20.2897 63.8872 20.7909 63.8895C21.4021 63.8924 21.5555 64.4126 21.5526 65.036L21.5523 65.1155L20.3299 65.1098C20.3281 65.5101 20.4796 65.7858 20.7913 65.7873C21.0144 65.7883 21.1494 65.6637 21.2605 65.4228L21.5406 65.6471ZM21.199 64.8541C21.2008 64.4629 21.0829 64.1965 20.7987 64.1952C20.5145 64.1939 20.3696 64.4682 20.3281 64.85L21.199 64.8541Z" fill="white"/>
<path d="M22.1554 65.5124C22.2134 65.6066 22.2946 65.6844 22.3912 65.7384C22.4877 65.7923 22.5965 65.8206 22.7071 65.8206C22.9363 65.8217 23.0714 65.6939 23.0722 65.5167C23.0744 65.0522 21.9613 65.206 21.9645 64.5153C21.9732 64.3468 22.048 64.1884 22.1726 64.0746C22.2973 63.9608 22.4618 63.9006 22.6304 63.9072L22.6977 63.9075C22.829 63.9026 22.9597 63.9279 23.0797 63.9814C23.1997 64.035 23.3059 64.1153 23.3899 64.2163L23.1383 64.4474C23.0872 64.3714 23.0175 64.3097 22.9359 64.2681C22.8543 64.2266 22.7634 64.2065 22.6718 64.21C22.6312 64.2038 22.5898 64.2058 22.55 64.216C22.5102 64.2262 22.4728 64.2443 22.4402 64.2693C22.4076 64.2942 22.3803 64.3255 22.36 64.3613C22.3397 64.397 22.3269 64.4364 22.3222 64.4773C22.3203 64.8929 23.4395 64.7239 23.436 65.4878C23.4368 65.6583 23.3701 65.8222 23.2504 65.9436C23.1307 66.0651 22.9678 66.1342 22.7974 66.1358L22.7148 66.1354C22.5544 66.1408 22.3951 66.1071 22.2507 66.0372C22.1062 65.9673 21.9809 65.8633 21.8855 65.7343L22.1554 65.5124Z" fill="white"/>
<path d="M24.9549 66.1214L24.9679 63.3283L25.3621 63.3301L25.3491 66.1232L24.9549 66.1214Z" fill="white"/>
<path d="M27.1186 66.1314L27.1241 64.9305C27.1258 64.5668 27.0845 64.261 26.7453 64.2595C26.4061 64.2579 26.316 64.5631 26.3143 64.9267L26.3088 66.1277L25.9604 66.126L25.9689 64.2925C25.9704 64.1804 25.9533 64.0688 25.9185 63.9622L26.2455 63.9638C26.2793 64.0625 26.2994 64.1654 26.3052 64.2696C26.3533 64.1664 26.4306 64.0795 26.5276 64.0197C26.6245 63.9599 26.7368 63.9297 26.8507 63.933C27.3427 63.9352 27.4967 64.3363 27.4946 64.7916L27.4883 66.1362L27.1186 66.1314Z" fill="white"/>
<path d="M29.0166 66.0943C28.9039 66.1399 28.7834 66.1632 28.6618 66.163C28.289 66.1612 28.1006 65.9312 28.1024 65.5492L28.1083 64.2749L27.8516 64.2737L27.853 63.9681L28.1097 63.9693L28.1124 63.3887L28.473 63.3903L28.4704 63.9587L28.9379 63.9609L28.9365 64.2665L28.4689 64.2643L28.4632 65.5019C28.4623 65.6975 28.5412 65.8079 28.7185 65.8087C28.7909 65.8142 28.8631 65.7952 28.9235 65.7547L29.0166 66.0943Z" fill="white"/>
<path d="M30.8671 65.6904C30.8068 65.8404 30.7011 65.9678 30.5648 66.0548C30.4285 66.1418 30.2685 66.1841 30.107 66.1758C29.5845 66.1734 29.3022 65.7534 29.3054 65.0597C29.3086 64.366 29.6163 63.9304 30.1174 63.9328C30.7286 63.9356 30.882 64.4558 30.8791 65.0792L30.8788 65.1587L29.6564 65.153C29.6546 65.5533 29.8061 65.8291 30.1178 65.8305C30.3378 65.8315 30.4729 65.7069 30.584 65.466L30.8671 65.6904ZM30.5255 64.8973C30.5273 64.5061 30.4063 64.2397 30.1252 64.2384C29.844 64.2371 29.693 64.5114 29.6546 64.8932L30.5255 64.8973Z" fill="white"/>
<path d="M31.345 66.1509L31.3535 64.3174C31.3534 64.2054 31.3364 64.0941 31.303 63.9871L31.6331 63.9887C31.666 64.1045 31.6869 64.2234 31.6956 64.3434C31.7429 64.2217 31.8279 64.1183 31.9382 64.0485C32.0486 63.9786 32.1783 63.9459 32.3086 63.9551L32.3881 63.9555L32.3281 64.3739C32.2817 64.3589 32.2332 64.3514 32.1845 64.3518C32.1234 64.3503 32.0626 64.361 32.0057 64.3832C31.9487 64.4054 31.8968 64.4386 31.8528 64.4811C31.8088 64.5235 31.7737 64.5743 31.7495 64.6304C31.7253 64.6865 31.7125 64.7469 31.7118 64.808C31.7086 64.8364 31.7085 64.8651 31.7114 64.8936L31.7056 66.1434L31.345 66.1509Z" fill="white"/>
<path d="M33.9058 66.1628L33.9114 64.9619C33.9131 64.5982 33.8717 64.2924 33.5356 64.2909C33.1994 64.2893 33.1063 64.5945 33.1046 64.9581L33.0991 66.1591L32.7324 66.1574L32.7409 64.3238C32.7423 64.2117 32.7253 64.1001 32.6905 63.9936L33.0205 63.9951C33.0513 64.0946 33.0713 64.1972 33.0802 64.301C33.1297 64.1975 33.2082 64.1106 33.3061 64.0509C33.404 63.9911 33.5172 63.9611 33.6318 63.9643C34.1238 63.9666 34.2778 64.3676 34.2757 64.823L34.2695 66.1676L33.9058 66.1628Z" fill="white"/>
<path d="M35.9226 66.1722C35.8836 66.0745 35.8604 65.9712 35.8537 65.8663C35.8049 65.969 35.7274 66.0555 35.6307 66.1152C35.5339 66.1749 35.4219 66.2054 35.3082 66.2029C35.2319 66.2076 35.1555 66.1969 35.0835 66.1716C35.0114 66.1464 34.9451 66.107 34.8884 66.0558C34.8318 66.0046 34.7859 65.9426 34.7534 65.8735C34.721 65.8043 34.7027 65.7294 34.6995 65.6531C34.6966 65.6257 34.6967 65.598 34.6999 65.5706C34.7018 65.1581 35.0576 64.8786 35.8399 64.8822L35.8405 64.7538C35.8419 64.4483 35.7174 64.2857 35.479 64.2846C35.3847 64.2885 35.2934 64.319 35.2158 64.3728C35.1382 64.4265 35.0774 64.5012 35.0406 64.5882L34.8095 64.3396C34.8911 64.2205 35.0003 64.1231 35.1279 64.0556C35.2554 63.988 35.3974 63.9524 35.5417 63.9518C35.9084 63.9535 36.2097 64.2116 36.2071 64.78L36.2023 65.822C36.1991 65.9371 36.2194 66.0515 36.2618 66.1585L35.9226 66.1722ZM35.8539 65.1665L35.7683 65.1661C35.3374 65.1641 35.0648 65.3034 35.0635 65.5815C35.058 65.661 35.0839 65.7396 35.1356 65.8004C35.1873 65.8611 35.2607 65.8993 35.3401 65.9067L35.3737 65.9068C35.6793 65.9082 35.8426 65.6248 35.844 65.3162L35.8539 65.1665Z" fill="white"/>
<path d="M37.7837 66.135C37.6721 66.1808 37.5526 66.2041 37.432 66.2036C37.0531 66.2019 36.8677 65.9718 36.8695 65.5898L36.8754 64.3155L36.6156 64.3143L36.6171 64.0087L36.8768 64.01L36.8795 63.4293L37.2432 63.431L37.2405 63.9994L37.705 64.0016L37.7036 64.3072L37.2391 64.305L37.2334 65.5426C37.2325 65.7382 37.3053 65.8486 37.4886 65.8494C37.5609 65.8533 37.6327 65.8344 37.6936 65.7954L37.7837 66.135Z" fill="white"/>
<path d="M38.1594 63.5208C38.1605 63.4603 38.1851 63.4026 38.2281 63.36C38.2712 63.3173 38.3291 63.2932 38.3897 63.2927C38.4504 63.293 38.5086 63.3174 38.5514 63.3606C38.5942 63.4038 38.6181 63.4622 38.6178 63.523C38.6175 63.5837 38.5931 63.6419 38.5499 63.6847C38.5067 63.7275 38.4483 63.7514 38.3875 63.7511C38.3267 63.7508 38.2686 63.7264 38.2258 63.6832C38.183 63.64 38.1591 63.5816 38.1594 63.5208ZM38.1837 66.1827L38.1937 64.0222L38.5604 64.0239L38.5504 66.1844L38.1837 66.1827Z" fill="white"/>
<path d="M39.0323 65.117C39.0355 64.4233 39.3033 63.9967 39.8473 63.9993C40.3912 64.0018 40.6551 64.4308 40.6519 65.1245C40.6487 65.8182 40.3808 66.2448 39.8369 66.2423C39.2929 66.2398 39.0291 65.8015 39.0323 65.117ZM40.2791 65.1228C40.2811 64.6797 40.1666 64.3308 39.8458 64.3293C39.5249 64.3278 39.4133 64.6665 39.4112 65.1188C39.4091 65.571 39.5298 65.9047 39.8507 65.9062C40.1715 65.9077 40.277 65.5628 40.2791 65.1228Z" fill="white"/>
<path d="M42.3002 66.2018L42.3058 65.0008C42.3075 64.6372 42.26 64.3314 41.9269 64.3298C41.5938 64.3283 41.4977 64.6334 41.496 64.9971L41.4904 66.198L41.1207 66.1963L41.1292 64.3628C41.1317 64.2509 41.1157 64.1393 41.0818 64.0325L41.4118 64.0341C41.4417 64.1337 41.4607 64.2362 41.4685 64.3399C41.5198 64.2379 41.5987 64.1522 41.6962 64.0927C41.7937 64.0332 41.9059 64.0022 42.0201 64.0033C42.5152 64.0056 42.6661 64.4066 42.664 64.8619L42.6578 66.2065L42.3002 66.2018Z" fill="white"/>
<path d="M44.2956 66.211C44.2607 66.1123 44.2386 66.0095 44.2298 65.9051C44.1813 66.0074 44.1043 66.0935 44.0081 66.1532C43.9119 66.2129 43.8006 66.2437 43.6874 66.2418C43.6116 66.2464 43.5357 66.236 43.464 66.2111C43.3923 66.1862 43.3263 66.1474 43.2697 66.0968C43.2131 66.0463 43.1671 65.985 43.1343 65.9166C43.1015 65.8481 43.0826 65.7739 43.0787 65.6981C43.0758 65.6686 43.0759 65.6389 43.0791 65.6095C43.081 65.1969 43.4338 64.9174 44.2222 64.9211L44.2228 64.7927C44.2242 64.4871 44.0935 64.3246 43.8552 64.3235C43.7612 64.3287 43.6705 64.3599 43.5932 64.4134C43.5158 64.467 43.4548 64.5409 43.4168 64.627L43.1857 64.3784C43.2674 64.2596 43.3767 64.1623 43.5042 64.0948C43.6317 64.0272 43.7736 63.9915 43.9178 63.9907C44.2845 63.9924 44.5859 64.2504 44.5832 64.8188L44.5784 65.8609C44.5741 65.9766 44.5966 66.0918 44.6441 66.1974L44.2956 66.211ZM44.2331 65.2053L44.1445 65.2049C43.7166 65.2029 43.441 65.3422 43.4397 65.6203C43.4342 65.6999 43.4601 65.7785 43.5117 65.8392C43.5634 65.9 43.6368 65.9381 43.7162 65.9455L43.7499 65.9457C43.8888 65.9309 44.0162 65.8618 44.1043 65.7534C44.1924 65.6451 44.234 65.5062 44.2201 65.3672L44.2331 65.2053Z" fill="white"/>
<path d="M45.1604 66.215L45.1738 63.3119L45.5314 63.3136L45.5179 66.2167L45.1604 66.215Z" fill="white"/>
<path d="M47.5494 65.7677C47.4894 65.918 47.3838 66.0457 47.2474 66.1328C47.1111 66.2198 46.9508 66.262 46.7893 66.2532C46.2698 66.2507 45.9875 65.8308 45.9907 65.1371C45.9939 64.4434 46.3016 64.0078 46.7997 64.0101C47.4108 64.013 47.5643 64.5332 47.5614 65.1566L47.561 65.236L46.354 65.2304C46.3521 65.6308 46.5036 65.9065 46.8153 65.908C47.0384 65.909 47.1734 65.7843 47.2815 65.5434L47.5494 65.7677ZM47.2108 64.9747C47.2126 64.5835 47.0916 64.3171 46.8074 64.3158C46.5232 64.3144 46.3783 64.5888 46.3399 64.9706L47.2108 64.9747Z" fill="white"/>
<path d="M48.1519 65.633C48.2099 65.7272 48.291 65.8049 48.3876 65.8589C48.4842 65.9128 48.593 65.9411 48.7036 65.9411C48.9328 65.9422 49.0678 65.8145 49.0687 65.6372C49.0708 65.1727 47.9577 65.3265 47.9609 64.6358C47.9697 64.4673 48.0444 64.3089 48.1691 64.1951C48.2937 64.0813 48.4582 64.0211 48.6269 64.0277L48.6941 64.0281C48.8255 64.0224 48.9565 64.0474 49.0766 64.101C49.1967 64.1546 49.3028 64.2353 49.3864 64.3369L49.1347 64.5679C49.0836 64.4919 49.014 64.4302 48.9323 64.3886C48.8507 64.3471 48.7598 64.3271 48.6683 64.3305C48.6279 64.3247 48.5868 64.3271 48.5473 64.3375C48.5079 64.3479 48.4709 64.3661 48.4386 64.3911C48.4063 64.416 48.3793 64.4471 48.3593 64.4826C48.3392 64.5181 48.3264 64.5573 48.3217 64.5978C48.3198 65.0134 49.439 64.8444 49.4355 65.6084C49.4364 65.7783 49.3701 65.9418 49.251 66.0631C49.132 66.1845 48.9699 66.2539 48.7999 66.2563L48.7144 66.2559C48.5543 66.2616 48.3954 66.228 48.2514 66.1581C48.1073 66.0882 47.9826 65.984 47.8881 65.8548L48.1519 65.633Z" fill="white"/>
<path d="M52.7572 66.2594C52.6688 66.2478 52.5849 66.2133 52.5139 66.1594C52.4429 66.1054 52.3872 66.034 52.3522 65.952C52.2751 66.0644 52.1711 66.1557 52.0496 66.2176C51.9281 66.2795 51.7931 66.31 51.6568 66.3063C51.5458 66.3074 51.4357 66.2865 51.3327 66.245C51.2297 66.2034 51.136 66.1419 51.0569 66.064C50.9777 65.9862 50.9147 65.8934 50.8715 65.7912C50.8283 65.6889 50.8057 65.5791 50.805 65.4681L50.8053 65.413C50.7988 65.2362 50.8516 65.0622 50.9553 64.9188C51.0589 64.7753 51.2074 64.6706 51.3774 64.6212C51.2793 64.5698 51.1971 64.4928 51.1394 64.3983C51.0817 64.3039 51.0507 64.1955 51.0498 64.0848C51.0473 63.9186 51.1103 63.758 51.2252 63.6379C51.3402 63.5178 51.4978 63.4477 51.664 63.4429L51.7159 63.4431C51.8198 63.4407 51.923 63.4604 52.0187 63.5009C52.1144 63.5414 52.2004 63.6017 52.271 63.678L52.0221 63.9824C51.9925 63.9278 51.9483 63.8825 51.8945 63.8515C51.8407 63.8205 51.7794 63.8051 51.7173 63.8068C51.6413 63.8061 51.5677 63.8337 51.511 63.8843C51.4542 63.9349 51.4184 64.0048 51.4104 64.0804L51.4103 64.1171C51.4095 64.2943 51.5308 64.4905 51.873 64.5012L52.3365 65.3713C52.3802 65.1643 52.4026 64.9535 52.4036 64.742L52.4046 64.519L52.753 64.5206C52.7659 64.925 52.6975 65.3278 52.5519 65.7053C52.5761 65.7611 52.6124 65.8107 52.6582 65.8506C52.704 65.8905 52.7582 65.9196 52.8167 65.9358L52.7572 66.2594ZM51.6699 64.8028C51.525 64.822 51.3929 64.8956 51.3004 65.0087C51.2079 65.1218 51.162 65.2659 51.172 65.4117C51.1654 65.4781 51.1719 65.5452 51.1913 65.609C51.2106 65.6729 51.2424 65.7323 51.2847 65.7839C51.3271 65.8355 51.3792 65.8782 51.438 65.9096C51.4969 65.941 51.5614 65.9605 51.6278 65.9669L51.6767 65.9672C51.775 65.9637 51.8706 65.9337 51.9531 65.8802C52.0357 65.8268 52.1023 65.752 52.1457 65.6637L51.6699 64.8028Z" fill="white"/>
<path d="M54.3188 66.2575L54.3318 63.4645L55.0041 63.4676C55.2607 63.4829 55.5016 63.596 55.6775 63.7835C55.8533 63.971 55.9506 64.2188 55.9494 64.4758C55.9482 64.7329 55.8486 64.9797 55.6711 65.1656C55.4935 65.3515 55.2515 65.4623 54.9948 65.4753L54.6647 65.4738L54.6612 66.2438L54.3188 66.2575ZM54.9964 65.133C55.3783 65.1348 55.5599 64.8576 55.5617 64.4847C55.5634 64.1119 55.3844 63.833 55.0024 63.8312L54.6724 63.8297L54.6663 65.1315L54.9964 65.133Z" fill="white"/>
<path d="M56.2185 65.1967C56.2217 64.503 56.4926 64.0765 57.0335 64.079C57.5744 64.0815 57.8413 64.5106 57.8381 65.2042C57.8349 65.8979 57.567 66.3245 57.0231 66.322C56.4792 66.3195 56.2153 65.8813 56.2185 65.1967ZM57.4653 65.2025C57.4673 64.7594 57.3589 64.4105 57.032 64.409C56.705 64.4075 56.5934 64.7554 56.5913 65.1985C56.5893 65.6416 56.7038 65.9844 57.0247 65.9858C57.3455 65.9873 57.4693 65.6518 57.4714 65.2025L57.4653 65.2025Z" fill="white"/>
<path d="M58.2796 66.2759L58.293 63.3728L58.672 63.3746L58.6585 66.2776L58.2796 66.2759Z" fill="white"/>
<path d="M59.181 63.6183C59.1818 63.5731 59.1959 63.5292 59.2217 63.492C59.2474 63.4549 59.2835 63.4261 59.3255 63.4094C59.3675 63.3928 59.4135 63.3889 59.4578 63.3983C59.502 63.4076 59.5424 63.4299 59.574 63.4622C59.6056 63.4945 59.627 63.5355 59.6353 63.5799C59.6437 63.6243 59.6388 63.6702 59.6212 63.7118C59.6036 63.7534 59.574 63.7889 59.5363 63.8138C59.4985 63.8387 59.4543 63.8518 59.4091 63.8516C59.3786 63.8519 59.3484 63.846 59.3203 63.8343C59.2921 63.8227 59.2666 63.8054 59.2453 63.7836C59.224 63.7618 59.2073 63.7359 59.1963 63.7075C59.1852 63.6791 59.18 63.6488 59.181 63.6183ZM59.2145 66.2802L59.2245 64.1197L59.5851 64.1214L59.5751 66.2819L59.2145 66.2802Z" fill="white"/>
<path d="M61.1797 66.2435C61.069 66.2889 60.9506 66.3122 60.831 66.3121C60.4551 66.3104 60.2697 66.0803 60.2715 65.6984L60.2774 64.4241L60.0146 64.4228L60.016 64.1172L60.2575 64.1184L60.2602 63.5377L60.6238 63.5394L60.6212 64.1078L61.0887 64.11L61.0873 64.4156L60.6198 64.4134L60.614 65.651C60.6131 65.8466 60.689 65.957 60.8693 65.9578C60.9416 65.9617 61.0133 65.9428 61.0743 65.9038L61.1797 66.2435Z" fill="white"/>
<path d="M61.5368 63.6292C61.537 63.5838 61.5507 63.5394 61.5762 63.5018C61.6017 63.4641 61.6378 63.4349 61.68 63.4179C61.7221 63.4008 61.7684 63.3967 61.8129 63.406C61.8574 63.4153 61.8981 63.4376 61.9299 63.4701C61.9617 63.5026 61.9831 63.5438 61.9913 63.5885C61.9996 63.6332 61.9944 63.6794 61.9764 63.7211C61.9584 63.7629 61.9284 63.7983 61.8902 63.8229C61.852 63.8476 61.8073 63.8603 61.7619 63.8595C61.7319 63.8593 61.7023 63.8533 61.6747 63.8416C61.6471 63.8299 61.6221 63.8128 61.6012 63.7914C61.5802 63.77 61.5638 63.7446 61.5527 63.7168C61.5417 63.6889 61.5363 63.6592 61.5368 63.6292ZM61.5642 66.2911L61.5742 64.1306L61.944 64.1323L61.9339 66.2928L61.5642 66.2911Z" fill="white"/>
<path d="M63.5807 67.095L63.5855 66.0621C63.5398 66.146 63.4725 66.2161 63.3906 66.2651C63.3087 66.3142 63.2152 66.3404 63.1197 66.3411C62.6552 66.3389 62.428 65.9101 62.4312 65.2255C62.4343 64.541 62.6931 64.0961 63.1545 64.0982C63.2568 64.0988 63.357 64.1279 63.4436 64.1823C63.5303 64.2367 63.6001 64.3142 63.6451 64.4061C63.6537 64.3169 63.6715 64.2289 63.6983 64.1435L64.0344 64.1451C63.9956 64.2505 63.9775 64.3625 63.981 64.4749L63.9688 67.0968L63.5807 67.095ZM63.5902 65.0537C63.5916 64.7481 63.5044 64.4421 63.2049 64.4407C62.9054 64.4393 62.7785 64.7932 62.7765 65.2271C62.7745 65.6611 62.8706 66.013 63.1976 66.0145C63.5246 66.016 63.5871 65.7107 63.5885 65.4051L63.5902 65.0537Z" fill="white"/>
<path d="M65.7601 66.3106C65.7284 66.2114 65.7094 66.1086 65.7034 66.0047C65.6519 66.1072 65.5725 66.1932 65.4744 66.2527C65.3763 66.3122 65.2635 66.343 65.1487 66.3413C64.6842 66.3392 64.5088 65.9411 64.511 65.4797L64.5172 64.1351L64.8839 64.1368L64.8782 65.3591C64.8766 65.7228 64.9179 66.0286 65.2571 66.0301C65.5963 66.0317 65.6863 65.7479 65.6875 65.4912L65.6937 64.1497L66.0573 64.1514L66.0488 65.9849C66.0469 66.0961 66.064 66.2067 66.0993 66.3121L65.7601 66.3106Z" fill="white"/>
<path d="M68.0847 65.8629C68.0238 66.0131 67.9176 66.1407 67.7808 66.2277C67.644 66.3147 67.4835 66.3568 67.3216 66.3483C66.8021 66.3459 66.5198 65.9259 66.523 65.2322C66.5262 64.5386 66.8338 64.103 67.332 64.1053C67.9431 64.1081 68.1027 64.6284 68.0998 65.2518L68.0994 65.3312L66.8771 65.3256C66.8752 65.7259 67.0267 66.0016 67.3384 66.0031C67.5646 66.0041 67.6996 65.8795 67.8077 65.6385L68.0847 65.8629ZM67.7461 65.0698C67.748 64.6787 67.6239 64.4122 67.3458 64.411C67.0677 64.4097 66.9167 64.684 66.8783 65.0658L67.7461 65.0698Z" fill="white"/>
<path d="M68.7088 65.7284C68.7668 65.8219 68.8475 65.8992 68.9434 65.9531C69.0394 66.007 69.1474 66.0357 69.2575 66.0365C69.4836 66.0375 69.6217 65.9129 69.6225 65.7326C69.6247 65.2589 68.5116 65.4219 68.5148 64.7312C68.5191 64.6417 68.542 64.5541 68.582 64.4739C68.6221 64.3938 68.6784 64.3228 68.7474 64.2656C68.8164 64.2084 68.8965 64.1663 68.9827 64.1418C69.0689 64.1173 69.1593 64.111 69.248 64.1234C69.3795 64.1176 69.5105 64.1424 69.6306 64.196C69.7508 64.2496 69.8568 64.3305 69.9403 64.4322L69.6886 64.6633C69.6384 64.5864 69.5689 64.5241 69.487 64.4824C69.4052 64.4407 69.3139 64.4212 69.2222 64.4259C69.0357 64.425 68.8764 64.5282 68.8755 64.7023C68.8736 65.1149 69.9898 64.9489 69.9863 65.7098C69.9869 65.8013 69.968 65.8919 69.9309 65.9755C69.8939 66.0591 69.8394 66.1339 69.7712 66.1949C69.703 66.2558 69.6226 66.3016 69.5353 66.3291C69.4481 66.3566 69.356 66.3652 69.2652 66.3544C69.1064 66.362 68.9482 66.3309 68.8042 66.2637C68.6602 66.1964 68.5348 66.0951 68.4388 65.9685L68.7088 65.7284Z" fill="white"/>
</svg>
