<svg width="70" height="58" viewBox="0 0 70 58" fill="none" xmlns="http://www.w3.org/2000/svg">
<path d="M50.6644 18.2266C48.4346 21.6839 45.619 24.7222 42.3431 27.2175C37.225 30.9769 32.0305 33.7331 26.7116 32.5433C25.0854 32.1738 22.4658 30.4387 22.7676 26.403C23.0776 23.4651 24.1237 20.6511 25.8075 18.2207C25.8075 18.2207 22.3155 23.4403 24.6392 26.6096C27.0756 29.9241 33.9409 26.3275 35.0892 25.5378C35.0892 25.5378 39.8563 22.437 42.4054 18.2266H50.6644Z" fill="white"/>
<path d="M18.9482 15.5648C21.1814 12.1075 23.9994 9.03857 27.2764 6.54328C32.3887 2.7838 37.582 0.0276433 42.9021 1.22454C44.5283 1.58809 47.1478 3.32323 46.8461 7.35891C46.542 10.3087 45.497 13.1333 43.8062 15.5731C43.8062 15.5731 47.2981 10.3606 44.9745 7.18422C42.544 3.86974 35.6728 7.47223 34.5245 8.25599C34.5245 8.25599 29.7645 11.3568 27.2083 15.5672H18.9482V15.5648Z" fill="white"/>
<path d="M8.51124 47.5814H6.53329V57.7561H8.51124V47.5814Z" fill="white"/>
<path d="M18.5408 54.454V47.5814H20.4247V57.7561H18.851L12.1494 49.7181V57.7561H10.2909V47.5814H12.7824L18.5408 54.454Z" fill="white"/>
<path d="M29.6687 50.265C29.4468 50.0669 29.2028 49.8954 28.9416 49.7538C28.6889 49.619 28.4252 49.5061 28.1534 49.4164C27.9011 49.3368 27.6426 49.2787 27.3806 49.2426C27.1465 49.2076 26.9104 49.1888 26.6738 49.1864C26.4189 49.1886 26.1643 49.2048 25.9111 49.235C25.6508 49.2632 25.3948 49.3224 25.1484 49.4113C24.9234 49.4883 24.7184 49.615 24.5484 49.7819C24.4648 49.8647 24.3991 49.964 24.3553 50.0735C24.3116 50.183 24.2908 50.3004 24.2942 50.4183C24.2993 50.5913 24.3502 50.7598 24.4416 50.9065C24.5138 51.0074 24.605 51.093 24.7102 51.1583C24.8153 51.2237 24.9323 51.2675 25.0543 51.2873C25.2882 51.3512 25.5628 51.41 25.8755 51.4636L26.8441 51.6246L27.8077 51.7805C28.1153 51.8317 28.3873 51.8828 28.6212 51.9364C29.0375 52.0224 29.4385 52.1706 29.8111 52.376C30.1039 52.5365 30.3629 52.7527 30.5738 53.0124C30.7611 53.2452 30.8971 53.5152 30.9729 53.8047C31.0507 54.1043 31.0891 54.4127 31.0873 54.7223C31.0956 55.2149 30.9858 55.7024 30.767 56.1433C30.5623 56.5481 30.2652 56.8984 29.9 57.1656C29.5096 57.4422 29.0718 57.6441 28.6085 57.7611C28.0937 57.8946 27.5639 57.9607 27.0323 57.9579C26.3719 57.9662 25.7128 57.9002 25.067 57.7611C24.5605 57.6466 24.0685 57.4751 23.6001 57.25C23.2326 57.0772 22.8904 56.8544 22.5832 56.588C22.3515 56.3861 22.1457 56.156 21.9705 55.903L23.4781 54.8475C23.6592 55.0929 23.8821 55.304 24.1365 55.4711C24.4132 55.6561 24.709 55.8104 25.0187 55.9312C25.3364 56.0562 25.6649 56.1512 26.0001 56.2149C26.3134 56.276 26.6317 56.3076 26.9509 56.3094C27.2586 56.3123 27.5655 56.2805 27.8662 56.2149C28.1212 56.1611 28.3648 56.0625 28.5857 55.9235C28.7799 55.8007 28.9435 55.6345 29.0636 55.4379C29.1821 55.2296 29.2419 54.9928 29.2365 54.7529C29.2497 54.5153 29.1785 54.2808 29.0356 54.091C28.8859 53.9173 28.6928 53.7867 28.4763 53.7127C28.2068 53.6151 27.927 53.5491 27.6424 53.5159C27.3246 53.475 26.9789 53.4341 26.6077 53.3933C26.2365 53.3524 25.845 53.3012 25.4484 53.2373C25.0449 53.1749 24.647 53.0801 24.2586 52.9537C23.7177 52.7852 23.2395 52.4575 22.8857 52.0131C22.5863 51.6043 22.4299 51.1073 22.4408 50.5998C22.4244 50.0978 22.5477 49.6013 22.7967 49.166C23.0327 48.7797 23.3569 48.4555 23.7425 48.2203C24.1545 47.9753 24.605 47.8024 25.0747 47.7092C25.5766 47.6053 26.0877 47.553 26.6001 47.5532C27.0766 47.552 27.552 47.5999 28.0187 47.6964C28.4479 47.7836 28.869 47.9076 29.2772 48.067C29.6377 48.2069 29.9828 48.3842 30.3068 48.596C30.5756 48.7682 30.8261 48.9678 31.0543 49.1915L29.6687 50.265Z" fill="white"/>
<path d="M41.0075 49.327H33.9271L34.555 50.0427V51.7065H40.1279V53.4393H34.555V56.0105H41.3126V57.7535H32.7525V47.5814H41.0075V49.327Z" fill="white"/>
<path d="M51.3701 49.327H44.2897L44.9176 50.0427V51.7065H50.4905V53.4393H44.9176V56.0105H51.6752V57.7535H43.1151V47.5814H51.3701V49.327Z" fill="white"/>
<path d="M63.4513 55.2667C63.2499 55.7072 62.9718 56.1079 62.6301 56.45C62.2858 56.7884 61.8933 57.0735 61.4657 57.296C61.0159 57.5274 60.5382 57.6992 60.0445 57.8072C59.5233 57.9207 58.9914 57.9773 58.4581 57.9759C57.6658 57.9865 56.8783 57.8514 56.1344 57.5772C55.4742 57.3291 54.8693 56.9521 54.3547 56.4679C53.8601 55.9973 53.4687 55.428 53.2056 54.7964C52.9323 54.135 52.7956 53.4246 52.8039 52.7084C52.7915 51.9464 52.9478 51.1913 53.2615 50.4976C53.5522 49.8624 53.9743 49.297 54.4997 48.8389C55.0326 48.3821 55.6468 48.0308 56.3098 47.8038C57.0052 47.5641 57.7357 47.4431 58.4708 47.446C59.5227 47.4208 60.5611 47.6888 61.4708 48.2204C62.3232 48.7384 63.0185 49.4808 63.4818 50.3672L61.8674 51.0982C61.6858 50.8182 61.479 50.5555 61.2496 50.3136C61.0277 50.0828 60.7764 49.8825 60.5021 49.7181C60.2161 49.5515 59.9079 49.4268 59.5869 49.3475C58.7232 49.1426 57.8201 49.1797 56.9759 49.4548C56.5313 49.6026 56.1201 49.8371 55.7657 50.1449C55.4176 50.4495 55.1377 50.825 54.9446 51.2464C54.736 51.7093 54.6326 52.2131 54.642 52.7211C54.6331 53.2011 54.7292 53.6771 54.9233 54.1156C55.1175 54.5542 55.4051 54.9445 55.7657 55.259C56.1214 55.568 56.532 55.8065 56.9759 55.9619C57.449 56.1321 57.9479 56.2186 58.4505 56.2175C58.8089 56.2188 59.1665 56.1845 59.5183 56.1152C59.8508 56.0521 60.1744 55.9482 60.4818 55.806C60.7742 55.6667 61.0442 55.484 61.2826 55.2642C61.5248 55.0358 61.7268 54.7679 61.8801 54.4719L63.4513 55.2667Z" fill="white"/>
</svg>
