<svg width="70" height="71" viewBox="0 0 70 71" fill="none" xmlns="http://www.w3.org/2000/svg">
    <path
        d="M50.6644 18.1362C48.4347 21.5753 45.6191 24.5976 42.3432 27.0798C37.225 30.8194 32.0306 33.5611 26.7117 32.3775C25.0854 32.01 22.4659 30.284 22.7677 26.2696C23.0776 23.3471 24.1238 20.5479 25.8075 18.1303C25.8075 18.1303 22.3156 23.3225 24.6393 26.4751C27.0756 29.7721 33.9409 26.1944 35.0892 25.4089C35.0892 25.4089 39.8563 22.3244 42.4054 18.1362H50.6644Z"
        fill="white" />
    <path
        d="M18.9482 15.4883C21.1814 12.0492 23.9994 8.99642 27.2765 6.51425C32.3887 2.77456 37.582 0.0329109 42.9021 1.2235C44.5283 1.58514 47.1479 3.31115 46.8461 7.32559C46.542 10.2598 45.497 13.0696 43.8062 15.4965C43.8062 15.4965 47.2982 10.3115 44.9745 7.15182C42.544 3.85479 35.6729 7.43831 34.5245 8.21795C34.5245 8.21795 29.7645 11.3025 27.2084 15.4907H18.9482V15.4883Z"
        fill="white" />
    <path
        d="M1.42274 57.7109C1.41179 58.0438 1.48046 58.3746 1.62305 58.6756C1.74475 58.9264 1.92236 59.146 2.1422 59.3174C2.36679 59.4814 2.62073 59.6007 2.89027 59.669C3.43856 59.8107 4.01389 59.8107 4.56218 59.669C4.83476 59.6022 5.09165 59.4827 5.31843 59.3174C5.5424 59.1521 5.72443 58.9364 5.84984 58.6879C5.99384 58.3872 6.06392 58.0564 6.05423 57.7232V53.5945H7.37051V57.9153C7.37986 58.3731 7.27743 58.8263 7.0721 59.2357C6.87493 59.6142 6.59559 59.9438 6.25454 60.2004C5.90776 60.468 5.516 60.6715 5.09769 60.8013C4.65211 60.9419 4.18733 61.0123 3.72009 61.0098C3.24618 61.012 2.77472 60.9417 2.32206 60.8013C1.90289 60.6736 1.51076 60.4699 1.16521 60.2004C0.822263 59.9284 0.547322 59.5803 0.362144 59.1837C0.176965 58.7871 0.086631 58.3529 0.0982911 57.9153V53.5945H1.42683L1.42274 57.7109Z"
        fill="white" />
    <path
        d="M14.5651 58.4999V53.5945H15.9181V60.8749H14.7858L9.97038 55.1274V60.8749H8.63367V53.5945H10.4241L14.5651 58.4999Z"
        fill="white" />
    <path d="M18.6652 60.8749H17.2427V53.5945H18.6652V60.8749Z" fill="white" />
    <path d="M28.063 53.5945L24.6906 60.8667H23.0554L19.6789 53.5945H21.1873L23.8771 59.4809L26.5546 53.5945H28.063Z"
        fill="white" />
    <path
        d="M35.0206 54.8494H29.9394L30.3891 55.3604V56.55H34.3911V57.7763H30.3891V59.6158H35.2536V60.8626H29.0892V53.5945H35.0206V54.8494Z"
        fill="white" />
    <path
        d="M37.833 58.4466V60.8748H36.5453V53.5944H40.5964C40.9536 53.5904 41.3084 53.6528 41.6429 53.7783C41.9477 53.8905 42.2261 54.0644 42.4604 54.2893C42.6887 54.5084 42.8684 54.773 42.9877 55.066C43.1164 55.3741 43.1817 55.705 43.1799 56.0389C43.1934 56.5439 43.0506 57.0407 42.7711 57.4615C42.4909 57.8605 42.0873 58.1564 41.6224 58.3035L43.4905 60.8666H41.8963L40.1385 58.4384L37.833 58.4466ZM37.833 54.7921V57.2448H40.6127C40.8385 57.2536 41.0634 57.2117 41.2709 57.1222C41.4306 57.0558 41.5712 56.9504 41.6796 56.8156C41.7741 56.6942 41.8436 56.5552 41.884 56.4068C41.92 56.2734 41.9392 56.1361 41.9413 55.998C41.9403 55.8582 41.914 55.7197 41.8636 55.5892C41.8145 55.4368 41.7321 55.2971 41.6224 55.1805C41.507 55.0541 41.3682 54.9514 41.2136 54.878C41.0284 54.7959 40.8275 54.7554 40.625 54.7594L37.833 54.7921Z"
        fill="white" />
    <path
        d="M49.6673 55.5156C49.5084 55.3753 49.3343 55.2532 49.1481 55.1518C48.7962 54.9639 48.4146 54.8381 48.0199 54.7798C47.8519 54.7564 47.6826 54.7441 47.513 54.743C47.33 54.7446 47.1472 54.7555 46.9652 54.7757C46.7772 54.7977 46.5922 54.8402 46.4134 54.9025C46.2523 54.9579 46.1056 55.0486 45.9842 55.1682C45.9257 55.2279 45.8799 55.299 45.8497 55.377C45.8195 55.455 45.8054 55.5383 45.8084 55.6219C45.813 55.745 45.8496 55.8648 45.9147 55.9694C46.0192 56.1135 46.1764 56.2105 46.3521 56.2392C46.5456 56.2932 46.7421 56.3355 46.9407 56.3659L47.6356 56.4844L48.3306 56.5948C48.5513 56.6316 48.7394 56.6684 48.9151 56.7052C49.2137 56.768 49.5015 56.8741 49.7695 57.0199C49.9796 57.1345 50.1656 57.2885 50.3173 57.4737C50.45 57.6418 50.5474 57.8351 50.6034 58.0419C50.6582 58.2556 50.6857 58.4754 50.6852 58.6959C50.6936 59.0515 50.615 59.4037 50.4562 59.722C50.3085 60.0073 50.0957 60.2538 49.8349 60.4414C49.5519 60.6337 49.236 60.7722 48.9029 60.8502C48.5341 60.9434 48.155 60.9901 47.7746 60.9892C47.2995 60.9939 46.8253 60.9473 46.3602 60.8502C45.9967 60.769 45.643 60.6484 45.3056 60.4905C45.0426 60.3662 44.7978 60.2067 44.578 60.0163C44.4116 59.8727 44.2634 59.7093 44.1365 59.5299L45.2197 58.7736C45.3511 58.9482 45.5115 59.0989 45.6939 59.2192C45.8932 59.3499 46.1055 59.4595 46.3275 59.5462C46.5561 59.6371 46.7929 59.7056 47.0347 59.7506C47.2583 59.7945 47.4855 59.8178 47.7133 59.8201C47.9346 59.8214 48.1553 59.7981 48.3714 59.7506C48.5554 59.712 48.7311 59.6414 48.8906 59.5421C49.0294 59.4532 49.1467 59.3345 49.234 59.1947C49.3192 59.0469 49.363 58.8788 49.3607 58.7082C49.3706 58.5376 49.3183 58.3691 49.2135 58.234C49.1043 58.1078 48.9631 58.0132 48.8048 57.9601C48.6101 57.8921 48.4086 57.8455 48.2038 57.8212L47.4599 57.7353C47.1942 57.7067 46.9162 57.6699 46.6423 57.6209C46.3515 57.576 46.0645 57.509 45.7839 57.4206C45.3957 57.2988 45.0526 57.0639 44.7987 56.7461C44.5834 56.4542 44.4712 56.099 44.4799 55.7364C44.4687 55.3776 44.5564 55.0226 44.7333 54.7103C44.9046 54.4374 45.1369 54.208 45.4119 54.0399C45.7072 53.8631 46.0308 53.7387 46.3684 53.672C46.7276 53.5985 47.0933 53.5615 47.4599 53.5617C47.8018 53.5598 48.143 53.594 48.4777 53.6639C48.7864 53.7243 49.0889 53.8133 49.3811 53.9296C49.64 54.0292 49.888 54.1552 50.121 54.3056C50.3139 54.4239 50.4946 54.5608 50.6606 54.7144L49.6673 55.5156Z"
        fill="white" />
    <path d="M53.3053 60.8749H51.8828V53.5945H53.3053V60.8749Z" fill="white" />
    <path d="M54.3109 53.5945H61.4155V54.8413H58.5541V60.8749H57.2296V54.8494H54.3395L54.3109 53.5945Z" fill="white" />
    <path
        d="M68.4098 53.5945H70L66.6643 57.3839V60.8585H65.3194V57.4207L62.0492 53.6027H63.6843L65.9571 56.2597L68.4098 53.5945Z"
        fill="white" />
    <path
        d="M0.000241763 67.2519C-0.00580418 66.7322 0.101613 66.2174 0.315002 65.7435C0.520541 65.2959 0.813847 64.8942 1.17753 64.5621C1.55562 64.2357 1.99079 63.9821 2.4611 63.814C3.47244 63.4542 4.57695 63.4542 5.58828 63.814C6.05766 63.9883 6.49025 64.249 6.86368 64.5825C7.22898 64.9132 7.52254 65.3153 7.72621 65.7639C7.93641 66.239 8.04499 66.7528 8.04499 67.2723C8.04499 67.7918 7.93641 68.3056 7.72621 68.7807C7.52063 69.2235 7.22718 69.6199 6.86368 69.9457C6.49109 70.2794 6.0582 70.5389 5.58828 70.7102C4.57789 71.0755 3.47149 71.0755 2.4611 70.7102C1.98868 70.539 1.55309 70.2796 1.17753 69.9457C0.813847 69.6136 0.520541 69.2119 0.315002 68.7644C0.101782 68.2889 -0.00561321 67.7729 0.000241763 67.2519ZM1.28381 67.2519C1.28041 67.5977 1.35444 67.9399 1.50047 68.2534C1.64082 68.5527 1.83957 68.8209 2.08503 69.0423C2.3395 69.2724 2.63673 69.4502 2.95982 69.5656C3.65463 69.8162 4.41519 69.8162 5.11001 69.5656C5.43019 69.4492 5.72457 69.2715 5.97662 69.0423C6.22119 68.8211 6.41862 68.5527 6.55709 68.2534C6.6946 67.9374 6.76556 67.5965 6.76556 67.2519C6.76556 66.9073 6.6946 66.5663 6.55709 66.2504C6.4157 65.947 6.21564 65.6747 5.96845 65.4491C5.71519 65.2226 5.42107 65.0464 5.10183 64.93C4.40702 64.6793 3.64646 64.6793 2.95164 64.93C2.6324 65.0464 2.33828 65.2226 2.08503 65.4491C1.8378 65.6801 1.63908 65.9581 1.50047 66.2667C1.3568 66.5752 1.28283 66.9116 1.28381 67.2519Z"
        fill="white" />
    <path
        d="M10.4895 70.8288H9.1937V63.6179H14.8676V64.8443H10.4773V66.6061H14.4057V67.9019H10.4936V70.8534L10.4895 70.8288Z"
        fill="white" />
    <path
        d="M27.0493 63.6179V70.8288H25.7575V67.4932C25.7575 66.7614 25.7575 65.8907 25.7575 64.8892L23.219 70.8247H22.1112L19.5154 64.8892V70.8288H18.2319V63.6179H20.3534L22.6467 68.9321L24.9318 63.6179H27.0493Z"
        fill="white" />
    <path
        d="M28.1979 67.2518C28.1911 66.7316 28.3 66.2164 28.5167 65.7434C28.7204 65.2948 29.0139 64.8927 29.3792 64.5621C29.7552 64.2349 30.1892 63.9812 30.6587 63.814C31.6715 63.4542 32.7773 63.4542 33.79 63.814C34.2586 63.9899 34.6909 64.2504 35.0654 64.5825C35.4291 64.9146 35.7224 65.3163 35.9279 65.7639C36.1354 66.2397 36.2426 66.7532 36.2426 67.2723C36.2426 67.7914 36.1354 68.3049 35.9279 68.7807C35.7205 69.2224 35.4273 69.6184 35.0654 69.9457C34.6915 70.2776 34.259 70.5369 33.79 70.7101C32.7782 71.0754 31.6705 71.0754 30.6587 70.7101C30.1871 70.5399 29.7527 70.2803 29.3792 69.9457C29.0139 69.6151 28.7204 69.213 28.5167 68.7643C28.3002 68.2899 28.1913 67.7734 28.1979 67.2518ZM29.4855 67.2518C29.4808 67.5974 29.5535 67.9395 29.6981 68.2534C29.8399 68.5528 30.0401 68.8211 30.2867 69.0423C30.5418 69.2737 30.8406 69.4517 31.1656 69.5655C31.859 69.8163 32.6183 69.8163 33.3117 69.5655C33.6319 69.4492 33.9263 69.2715 34.1783 69.0423C34.4238 68.8218 34.6213 68.5533 34.7588 68.2534C34.8997 67.9383 34.9726 67.597 34.9726 67.2518C34.9726 66.9067 34.8997 66.5654 34.7588 66.2503C34.6181 65.9455 34.4164 65.6728 34.1661 65.4491C33.9128 65.2226 33.6187 65.0464 33.2995 64.93C32.6061 64.6793 31.8468 64.6793 31.1534 64.93C30.8337 65.0454 30.5394 65.2217 30.2867 65.4491C30.0383 65.6799 29.8382 65.9578 29.6981 66.2667C29.5558 66.5755 29.4833 66.9118 29.4855 67.2518Z"
        fill="white" />
    <path
        d="M43.2781 68.4865V63.6179H44.6229V70.8288H43.4988L38.7242 65.1345V70.8288H37.4039V63.6179H39.178L43.2781 68.4865Z"
        fill="white" />
    <path
        d="M50.4194 63.6179L53.6038 70.8288H52.2139L51.5312 69.3122H47.4434L46.7812 70.8288H45.3791L48.5553 63.6179H50.4194ZM49.4914 64.6317L48.0035 68.0328H50.9753L49.4914 64.6317Z"
        fill="white" />
    <path
        d="M61.1948 69.0629C61.0516 69.3689 60.8535 69.646 60.6102 69.8805C60.3704 70.1218 60.0946 70.3245 59.7927 70.4814C59.4728 70.6437 59.1335 70.7646 58.783 70.8411C58.4108 70.9204 58.0312 70.9601 57.6507 70.9596C57.0931 70.9651 56.5391 70.8695 56.0155 70.6776C55.5422 70.5039 55.1085 70.237 54.7401 69.8927C54.3877 69.5591 54.1092 69.1552 53.9226 68.7073C53.7283 68.2398 53.631 67.7378 53.6364 67.2316C53.6268 66.6905 53.7385 66.1541 53.9635 65.6618C54.1704 65.2132 54.4699 64.8133 54.8423 64.4886C55.214 64.1751 55.641 63.9339 56.1014 63.7774C56.5956 63.606 57.1154 63.5203 57.6384 63.5239C58.3901 63.507 59.1318 63.6995 59.7804 64.0799C60.3892 64.4431 60.8869 64.9662 61.2193 65.5923L60.0707 66.1115C59.9413 65.9127 59.7935 65.7266 59.6292 65.5556C59.4713 65.3959 59.2925 65.2584 59.0978 65.1468C58.8941 65.0263 58.6737 64.9367 58.4437 64.8811C58.1761 64.8165 57.9014 64.7863 57.6261 64.7911C57.2692 64.7899 56.9144 64.8465 56.5756 64.9587C56.2631 65.0657 55.9744 65.2323 55.7253 65.4493C55.4782 65.6676 55.2791 65.9348 55.1408 66.2341C54.9945 66.5619 54.9219 66.9177 54.9282 67.2765C54.9229 67.6181 54.9936 67.9566 55.1349 68.2677C55.2763 68.5787 55.4849 68.8545 55.7458 69.0752C56.0002 69.293 56.2926 69.462 56.6083 69.5739C56.9457 69.6927 57.3011 69.7521 57.6588 69.7496C57.9152 69.7494 58.171 69.7261 58.4233 69.6802C58.6589 69.6345 58.8881 69.5603 59.1059 69.4594C59.3152 69.3613 59.5082 69.2317 59.6782 69.0752C59.8447 68.9126 59.9829 68.7233 60.087 68.5151L61.1948 69.0629Z"
        fill="white" />
    <path
        d="M61.9062 67.2518C61.8981 66.7319 62.0056 66.2167 62.2209 65.7434C62.4265 65.2959 62.7198 64.8942 63.0835 64.5621C63.4594 64.2349 63.8934 63.9812 64.363 63.814C65.3757 63.4542 66.4815 63.4542 67.4942 63.814C67.9635 63.9817 68.3974 64.2354 68.7737 64.5621C69.1374 64.8942 69.4307 65.2959 69.6362 65.7434C69.8438 66.2192 69.9509 66.7328 69.9509 67.2518C69.9509 67.7709 69.8438 68.2844 69.6362 68.7602C69.4312 69.2093 69.1378 69.6124 68.7737 69.9457C68.4011 70.2794 67.9682 70.5388 67.4983 70.7101C66.4865 71.0754 65.3789 71.0754 64.367 70.7101C63.894 70.5403 63.4581 70.2808 63.0835 69.9457C62.7238 69.6113 62.4347 69.2082 62.2332 68.7602C62.0145 68.2877 61.9028 67.7726 61.9062 67.2518ZM63.1898 67.2518C63.1844 67.5979 63.2585 67.9405 63.4064 68.2534C63.5454 68.5535 63.7443 68.822 63.991 69.0423C64.243 69.2715 64.5374 69.4492 64.8576 69.5655C65.551 69.8163 66.3103 69.8163 67.0037 69.5655C67.3239 69.4492 67.6183 69.2715 67.8703 69.0423C68.117 68.8229 68.3147 68.5541 68.4508 68.2534C68.5917 67.9383 68.6646 67.597 68.6646 67.2518C68.6646 66.9067 68.5917 66.5654 68.4508 66.2503C68.3147 65.946 68.1171 65.6732 67.8703 65.4491C67.617 65.2226 67.3229 65.0464 67.0037 64.93C66.3103 64.6793 65.551 64.6793 64.8576 64.93C64.5383 65.0464 64.2442 65.2226 63.991 65.4491C63.7424 65.6789 63.5435 65.9571 63.4064 66.2667C63.2609 66.5746 63.1869 66.9113 63.1898 67.2518Z"
        fill="white" />
    <path d="M8.12969 51.5955H7.29169V47.3196H8.10925L8.12969 51.5955Z" fill="white" />
    <path
        d="M12.3852 50.2097V47.3196H13.2027V51.5955H12.516L9.6872 48.2189V51.5955H8.90234V47.3196H9.95291L12.3852 50.2097Z"
        fill="white" />
    <path d="M13.7831 47.3196H17.9568V48.0554H16.2849V51.5955H15.4673V48.0554H13.7831V47.3196Z" fill="white" />
    <path
        d="M22.0405 48.0554H19.0482L19.314 48.3579V49.0569H21.6685V49.7846H19.314V50.8637H22.1754V51.5955H18.5618V47.3196H22.0487L22.0405 48.0554Z"
        fill="white" />
    <path
        d="M23.6919 50.1689V51.5956H22.9357V47.3197H25.3148C25.5256 47.3173 25.7351 47.3548 25.932 47.4301C26.1091 47.4974 26.2705 47.6004 26.4062 47.7326C26.5419 47.8607 26.648 48.017 26.7169 48.1904C26.7915 48.3705 26.829 48.5637 26.8273 48.7586C26.8346 49.0567 26.7488 49.3496 26.582 49.5966C26.4151 49.8286 26.1789 50.0018 25.9075 50.0913L27.003 51.5956H26.0669L25.0327 50.1689H23.6919ZM23.6919 48.0228V49.4699H25.327C25.4667 49.4765 25.6062 49.4528 25.7358 49.4004C25.8263 49.3574 25.906 49.2945 25.9688 49.2165C26.025 49.1469 26.0655 49.0661 26.0874 48.9794C26.1107 48.9011 26.1231 48.8199 26.1242 48.7382C26.122 48.6573 26.1068 48.5772 26.0792 48.5011C26.0475 48.4147 25.9989 48.3355 25.9361 48.2681C25.8665 48.1942 25.7832 48.1345 25.6909 48.0923C25.5834 48.0427 25.4658 48.0189 25.3475 48.0228H23.6919Z"
        fill="white" />
    <path
        d="M31.1809 50.2097V47.3196H31.978V51.5955H31.3117L28.4829 48.2189V51.5955H27.6981V47.3196H28.7486L31.1809 50.2097Z"
        fill="white" />
    <path
        d="M35.5875 47.3196L37.472 51.5955H36.6544L36.2456 50.6961H33.7929L33.3842 51.5955H32.5666L34.447 47.3196H35.5875ZM35.0356 47.9246L34.1527 49.9399H35.9063L35.0356 47.9246Z"
        fill="white" />
    <path d="M37.2758 47.3196H41.4453V48.0554H39.753V51.5955H38.9722V48.0554H37.2758V47.3196Z" fill="white" />
    <path d="M42.8802 51.5955H42.0381V47.3196H42.8761L42.8802 51.5955Z" fill="white" />
    <path
        d="M43.5588 49.4739C43.557 49.1655 43.6211 48.8603 43.7468 48.5787C43.8691 48.3117 44.0427 48.0714 44.2578 47.8715C44.4816 47.6754 44.7393 47.5216 45.0181 47.4178C45.3156 47.3103 45.6298 47.2563 45.9461 47.2583C46.2624 47.2556 46.5767 47.3096 46.874 47.4178C47.1514 47.5221 47.4077 47.6758 47.6302 47.8715C47.8457 48.0679 48.0195 48.3056 48.1412 48.5705C48.2688 48.8515 48.333 49.1572 48.3293 49.4658C48.3326 49.7659 48.2721 50.0633 48.1515 50.3382C48.031 50.6131 47.8533 50.8591 47.6302 51.06C47.4087 51.2581 47.1523 51.4134 46.874 51.5178C46.5767 51.626 46.2624 51.68 45.9461 51.6773C45.6298 51.6793 45.3156 51.6253 45.0181 51.5178C44.7382 51.4144 44.4802 51.259 44.2578 51.06C44.0348 50.8591 43.8571 50.6131 43.7365 50.3382C43.616 50.0633 43.5554 49.7659 43.5588 49.4658V49.4739ZM44.3232 49.4739C44.32 49.6799 44.3633 49.8839 44.4499 50.0708C44.5331 50.2479 44.6513 50.4065 44.7974 50.5368C44.9461 50.6744 45.1214 50.7801 45.3125 50.8474C45.7234 50.9947 46.1728 50.9947 46.5838 50.8474C46.7739 50.7781 46.9488 50.6726 47.0988 50.5368C47.2449 50.4074 47.3619 50.2486 47.4422 50.0708C47.5686 49.7935 47.6035 49.4832 47.5417 49.1848C47.48 48.8864 47.3249 48.6154 47.0988 48.4111C46.9475 48.278 46.7729 48.1741 46.5838 48.1045C46.1728 47.9573 45.7234 47.9573 45.3125 48.1045C45.1224 48.172 44.9474 48.2762 44.7974 48.4111C44.6521 48.5437 44.5341 48.7034 44.4499 48.8812C44.3638 49.0668 44.3205 49.2694 44.3232 49.4739Z"
        fill="white" />
    <path
        d="M52.4988 50.2097V47.3196H53.2959V51.5955H52.6296L49.8049 48.2189V51.5955H49.0201V47.3196H50.0706L52.4988 50.2097Z"
        fill="white" />
    <path
        d="M56.9054 47.3196L58.7981 51.5955H57.9805L57.5717 50.6961H55.119L54.7103 51.5955H53.8927L55.7731 47.3196H56.9054ZM56.3454 47.9246L55.4624 49.9399H57.2284L56.3454 47.9246Z"
        fill="white" />
    <path d="M60.1552 47.3196V50.8392H62.7468V51.5955H59.3948V47.3196H60.1552Z" fill="white" />
</svg>