<svg width="70" height="63" viewBox="0 0 70 63" fill="none" xmlns="http://www.w3.org/2000/svg">
<path d="M50.6644 18.2907C48.4346 21.7608 45.619 24.8103 42.3431 27.3149C37.225 31.0883 32.0305 33.8547 26.7116 32.6605C25.0854 32.2897 22.4658 30.5481 22.7676 26.4974C23.0776 23.5486 24.1237 20.7241 25.8075 18.2847C25.8075 18.2847 22.3155 23.5237 24.6392 26.7047C27.0756 30.0315 33.9409 26.4216 35.0892 25.629C35.0892 25.629 39.8563 22.5167 42.4054 18.2907H50.6644Z" fill="white"/>
<path d="M18.9482 15.619C21.1814 12.1489 23.9994 9.06851 27.2764 6.56395C32.3887 2.79052 37.582 0.024129 42.9021 1.22547C44.5283 1.59037 47.1478 3.33195 46.8461 7.38261C46.542 10.3433 45.497 13.1784 43.8062 15.6273C43.8062 15.6273 47.2981 10.3954 44.9745 7.20727C42.544 3.88049 35.6728 7.49635 34.5245 8.28302C34.5245 8.28302 29.7645 11.3954 27.2083 15.6214H18.9482V15.619Z" fill="white"/>
<path d="M2.62674 56.5697C2.74948 56.8151 2.92854 57.0274 3.14902 57.1889C3.38132 57.3526 3.64162 57.4714 3.91678 57.5394C4.21449 57.6168 4.52073 57.6557 4.82816 57.6553C5.05746 57.6514 5.28615 57.6302 5.51235 57.5921C5.74875 57.5598 5.97871 57.4904 6.19393 57.3866C6.3971 57.2884 6.57565 57.1452 6.71621 56.9676C6.86279 56.7726 6.93758 56.5323 6.92773 56.2878C6.93298 56.1549 6.91085 56.0224 6.86276 55.8985C6.81466 55.7747 6.74164 55.6623 6.64831 55.5684C6.43519 55.3681 6.18492 55.2123 5.91189 55.1099C5.57166 54.978 5.2226 54.8706 4.86733 54.7885C4.48345 54.6989 4.08391 54.5961 3.69742 54.4828C3.29583 54.3828 2.90076 54.2579 2.51445 54.1087C2.14041 53.9707 1.78847 53.778 1.46989 53.5369C1.16473 53.3002 0.913578 53 0.733473 52.6568C0.537308 52.2615 0.441305 51.8233 0.454052 51.3815C0.450269 50.8715 0.582886 50.3699 0.837929 49.9296C1.07181 49.5203 1.39182 49.1677 1.77542 48.8967C2.17125 48.6163 2.61338 48.4093 3.08113 48.2854C3.55611 48.1551 4.04607 48.0886 4.53829 48.0878C5.08871 48.0858 5.63743 48.1495 6.17304 48.2775C6.66986 48.3961 7.1408 48.606 7.5623 48.8967C7.96515 49.1787 8.2955 49.5535 8.52591 49.9902C8.77578 50.4885 8.89788 51.042 8.88107 51.6002H6.58303C6.57398 51.3185 6.50355 51.0423 6.37672 50.7912C6.26764 50.5865 6.10854 50.4133 5.91451 50.288C5.71188 50.1605 5.48803 50.0713 5.25382 50.0245C4.98625 49.9721 4.71422 49.9465 4.44167 49.948C4.24776 49.9485 4.0544 49.9688 3.86455 50.0086C3.67893 50.0482 3.50196 50.1214 3.34227 50.2247C3.18777 50.3226 3.05596 50.4529 2.95578 50.6068C2.84827 50.7801 2.79545 50.9822 2.80432 51.1865C2.79446 51.37 2.83609 51.5527 2.92444 51.7135C3.04619 51.8787 3.2119 52.0057 3.40233 52.0797C3.72121 52.2204 4.05146 52.3332 4.38944 52.417L6.0268 52.8491C6.23049 52.8913 6.50991 52.9651 6.87028 53.0705C7.24956 53.1883 7.61013 53.3605 7.94096 53.5817C8.30783 53.8286 8.62067 54.1487 8.86017 54.5223C9.13135 54.9694 9.26579 55.4873 9.24666 56.0111C9.25106 56.4906 9.15216 56.9653 8.95679 57.4024C8.76152 57.8341 8.46805 58.2133 8.10025 58.5091C7.68019 58.8411 7.20046 59.088 6.68748 59.2363C6.05348 59.4198 5.39627 59.5086 4.73676 59.4998C4.15004 59.5013 3.56555 59.4269 2.99756 59.2785C2.4624 59.1433 1.95738 58.9072 1.50906 58.5828C1.07816 58.2678 0.727362 57.8542 0.48539 57.376C0.220368 56.8357 0.0946275 56.2367 0.119792 55.6343H2.42828C2.41826 55.9569 2.48639 56.2771 2.62674 56.5671" fill="white"/>
<path d="M15.4404 59.26V58.1586H15.396C15.15 58.591 14.7792 58.9375 14.3331 59.152C13.915 59.3514 13.4586 59.4558 12.9961 59.4576C12.5132 59.4737 12.0318 59.3959 11.5781 59.2284C11.2343 59.0951 10.9322 58.8712 10.7033 58.5802C10.4815 58.2758 10.329 57.9258 10.2567 57.5552C10.1665 57.1158 10.1227 56.668 10.1262 56.2192V51.3604H12.2832V55.8214C12.2514 56.3269 12.3571 56.8317 12.5887 57.2811C12.7924 57.6 13.1502 57.7607 13.6672 57.7607C14.2548 57.7607 14.6805 57.5868 14.9416 57.2337C15.2027 56.8806 15.3385 56.3036 15.3385 55.4999V51.3604H17.4929V59.2653L15.4404 59.26Z" fill="white"/>
<path d="M23.6798 57.6236C23.9125 57.4851 24.1101 57.2938 24.2569 57.065C24.4083 56.8233 24.5137 56.5552 24.5677 56.2745C24.6283 55.9673 24.6589 55.6549 24.6591 55.3417C24.6589 55.029 24.6256 54.7172 24.5598 54.4116C24.5003 54.121 24.3897 53.8435 24.2334 53.5921C24.085 53.3562 23.8849 53.1579 23.6484 53.0124C23.384 52.8577 23.0818 52.781 22.7762 52.7911C22.4656 52.7797 22.158 52.8564 21.8884 53.0124C21.6552 53.156 21.4578 53.3516 21.3112 53.5842C21.158 53.8329 21.0518 54.1081 20.9979 54.3958C20.9377 54.7074 20.908 55.0242 20.9091 55.3417C20.9084 55.6552 20.9408 55.9679 21.0057 56.2745C21.0654 56.5552 21.1742 56.8228 21.3269 57.065C21.4746 57.2943 21.6742 57.4849 21.9093 57.621C22.1836 57.7613 22.4869 57.8344 22.7945 57.8344C23.1021 57.8344 23.4054 57.7613 23.6798 57.621V57.6236ZM20.8777 51.3603V52.3668H20.9091C21.1443 51.9641 21.4923 51.6405 21.9093 51.4367C22.3274 51.2388 22.7845 51.1389 23.2463 51.1442C23.7986 51.1298 24.3462 51.2509 24.8419 51.4973C25.2748 51.7218 25.6529 52.0404 25.9491 52.4301C26.2511 52.8339 26.4728 53.293 26.602 53.7818C26.7452 54.3062 26.8172 54.8478 26.8161 55.3918C26.8171 55.9089 26.745 56.4235 26.602 56.9201C26.4709 57.3906 26.252 57.8315 25.9569 58.2191C25.6683 58.5967 25.2999 58.9045 24.8784 59.1203C24.4095 59.3536 23.8917 59.4693 23.369 59.4576C22.9052 59.466 22.4455 59.3687 22.0242 59.173C21.6161 58.9749 21.2674 58.6712 21.0135 58.2929H20.9848V62.024H18.8278V51.3603H20.8777Z" fill="white"/>
<path d="M28.6602 56.5381C28.7487 56.9208 28.9034 57.2847 29.1172 57.6132C29.322 57.9268 29.5943 58.1897 29.9136 58.3826C30.2676 58.5899 30.6719 58.693 31.0809 58.6803C31.5276 58.6955 31.9704 58.5929 32.3658 58.3826C32.7061 58.1947 32.9985 57.9295 33.2197 57.6079C33.4401 57.2837 33.5986 56.9209 33.6871 56.5381C33.8786 55.7398 33.8786 54.907 33.6871 54.1087C33.6005 53.7211 33.4419 53.3537 33.2197 53.0257C32.9997 52.7057 32.7092 52.4414 32.371 52.2537C31.9752 52.0445 31.5327 51.9419 31.0862 51.9559C30.6773 51.9445 30.2733 52.0475 29.9189 52.2537C29.5992 52.4473 29.3269 52.7112 29.1224 53.0257C28.9082 53.3549 28.7534 53.7198 28.6654 54.1034C28.4739 54.9017 28.4739 55.7346 28.6654 56.5328L28.6602 56.5381ZM33.9117 59.26V57.7607H33.8804C33.7766 58.0214 33.6251 58.2601 33.4338 58.4643C33.2361 58.6779 33.0082 58.8608 32.7575 59.0071C32.5022 59.1554 32.2293 59.2705 31.9453 59.3496C31.6659 59.4306 31.3768 59.4722 31.0862 59.4735C30.5457 59.4874 30.0093 59.3746 29.5193 59.1441C29.089 58.933 28.7128 58.6247 28.4199 58.2429C28.1196 57.8507 27.8979 57.4032 27.7671 56.9255C27.4816 55.8813 27.4816 54.7787 27.7671 53.7345C27.8963 53.2521 28.1181 52.8 28.4199 52.4039C28.7139 52.0212 29.0897 51.7105 29.5193 51.4948C30.0081 51.2599 30.545 51.1452 31.0862 51.1601C31.3758 51.1591 31.6644 51.1945 31.9453 51.2655C32.2212 51.3356 32.4852 51.4466 32.7287 51.5949C32.9712 51.7409 33.1897 51.924 33.3764 52.1377C33.5662 52.357 33.7125 52.611 33.8073 52.886H33.8386V48.3486H34.7865V59.26H33.9117Z" fill="white"/>
<path d="M41.7483 53.7134C41.6392 53.387 41.4719 53.0834 41.2548 52.8176C41.0388 52.5574 40.7721 52.3449 40.4713 52.1931C40.1475 52.0294 39.7889 51.948 39.4268 51.9559C39.0648 51.9491 38.7064 52.0304 38.3822 52.1931C38.0814 52.3449 37.8148 52.5574 37.5988 52.8176C37.3793 53.0874 37.2071 53.393 37.0896 53.7214C36.9584 54.06 36.8706 54.4142 36.8284 54.7753H41.8998C41.8914 54.4161 41.8271 54.0604 41.7091 53.7214L41.7483 53.7134ZM37.0112 56.6541C37.1022 57.0139 37.259 57.3535 37.4734 57.6554C37.6896 57.9515 37.9644 58.1992 38.2804 58.3826C38.636 58.5848 39.0397 58.6851 39.4477 58.6725C40.0446 58.7085 40.6323 58.5103 41.0876 58.1191C41.5 57.7245 41.7857 57.2142 41.9076 56.6541H42.866C42.7195 57.4477 42.3284 58.1744 41.7483 58.7304C41.2086 59.2205 40.4417 59.4656 39.4477 59.4656C38.8963 59.479 38.349 59.3664 37.8469 59.1362C37.4123 58.9309 37.034 58.6215 36.7449 58.2351C36.455 57.8396 36.2415 57.3927 36.1155 56.9176C35.9769 56.3978 35.9075 55.8617 35.9092 55.3234C35.9094 54.8069 35.9788 54.2929 36.1155 53.7951C36.2431 53.3141 36.4564 52.8605 36.7449 52.4566C37.0347 52.0595 37.412 51.7357 37.8469 51.5106C38.3434 51.261 38.8931 51.1379 39.4477 51.1523C39.9765 51.1297 40.5023 51.2448 40.9743 51.4867C41.4463 51.7285 41.8486 52.0888 42.1426 52.533C42.4302 52.9647 42.634 53.4475 42.7433 53.9559C42.8655 54.4885 42.9164 55.0353 42.8947 55.5816H36.8754C36.8772 55.9456 36.9254 56.3078 37.0191 56.6593" fill="white"/>
<path d="M48.256 53.4841C48.5184 53.4845 48.7804 53.4633 49.0394 53.4209C49.2752 53.387 49.5022 53.3074 49.708 53.1864C49.9036 53.0653 50.0633 52.8932 50.1702 52.6884C50.2979 52.4276 50.3581 52.1384 50.3452 51.8478C50.3577 51.5572 50.2976 51.2681 50.1702 51.0072C50.064 50.8025 49.9041 50.6312 49.708 50.5119C49.5029 50.3889 49.2757 50.3083 49.0394 50.2747C48.7802 50.2345 48.5183 50.2142 48.256 50.2141H46.4019V53.4841H48.256ZM48.9089 48.3486C49.4997 48.3332 50.0878 48.4344 50.6402 48.6463C51.0796 48.822 51.4761 49.0917 51.8023 49.4368C52.0959 49.7573 52.3185 50.1373 52.4552 50.5514C52.7267 51.3931 52.7267 52.2999 52.4552 53.1416C52.3211 53.5592 52.0983 53.9423 51.8023 54.2641C51.4768 54.61 51.0801 54.8798 50.6402 55.0546C50.0878 55.2665 49.4997 55.3676 48.9089 55.3523H46.4019V59.2573H44.0203V48.3486H48.9089Z" fill="white"/>
<path d="M58.5655 59.26V58.1586H58.5212C58.2751 58.591 57.9044 58.9375 57.4583 59.152C57.0401 59.3511 56.5837 59.4554 56.1213 59.4576C55.6376 59.4734 55.1553 59.3956 54.7007 59.2284C54.3576 59.095 54.0564 58.8711 53.8285 58.5802C53.6047 58.2766 53.4513 57.9264 53.3793 57.5552C53.29 57.1157 53.2471 56.6679 53.2513 56.2192V51.3604H55.4162V55.8214C55.3823 56.3268 55.4871 56.8319 55.7191 57.2811C55.9202 57.6 56.2806 57.7607 56.7976 57.7607C57.3852 57.7607 57.8082 57.5868 58.072 57.2337C58.3357 56.8806 58.4663 56.3036 58.4663 55.4999V51.3604H60.6233V59.2653L58.5655 59.26Z" fill="white"/>
<path d="M67.6008 54.3537C67.5373 54.0664 67.4242 53.7926 67.2666 53.5448C67.1219 53.3169 66.9271 53.1257 66.6973 52.9862C66.4433 52.8512 66.1605 52.7806 65.8734 52.7806C65.5863 52.7806 65.3035 52.8512 65.0495 52.9862C64.8162 53.124 64.6185 53.3154 64.4724 53.5448C64.3148 53.7926 64.2016 54.0664 64.1381 54.3537C64.066 54.67 64.03 54.9936 64.031 55.3181C64.03 55.6401 64.0659 55.961 64.1381 56.2746C64.2036 56.5556 64.3167 56.823 64.4724 57.0651C64.6185 57.2945 64.8162 57.4859 65.0495 57.6237C65.3035 57.7587 65.5863 57.8293 65.8734 57.8293C66.1605 57.8293 66.4433 57.7587 66.6973 57.6237C66.9271 57.4842 67.1219 57.293 67.2666 57.0651C67.4222 56.823 67.5353 56.5556 67.6008 56.2746C67.6714 55.9644 67.7064 55.647 67.7053 55.3287C67.7071 55.0042 67.6721 54.6806 67.6008 54.3643V54.3537ZM64.1068 48.3486V52.3222H64.1381C64.3943 51.9194 64.7686 51.6072 65.2088 51.4289C65.6535 51.2403 66.1313 51.1435 66.6137 51.1443C67.0301 51.146 67.4417 51.2352 67.822 51.4062C68.2024 51.5773 68.5433 51.8264 68.823 52.1377C69.1547 52.5145 69.4102 52.9531 69.5751 53.4289C69.7786 54.0316 69.8758 54.6657 69.8623 55.3023C69.8756 55.9381 69.7784 56.5713 69.5751 57.1731C69.4102 57.6489 69.1547 58.0875 68.823 58.4643C68.5433 58.7756 68.2024 59.0247 67.822 59.1958C67.4417 59.3668 67.0301 59.456 66.6137 59.4577C66.0887 59.461 65.5678 59.3644 65.0782 59.1731C64.6289 59.0012 64.2574 58.6694 64.0336 58.2403H64.0049V59.2469H61.9445V48.3486H64.1068Z" fill="white"/>
</svg>
